<svg height='100px' width='100px'  fill="#000000" xmlns="http://www.w3.org/2000/svg" xmlns:xlink="http://www.w3.org/1999/xlink" version="1.1" x="0px" y="0px" viewBox="0 0 512 512" enable-background="new 0 0 512 512" xml:space="preserve"><path d="M482.465,377.258l0.188-242.526c0-3.266-1.75-6.266-4.578-7.922L261.016,1.438  C259.453,0.469,257.812,0,256.094,0c-1.609,0-3.203,0.453-4.609,1.266L34.113,126.81c-2.859,1.656-4.562,4.625-4.578,7.906v240.151  c-0.141,1.406-0.188,1.891-0.188,2.406c0,3.25,1.75,6.312,4.578,7.938l217.059,125.372c3.094,1.875,6.656,1.844,9.531,0.172  l217.371-125.544C480.699,383.586,482.449,380.523,482.465,377.258z M246.953,487.115L47.832,372.117V150.575l199.121,114.998  V487.115z M256.109,249.745L57.004,134.732l199.09-115.014l199.121,115.014L256.109,249.745z M464.168,371.992L265.25,486.896  V265.588l199.121-115.013L464.168,371.992z"></path></svg>