<?xml version="1.0" encoding="UTF-8"?>
<svg height='100px' width='100px' version="1.1" viewBox="0 0 1200 1200" xmlns="http://www.w3.org/2000/svg">
 <path d="m218.16 988.56v-12c1.4414-45.359-24.961-65.879-42.48-79.441-6.8398-5.2812-13.801-10.801-14.52-13.68 1.4414-9.4805 37.078-37.199 76.32-59.281l2.5195-0.95703 3.4805-3.1211 38.398 74.641c-4.1992 16.199-13.801 64.441 12 90.359l3.4805 3.4805h187.08l2.6406-8.3984h-0.003906c4.5078-17.582 1.9648-36.227-7.0781-51.961-12-21.719-36-37.199-69.961-45.719 1.5625-11.969 5.1758-23.578 10.68-34.32 14.074-31.348 25.863-63.672 35.281-96.719 39.137-1.1094 78.148-4.918 116.76-11.402l-26.16 205.92 18.121 42.602 191.28-0.003906 0.71875-11.16c2.7617-41.398-27.238-72-51-84 9.2656-35.383 15.328-71.527 18.121-108l8.7617-7.5586 69 120.24c-3.3594 14.762-10.32 57.719 12 86.039l3.6016 4.5586 189.12 0.003907v-12c-0.78906-23.023-9.4141-45.09-24.449-62.547-15.035-17.457-35.578-29.258-58.23-33.453-21.602-49.32-59.641-250.68-54.359-272.04 7.9336-16.949 14.785-34.387 20.52-52.199 17.223-1.5117 33.762-7.4648 48-17.281l62.039 26.398h2.1602c30.84 1.6797 133.2 5.3984 156-15.961v0.003906c13.387-11.812 23.094-27.227 27.961-44.402l1.1992-5.5195-3.4805-4.4414c-1.1992-1.5586-29.762-37.68-44.52-54.359-6.6055-7.6367-11-16.93-12.719-26.879-1.8281-7.1914-4.0312-14.281-6.6016-21.238-7.9219-21.121-44.52-53.641-60.84-67.559v-0.003906c7.543-14.797 10.031-31.656 7.0781-48-2.4805-8.6992-8.4844-15.965-16.559-20.039-17.398-9.1211-39.602 1.6797-58.078 15.602-115.39-17.941-233.48 2.6406-336 58.559-15.961 0-96 2.5195-248.28-6.9609-111.12-6.9609-224.4 31.68-295.68 100.56v0.003906c-27.496 26.141-49.066 57.883-63.246 93.074-14.18 35.195-20.645 73.02-18.953 110.93 5.7617 195.84-14.281 310.56-14.52 312l-0.83984 4.8008 29.879 43.559zm181.2-150.24c-5.5195 12-17.52 39.961-10.559 55.801 2.3672 5.4492 7.0977 9.5156 12.84 11.039 29.16 6.8398 48 18.602 57.961 34.68 4.3594 7.5273 6.4844 16.145 6.1172 24.84h-157.8c-12.719-18.238-5.8789-54.48-1.9219-67.68l1.4414-4.6797-45.84-89.16c20.105-19.184 38.051-40.512 53.52-63.602 38.305 8.1094 77.363 12.133 116.52 12-9.0156 29.555-19.836 58.531-32.402 86.762zm505.32 58.801 2.7617 5.1602 5.7617 0.96094-0.003906-0.003907c16.285 1.7734 31.586 8.6641 43.703 19.68 12.121 11.02 20.43 25.602 23.738 41.641h-151.2c-14.762-24.719-3.6016-64.559-3.4805-64.922l1.4414-4.9219-76.203-133.68 75-65.039 1.8008-1.5586 1.0781-2.0391c4.3203-8.5195 12-22.922 19.559-39.359 10.203 80.156 42.965 219.72 55.922 244.08zm-852-269.28c-1.4805-34.477 4.4375-68.867 17.355-100.87 12.914-32 32.527-60.863 57.523-84.652 66.602-64.441 172.92-100.44 277.44-93.961 171.96 10.68 250.68 7.0781 253.92 6.8398h3.1211l2.6406-1.6797h-0.003906c92.07-50.348 197.35-71.289 301.68-60-4.9219 4.9219-8.7617 9-10.68 11.281l18 15.84c21.719-24 53.281-48 63.84-42.48 2.2695 1.0664 3.9414 3.0898 4.5586 5.5195 0.96484 13.332-2.2656 26.633-9.2383 38.039l-14.879 19.68 19.199 14.398 7.8008-10.32c20.398 17.398 46.559 42.719 51.359 55.441v0.003906c2.4531 6.2422 4.5742 12.613 6.3594 19.078 2.6562 13.555 8.8203 26.172 17.879 36.602 11.039 12 31.078 37.559 39.602 48-4.5 10.277-11.078 19.508-19.32 27.117-9.9609 9.4805-77.762 12-135.84 9.6016l-64.559-27.602-7.1992-3-5.6406 5.2812c-13.543 10.992-30.566 16.781-48 16.32h-12v12c0 12-30.84 78.238-59.281 134.4l-108 93.602v4.8008c-3.6016 40.199-12 102.36-20.52 114.84l-9 13.559 15.602 4.5586h-0.003906c23.398 9.3359 40.531 29.809 45.602 54.48h-151.44l-9.3594-21.961 26.281-204v-2.0391c-6.0938-27.172-10.105-54.773-12-82.559h-24c0.96875 21.137 3.6172 42.164 7.918 62.879-35.281 5.8789-144 21-240.6 1.4414 24-44.281 20.879-72 20.641-74.52l-24 2.5195c0 0.60156 4.5586 67.078-99.719 158.28-43.078 24-92.52 58.32-87 84 4.168 11.895 12.414 21.93 23.281 28.32 14.762 12 29.879 23.281 32.762 48h-138.6l-17.16-25.441c3.8398-24.121 19.32-133.56 14.039-311.76z"/>
</svg>
