<?xml version="1.0" encoding="UTF-8"?>
<svg width='100px' height='100px' version="1.1" viewBox="0 0 1200 1200" xmlns="http://www.w3.org/2000/svg">
 <g>
  <path d="m958.56 264c-64.801-2.7617-134.16 14.762-204 158.04-57.84 120.24-391.44 342-699.36 241.56l-10.801-3.6016-4.0781 10.559c-22.441 57.723-17.52 85.441-16.922 88.801l2.0391 9.4805h41.402l-54 38.281 10.559 88.199 17.398-16.559h0.003906c81.84-69.254 187.07-104.59 294.12-98.762-16.32 20.281-60.602 36.602-89.762 43.078l-91.441 20.398 93.719 3.2383 0.003906 0.003906c88.547 1.6172 177.02-5.9844 264-22.68 23.355 17.414 50.348 29.309 78.957 34.801 5.6406 21 42.48 46.559 66.121 61.078-28.68 19.199-26.16 30.48-25.199 34.68 2.0391 9.2383 10.559 14.398 25.32 15.359 14.762 0.96094 36.961 1.1992 60 1.1992 44.879 0 93.121-1.1992 96-1.1992l46.199-1.0781-13.441-7.0781h137.4l-100.08-24c-58.68-13.922-116.76-64.078-144-90.121 79.32-17.641 201-72 252-237.36 59.281-193.56 165.96-225.24 167.04-225.48l30.238-7.6797-121.2-60.602c-26.801-32.32-66.266-51.484-108.24-52.559zm-140.52 674.04h-17.641c-57.121-30.961-115.92-66.602-121.8-76.68h0.003906c-0.55859-1.5898-0.92187-3.2422-1.082-4.918 7.8008 0 18.961-1.0781 32.52-3 31.82 33.164 68.184 61.648 108 84.598zm149.52-334.2c-62.879 205.32-237.24 226.92-288 228.72 1.7031-8.1523 3.9883-16.172 6.8398-24l-22.441-8.5195c-1.8008 4.5586-16.801 45.719-8.2812 69.238 6 16.441 61.32 50.039 110.76 77.398-34.441 0-80.039 0.71875-105.36-0.60156v0.003906c7.5625-5.9141 15.59-11.211 24-15.84l19.32-10.441-19.199-10.559c-37.441-20.641-72-48-72.719-56.039l12-19.199-22.32 0.96094c-20.391-1.1289-40.145-7.4922-57.359-18.48 100.08-23.16 204-63.602 276-134.52 64.32-63.84 88.32-109.92 73.441-140.88-19.078-39.48-91.441-31.922-99.602-30.961l2.8789 24c16.32-1.9219 65.281-2.8789 75.121 17.52 4.4414 9.2383 6.6016 38.641-68.641 113.4-125.64 124.56-366.12 150.96-485.28 156.48 22.441-12 42.48-28.68 45.84-50.52l1.9219-12-12.602-1.1992c-111.55-10.809-223.05 21.098-312 89.277l-3.4805-28.68 104.04-73.559h-96 0.003906c1.2773-18.809 5.3203-37.328 12-54.961 136.08 40.922 294.48 26.281 447.6-41.879 126.36-55.922 235.08-142.8 270.6-216 60-123.6 115.44-147 180.96-144 32.84 0.76562 63.988 14.738 86.398 38.762-11.645 20.016-16.684 43.195-14.398 66.238l24-2.1602c-1.7344-17.027 1.6055-34.188 9.5977-49.32l62.879 31.441c-38.398 21.238-112.32 79.68-158.52 230.88z"/>
  <path d="m975.6 350.16c0 7.1562-5.8047 12.961-12.961 12.961-7.1602 0-12.961-5.8047-12.961-12.961s5.8008-12.961 12.961-12.961c7.1562 0 12.961 5.8047 12.961 12.961"/>
 </g>
</svg>
