<?xml version="1.0" encoding="UTF-8"?>
<svg width='100px' height='100px' version="1.1" viewBox="0 0 100 100" xmlns="http://www.w3.org/2000/svg">
 <path fill="blue" d="m40.609 53.117c-5.0352 0-9.5625 0.77734-13.121 3.3203-3.5586 2.543-5.6094 6.9336-5.6094 12.316v9.3672c0 5.1406 4.2266 9.3633 9.3672 9.3633h37.508c5.1406 0 9.3672-4.2227 9.3672-9.3633v-9.3672c0-5.3828-2.0508-9.7734-5.6094-12.316-3.5586-2.543-8.1133-3.3203-13.148-3.3203z"/>
 <path fill="blue" d="m37.488 12.492c-5.1406 0-9.3633 4.2461-9.3633 9.3867v15.617c0 5.1406 4.2227 9.3633 9.3633 9.3633h25c5.1406 0 9.3867-4.2227 9.3867-9.3633v-15.617c0-5.1406-4.2461-9.3867-9.3867-9.3867zm6.2617 11.285c1.7266 0.007812 3.1211 1.4102 3.1133 3.1367v4.7656c0.007813 1.7266-1.3867 3.1328-3.1133 3.1367-1.7344 0.007813-3.1445-1.4023-3.1367-3.1367v-4.7656c-0.007812-1.7344 1.4023-3.1445 3.1367-3.1367zm12.504 0c1.7266 0.007812 3.1211 1.4102 3.1133 3.1367v4.7656c0.007812 1.7266-1.3867 3.1328-3.1133 3.1367-1.7344 0.007813-3.1445-1.4023-3.1367-3.1367v-4.7656c-0.007813-1.7344 1.4023-3.1445 3.1367-3.1367z"/>
 <path d="m21.887 20.297c-0.83594-0.003906-1.6328 0.32422-2.2227 0.91406-0.58984 0.58984-0.91797 1.3906-0.91797 2.2227v12.504c0.003906 0.82812 0.33594 1.6211 0.92578 2.207 0.58594 0.58203 1.3828 0.91016 2.2148 0.90625 1.7148-0.007812 3.1055-1.3984 3.1133-3.1133v-12.504c0.003906-0.82812-0.32422-1.625-0.90625-2.2148-0.58594-0.58984-1.3789-0.92188-2.207-0.92188z"/>
 <path d="m78.125 20.297c-0.83203-0.003906-1.6328 0.32422-2.2227 0.91406-0.58984 0.58984-0.91797 1.3906-0.91406 2.2227v12.504c0.003907 0.82812 0.33594 1.6211 0.92188 2.207 0.58984 0.58203 1.3867 0.91016 2.2148 0.90625 1.7188-0.007812 3.1094-1.3984 3.1133-3.1133v-12.504c0.003907-0.82812-0.32031-1.625-0.90625-2.2148-0.58203-0.58984-1.3789-0.92188-2.207-0.92188z"/>
</svg>
