<?xml version="1.0" encoding="UTF-8"?>
<svg width='100px' height='100px' version="1.1" viewBox="0 0 1200 1200" xmlns="http://www.w3.org/2000/svg">
 <g>
  <path d="m996 327c-2.8047-22.664-13.312-43.672-29.766-59.512-16.449-15.84-37.84-25.543-60.594-27.488-99.719-13.441-445.08-47.281-705 84-68.641 38.398-97.562 76.078-104.64 113.52-14.281 48-43.559 127.2-63.48 142.8-15.719 12-17.762 23.16-16.68 30.121 0.66406 3.8867 2.3789 7.5195 4.957 10.5 2.582 2.9844 5.9297 5.2031 9.6836 6.418 3.8477 1.3867 7.9102 2.0781 12 2.0391 11.555-0.23047 22.668-4.4727 31.441-12 17.098-18.004 31.344-38.523 42.238-60.84 3 40.922 1.4414 118.56-45.359 160.8l-1.4414 1.5586c-24.961 31.32-22.199 208.2-21.359 243.36 0 3.1797 1.2656 6.2344 3.5156 8.4844s5.3008 3.5156 8.4844 3.5156h68.641c3.1836 0 6.2344-1.2656 8.4844-3.5156s3.5156-5.3047 3.5156-8.4844c1.5586-50.281 13.078-122.28 33.238-144.48 6.2461 23.41 16.699 45.488 30.84 65.16 28.441 40.922 61.68 85.801 62.039 86.16h0.003907c2.2656 3.0195 5.8203 4.8008 9.5977 4.8008h76.801c4.2422 0.007813 8.1797-2.2227 10.348-5.8672 2.168-3.6484 2.25-8.1719 0.21094-11.895l-73.078-133.2s-15.359-34.801 1.6797-50.281c10.441-9.4805 36-37.68 52.68-96.719 85.543 24.508 173.95 37.621 262.92 39 0 29.641-4.5586 67.922-14.879 78.238h-0.003907c-4.4961 4.6523-4.4961 12.031 0 16.68 19.32 20.879 26.52 104.4 26.52 152.16 0 3.1836 1.2656 6.2344 3.5156 8.4844 2.25 2.2539 5.3047 3.5156 8.4844 3.5156h74.402c5.0195 0.015626 9.5234-3.0938 11.277-7.8008 15.27-43.523 23.375-89.238 24-135.36 44.762 47.039 70.922 93.359 73.559 132h0.003906c0.44141 6.2969 5.6875 11.176 12 11.16h85.199c3.3555 0.011719 6.5625-1.3828 8.8438-3.8477 2.2812-2.4609 3.4258-5.7656 3.1562-9.1133 0-4.8008-10.078-116.4-94.441-186.96v0.003906c7.0508-19.277 13.098-38.902 18.121-58.801h114.12c20.039 24 42.84 42.359 65.16 39.961 15.188-2.168 29.445-8.6094 41.109-18.574 11.668-9.9648 20.258-23.043 24.77-37.707 19.305 7.4531 40.695 7.4531 60 0 68.762-35.039 14.762-234.24-23.281-312-10.941-24.715-30.629-44.512-55.285-55.586-24.652-11.078-52.531-12.648-78.273-4.4141zm-938.16 271.92c-4.8008 4.3008-11.078 6.5781-17.52 6.3594 1.8672-2.2539 4.0039-4.2656 6.3594-6 19.199-15 39.238-61.32 53.52-99.961 2.0391 6.7188 4.5586 13.441 7.4414 20.16-10.441 21.238-33.961 66-49.801 79.441zm59.16 351.12h-45c-1.3203-82.32 2.5195-196.32 15.602-216 43.559-40.078 53.16-103.56 53.398-150 33.121 64.441 36.719 97.801 29.879 149.64-2.8672 19.305-3.4297 38.883-1.6797 58.32-40.438 21.602-49.918 118.92-52.199 158.04zm580.2 0h-54c-0.71875-31.801-4.6797-112.68-26.762-148.44 13.199-22.801 15.359-64.32 15.48-86.398 16.68 0 33.84 0 51.48-1.5586 3.2891 18.984 3.7734 38.352 1.4414 57.48-0.64844 4.2227 0.99609 8.4727 4.3203 11.16 9.1211 7.4414 17.801 14.961 26.039 22.559 9.7227 52.559-10.438 122.04-17.879 145.2zm326.88-218.76c-28.078 3.3594-75.359-71.281-100.08-124.8-2.75-6.0312-9.8672-8.6914-15.898-5.9414s-8.6914 9.8711-5.9414 15.902c11.906 25.945 25.785 50.938 41.52 74.758h-90c8.6406-34.078 15.719-65.762 17.281-72 1.457-6.625-2.7344-13.18-9.3594-14.641-6.6289-1.457-13.184 2.7344-14.641 9.3633-12 52.801-33.961 142.44-43.199 157.92v-0.003906c-3.1523 5.2383-1.8594 12.008 3 15.719 66 50.52 85.559 132 90.961 162.84h-60c-11.043-73.797-81.723-143.88-128.28-182.4 8.0391-75.961-39.719-189.48-41.762-194.4-2.7422-5.8359-9.6055-8.457-15.543-5.9414-5.9336 2.5156-8.8203 9.2734-6.5352 15.301 14.152 34.684 25.395 70.488 33.598 107.04-110.75 5.418-221.64-7.2305-328.32-37.441 6.8789-35.043 9.9375-70.734 9.1211-106.44 0-3.1836-1.2656-6.2344-3.5156-8.4883-2.25-2.25-5.3008-3.5117-8.4844-3.5117-6.6289 0-12 5.3711-12 12 1.1992 145.56-49.922 199.32-60 208.56-30.238 27.359-8.3984 75.961-7.0781 78.84l63.602 116.28h-50.164c-9.3594-12.602-35.281-48-58.078-80.762-28.68-41.398-37.199-78.48-30-132 8.0391-60 3.4805-99.961-44.879-187.2-5.3984-9.8398-10.559-19.32-15-28.68l-2.4023-5.1602c-0.19531-0.57812-0.4375-1.1406-0.71875-1.6797-11.473-22.141-15.672-47.336-12-72v-0.71875c6.7188-31.559 33.121-62.641 92.762-96 253.2-128.28 591.96-95.043 690.36-81.602 19.711 1.6211 38.051 10.734 51.242 25.469 13.195 14.73 20.238 33.961 19.68 53.73-0.35937 4.2227 1.5312 8.3242 4.9805 10.785 3.4492 2.4648 7.9414 2.9258 11.82 1.2148 3.2383-1.4414 79.32-33.48 117.36 43.559v0.003907c29.172 61.957 47.168 128.58 53.16 196.8-39.238 0-66.359 10.801-80.641 30.84-10.922 17.051-13.648 38.09-7.4414 57.363-2.6367 9.4766-14.039 43.559-48.48 47.52zm118.08-54.121h0.003906c-15.52 5.1953-32.461 4.0742-47.16-3.1211-3.3828-11.609-1.7266-24.109 4.5586-34.438 9.4805-13.32 30.84-20.398 61.801-20.762-0.35938 29.879-6.2383 51.719-19.199 58.32z"/>
  <path d="m1022.4 416.76c-3.2383 0-79.68-12-76.559-116.4v-0.003906c-0.0625-5.2109-3.4883-9.7891-8.4688-11.32-4.9844-1.5352-10.387 0.32422-13.371 4.6016-36 56.281-41.039 121.44-15.238 170.04 9.207 17.723 23.086 32.59 40.133 42.996s36.613 15.953 56.586 16.043c6.625 0 12-5.3711 12-12 0-6.625-5.375-12-12-12-15.59-0.19141-30.84-4.5977-44.125-12.754-13.289-8.1523-24.125-19.754-31.355-33.566-15.887-33.613-17.488-72.227-4.4414-107.04 4.207 23.461 15.406 45.105 32.133 62.086 16.727 16.984 38.195 28.512 61.59 33.074 6.625 0.86328 12.695-3.8125 13.559-10.441 0.86328-6.625-3.8125-12.695-10.441-13.559z"/>
 </g>
</svg>
