<svg height='100px' width='100px' version="1.1" viewBox="0 0 1200 1200" xmlns="http://www.w3.org/2000/svg">
 <g>
  <path d="m206.25 1200h478.12c9.9453 0 19.484-3.9492 26.516-10.984 7.0352-7.0312 10.984-16.57 10.984-26.516v-75c0-9.9453-3.9492-19.484-10.984-26.516-7.0312-7.0352-16.57-10.984-26.516-10.984h-18.75v-75h28.125c9.9453 0 19.484-3.9492 26.516-10.984 7.0352-7.0312 10.984-16.57 10.984-26.516v-75c0-9.9453-3.9492-19.484-10.984-26.516-7.0312-7.0352-16.57-10.984-26.516-10.984h-28.125v-75c0-9.9453-3.9492-19.484-10.984-26.516-7.0312-7.0352-16.57-10.984-26.516-10.984h-28.125v-75c0-9.9453-3.9492-19.484-10.984-26.516-7.0312-7.0352-16.57-10.984-26.516-10.984h-75c-6.6016 0.070312-13.07 1.8789-18.75 5.25-5.6797-3.3711-12.148-5.1797-18.75-5.25h-18.75v-75h18.75c9.9453 0 19.484-3.9492 26.516-10.984 7.0352-7.0312 10.984-16.57 10.984-26.516v-75c0-9.9453-3.9492-19.484-10.984-26.516-7.0312-7.0352-16.57-10.984-26.516-10.984h-18.75v-75c0-9.9453-3.9492-19.484-10.984-26.516-7.0312-7.0352-16.57-10.984-26.516-10.984h-75c-6.6016 0.070312-13.07 1.8789-18.75 5.25-5.6797-3.3711-12.148-5.1797-18.75-5.25h-131.25c-6.6016 0.070312-13.07 1.8789-18.75 5.25-5.6797-3.3711-12.148-5.1797-18.75-5.25h-75c-9.9453 0-19.484 3.9492-26.516 10.984-7.0352 7.0312-10.984 16.57-10.984 26.516v75c0.070312 6.6016 1.8789 13.07 5.25 18.75-3.3711 5.6797-5.1797 12.148-5.25 18.75v75c0.070312 6.6016 1.8789 13.07 5.25 18.75-3.3711 5.6797-5.1797 12.148-5.25 18.75v75c0.070312 6.6016 1.8789 13.07 5.25 18.75-3.3711 5.6797-5.1797 12.148-5.25 18.75v75c0.070312 6.6016 1.8789 13.07 5.25 18.75-3.3711 5.6797-5.1797 12.148-5.25 18.75v75c0.070312 6.6016 1.8789 13.07 5.25 18.75-3.3711 5.6797-5.1797 12.148-5.25 18.75v75c0.070312 6.6016 1.8789 13.07 5.25 18.75-3.3711 5.6797-5.1797 12.148-5.25 18.75v75c0.070312 6.6016 1.8789 13.07 5.25 18.75-3.3711 5.6797-5.1797 12.148-5.25 18.75v75c0 9.9453 3.9492 19.484 10.984 26.516 7.0312 7.0352 16.57 10.984 26.516 10.984h131.25c6.6016-0.070312 13.07-1.8789 18.75-5.25 5.6797 3.3711 12.148 5.1797 18.75 5.25zm-56.25-150v-75h84.375v75zm84.375-412.5v75h-121.88v-75zm-84.375-37.5v-75h131.25v75zm0 150h131.25v75h-131.25zm253.12 112.5v75h-84.375v-75zm-84.375-37.5v-75h75v75zm28.125 150v75h-75v-75zm-140.62-112.5h75v75h-75zm0 300v-75h75v75zm196.88 0h-84.375v-75h84.375zm112.5 0h-75v-75h75zm0-112.5h-131.25v-75h131.25zm-75-112.5v-75h46.875v75zm243.75 150v75h-131.25v-75zm-131.25-37.5v-75h75v75zm140.62-187.5v75h-168.75v-75zm-65.625-112.5v75h-75v-75zm-140.62-112.5h75v75h-75zm28.125 112.5v75h-84.375v-75zm-65.625-112.5v75h-178.12v-75zm-131.25-37.5v-75h75v75zm131.25-187.5v75h-75v-75zm-131.25-112.5h75v75h-75zm0 112.5h18.75v75h-131.25v-75zm-168.75-112.5h131.25v75h-131.25zm-112.5 0h75v75h-75zm0 112.5h131.25v75h-131.25zm0 112.5h75v75h-75zm0 112.5h37.5v75h-37.5zm0 112.5h75v75h-75zm0 112.5h131.25v75h-131.25zm0 112.5h75v75h-75zm131.25 187.5h-131.25v-75h131.25z"/>
  <path d="m1190.6 133.69-233.53-131.25c-3.7734-2.2617-8.2188-3.125-12.562-2.4375l-406.03 75c-3.8594 0.70703-7.4023 2.6094-10.125 5.4375l-54.375 56.25c-3.5625 3.5312-5.5625 8.3438-5.5469 13.359 0.011719 5.0195 2.0312 9.8203 5.6133 13.336 3.5781 3.5117 8.418 5.4453 13.434 5.3672h113.25v209.91l-70.031 67.219c-3.6094 3.4805-5.6758 8.2617-5.7383 13.277-0.058594 5.0117 1.8945 9.8438 5.4219 13.41 3.5234 3.5625 8.332 5.5664 13.348 5.5625h150c5 0.003906 9.793-1.9883 13.316-5.5352 3.5234-3.543 5.4844-8.3516 5.4492-13.352-0.035156-4.9961-2.0664-9.7734-5.6406-13.27l-68.625-67.219v-210h253.12l-81.281 900h-31.969c-4.9727 0-9.7422 1.9766-13.258 5.4922-3.5156 3.5156-5.4922 8.2852-5.4922 13.258v93.75c0 4.9727 1.9766 9.7422 5.4922 13.258 3.5156 3.5156 8.2852 5.4922 13.258 5.4922h375c4.9727 0 9.7422-1.9766 13.258-5.4922 3.5156-3.5156 5.4922-8.2852 5.4922-13.258v-93.75c0-4.9727-1.9766-9.7422-5.4922-13.258-3.5156-3.5156-8.2852-5.4922-13.258-5.4922h-33.281l-102-900h163.41c5.5742 0.039062 10.879-2.4062 14.469-6.668 3.5938-4.2656 5.1016-9.9062 4.1172-15.395-0.98438-5.4883-4.3594-10.25-9.2109-13zm-542.81 306.94h-57.188l29.062-28.125zm242.81 152.16 44.812 47.625-54 54zm101.25-320.91 4.2188 37.5h-79.5l3.375-37.5zm-68.438-37.5 5.9062-65.625h50.812l7.4062 65.625zm-4.6875 112.5h81.562l7.2188 63.656h-100.03l5.8125-64.5c1.7617 0.54688 3.5938 0.83203 5.4375 0.84375zm-28.125 586.22 73.312-84.375 81.469 85.312-76.969 49.969zm140.62 135.66h-124.69l62.25-40.406zm-68.156-276.09-61.688-64.5 60.375-60.375 57 60.562zm-43.781-224.53 42.75-45.938 46.031 46.031-45.75 45.75zm41.812-99.938-20.156-20.156h38.906zm-25.594 27.469-39.562 42.469 6.75-75zm-59.25 260.62 61.969 64.875-75.75 87.375zm-18.094 199.97 76.125 49.406-85.594 55.594zm276.19 150v56.25h-337.5v-56.25zm-53.719-49.969-77.531-50.25 66.844-43.406zm-18-159.38-73.781-77.156 57.469-66.375zm-22.781-200.81-51.75-54.844 40.875-41.25zm-18.75-168.75-33.188-33.188 26.25-28.125zm-489.56-396.09 19.688-20.531 393.75-72.375 164.62 92.906z"/>
 </g>
</svg>
