<svg width='100px' height='100px' version="1.1" viewBox="0 0 1200 1200" xmlns="http://www.w3.org/2000/svg">
 <g>
  <path d="m754.66 991.93 4.2422 39.488c0.13281 1.2383 1.1367 2.1719 2.332 2.1719h33.969l-4.8906-45.523c-11.957 0.24609-23.906 1.543-35.652 3.8633z"/>
  <path d="m782.39 914.31c-1.2891-11.992-5.1328-23.461-11.43-34.078-12.484-21.059-23.676-43.168-33.258-65.711-3.7266-8.7656-7.2188-17.645-10.496-26.613-9.0117-1.2344-18.078-2.3281-27.176-3.3164 8.4883 19.137 18.152 37.891 28.797 55.844 7.7422 13.066 12.477 27.199 14.07 42.008l9.6523 89.855c11.766-2.2305 23.699-3.5195 35.652-3.8516z"/>
  <path d="m233.78 988.04c0.51562 1.0156 1.0078 2.043 1.5391 3.0469 3.2109 6.0781 5.7578 12.496 7.6875 19.098 0.24219 0.625 0.42969 1.2734 0.54297 1.9414 1.9023 7.0039 3.0938 14.207 3.4961 21.477h27.363c1.293 0 2.3477-1.0977 2.3477-2.4453v-21.68c0-5.7969-0.64453-11.57-1.8281-17.223-13.543-2.793-27.348-4.2148-41.148-4.2148z"/>
  <path d="m267.13 970.5c-4.5547-8.625-8.5195-17.633-11.785-26.773-8.3203-23.27-10.844-43.066-12.082-65.637-2.0586-37.609-0.72266-81.277 3.8477-127.22-18.023 12.316-30.031 32.938-31.781 56.113-2.7266 36.211-3.2773 69.789-1.6328 99.797 1.1406 20.855 3.4414 39.055 10.961 60.09 0.19531 0.54688 0.41406 1.0859 0.61719 1.6328 1.9961-0.074218 3.9922-0.12891 5.9766-0.14844 12.066-0.13672 24.145 0.75 36.086 2.5781-0.074219-0.14453-0.13281-0.29297-0.20703-0.42969z"/>
  <path d="m182.23 1017.8c-12.672 0.12109-25.344 1.4492-37.789 3.9102l4.2422 39.488c0.13281 1.2383 1.1367 2.1719 2.332 2.1719h74.172c1.293 0 2.3477-1.0977 2.3477-2.4453v-21.68c0-5.7969-0.64453-11.57-1.8281-17.219-14.301-2.9492-28.906-4.375-43.477-4.2266z"/>
  <path d="m851.5 1017.8c-12.672 0.12109-25.344 1.4492-37.789 3.9102l4.2422 39.492c0.13281 1.2383 1.1367 2.1719 2.332 2.1719h74.172c1.293 0 2.3477-1.0977 2.3477-2.4453v-21.68c0-5.7969-0.64062-11.57-1.8281-17.219-14.312-2.957-28.949-4.3906-43.477-4.2305z"/>
  <path d="m890.12 274.83c14.672 4.6758 42.141 5.5625 53.383-11.988 6.1133-9.5391 9.4258-28.387-0.57422-37.504-2.9414-2.6836-7.0781-4.6602-11.395-5.5703-0.45703-0.050781-0.90625-0.13672-1.3516-0.25-5.6719-0.89453-11.473 0.097657-15.145 3.7695-4.5703 4.5781-4.5156 12.215-4.3906 14.445 0.30859 5.4258-3.8398 10.07-9.2617 10.379-5.4141 0.31641-10.074-3.8398-10.379-9.2617-0.3125-5.5039 0.050781-19.395 10.117-29.469 7.6992-7.6953 18.297-10.469 28.648-9.6523 6.7109-5.6445 17.641-17.188 21.922-35.055 2.5-10.426 2.0195-20.016 0.38281-28.035-3.3047 5.9688-7.2656 11.348-11.871 16.098-13.762 14.199-28.129 17.613-40.809 20.625-10.668 2.5352-19.875 4.7227-28.332 13.176-13.859 13.855-22.086 41.039-11.875 62.555 8.25 17.359 25.762 24.09 30.93 25.738z"/>
  <path d="m1160.7 383.33c-7.1211-27.012-7.4648-44.641-7.7656-60.195-0.29688-15.344-0.55469-28.594-7.7617-48.242l-0.39453-1.0625c-11.215-29.891-34.871-52.594-63.977-63.668-0.63672-0.16797-1.2461-0.40625-1.8281-0.69531-13.531-4.8828-28.188-7.2695-43.293-6.7188l-84 3.0742c-0.26953 0.30078-0.53516 0.63281-0.80078 0.92188 1.9141 1.2227 3.6992 2.5781 5.3281 4.0586 17.398 15.863 15.637 44.316 3.8867 62.656-10.781 16.824-30.758 23.992-50.672 23.996-8.6797 0-17.355-1.3633-25.25-3.8789-9.0742-2.8945-31.402-12.195-42.723-36.047-5.207-10.965-7-22.645-6.3203-33.969-31.586-15.984-62.383-23.027-91.605-20.918-29.086 2.0977-46.062 11.973-65.719 23.406-21.57 12.551-46.027 26.777-89.566 31.254-14.84 1.5234-25.191 1.7578-35.207 1.9883-15.41 0.34766-29.957 0.67578-59.867 5.9609-24.109 4.2578-35.871 8.168-48.32 12.305-10.121 3.3633-20.59 6.8398-37.641 10.422-73.043 15.344-136.54 5.2461-163.66 0.93359-30.125-4.7891-49.527-10.836-63.691-15.246-18.207-5.6719-27.344-8.5156-43.02-4.8125-45.449 10.75-77.926 66.988-89.781 90.672-55.16 110.18-89.551 415.82 60.363 506.61 4.8281 2.9219 9.8164 5.6094 14.945 8.043-5.0859-13.012-8.9023-26.367-11.395-39.922-3.2852-17.875-3.2539-30.758-3.2305-41.109 0.015625-6.7188 0.03125-12.52-0.80469-18.438-3.2344-22.902-19.316-45.156-47.777-66.336 1.6133 13.305 3.6953 26.602 6.2656 39.875 1.0312 5.332-2.4531 10.496-7.7891 11.527-0.62891 0.12109-1.2578 0.18359-1.8789 0.18359-4.6172 0-8.7383-3.2695-9.6484-7.9688-10.152-52.445-13.059-105.23-8.7812-157.59 0.003906-0.082032 0.011718-0.16016 0.019531-0.24219 1.5898-19.363 4.1328-38.668 7.6953-57.867 9.2148-49.648 25.023-98.008 46.98-143.74 2.3477-4.8945 8.2188-6.9609 13.125-4.6094 4.8945 2.3516 6.9609 8.2266 4.6094 13.125-21.203 44.168-36.469 90.871-45.371 138.81-3.1875 17.172-5.5547 34.426-7.1055 51.73 13.703 16.168 24.219 34.473 31.199 54.523 7.75 22.254 10.793 46.355 8.9961 69.996 16.465 17.73 26.195 36.391 28.941 55.824 1.0312 7.3125 1.0156 14.074 1 21.238-0.023438 10.039-0.050782 21.422 2.9062 37.504 3.6016 19.586 10.25 38.746 19.77 56.941 1.8438 3.5273 1.3828 7.8203-1.1797 10.875-1.8984 2.2656-4.6758 3.5195-7.5352 3.5195-0.98828 0-1.9883-0.14844-2.9648-0.45703-2.7109-0.85547-5.3945-1.793-8.0547-2.7656 1.0781 4.4102 1.875 8.8828 2.3594 13.41l9.6523 89.852c13.09-2.4805 26.398-3.8203 39.703-3.9492 12.031-0.125 24.129 0.76172 36.09 2.5859-0.074219-0.14453-0.13672-0.29297-0.21094-0.43359-2.9375-5.5664-5.5977-11.297-8.0156-17.109-0.035157-0.066406-0.054688-0.14062-0.089844-0.21094-1.2969-3.1328-2.5469-6.2812-3.6797-9.457-8.3203-23.27-10.844-43.066-12.082-65.633-1.7031-30.867-1.1445-65.305 1.6484-102.36 2.7539-36.559 25.906-68.211 58.98-80.633l0.73047-0.27344c47.133-17.434 83.828-4.8438 126.31 9.7344 35.934 12.332 76.664 26.309 135.27 27.781 16.871 0.42188 29.727-0.35547 43.332-1.1797 19.961-1.2109 42.582-2.5781 82.992-0.59375 13.703 0.67188 27.434 1.6797 41.133 2.918 0.27344 0 0.53906 0.042969 0.80859 0.070313 11.664 1.0664 23.281 2.3477 34.836 3.8125-6.082-18.938-11.195-38.203-15.211-57.668-1.0977-5.3203 2.3203-10.523 7.6445-11.621 5.3281-1.0977 10.523 2.3281 11.621 7.6445 7.1641 34.703 17.812 68.797 31.645 101.33 9.2461 21.742 20.039 43.066 32.078 63.379 7.7422 13.059 12.477 27.195 14.074 42.008l9.6523 89.855c13.09-2.4805 26.398-3.8203 39.703-3.9492 12.059-0.11328 24.145 0.76562 36.094 2.5859-0.078125-0.14453-0.13672-0.29688-0.21484-0.4375-4.5547-8.6211-8.5195-17.629-11.789-26.773-8.3125-23.262-10.844-43.062-12.082-65.633-2.3281-42.551-0.32031-92.828 5.8047-145.41 0.62891-5.3945 5.5078-9.2578 10.91-8.6328 5.3945 0.62891 9.2617 5.5117 8.6328 10.91-1.5312 13.141-2.7969 26.121-3.8008 38.859 24.516-22.383 43.324-47.949 56.051-76.246 6.4375-14.316 9.6758-25.598 13.148-38.828-50.484-40.402-91.898-91.719-119.95-148.84-56.609-115.24-47.211-226.34-36.57-282.32 1.0117-5.3398 6.1562-8.8359 11.5-7.8281 5.3359 1.0156 8.8398 6.1641 7.8281 11.5-10.184 53.562-19.188 159.85 34.898 269.97 25.539 51.992 62.68 98.969 107.88 136.69 12.125-43.746 28.93-88.273 50.02-132.61-32.438-14.512-48.609-41.281-53.184-50.016-2.5195-4.8164-0.66016-10.758 4.1523-13.277 4.8047-2.5156 10.754-0.66406 13.273 4.1523 4.2969 8.207 21.016 35.75 55.809 45.539 20.223 5.6875 38.363 2.9453 51.102-0.97266-15.402-12.016-27.105-29.156-32.406-49.273-1.3828-5.2539 1.75-10.637 7.0039-12.02 5.2539-1.3828 10.633 1.75 12.02 7.0039 8.0625 30.586 34.723 52.418 64.828 53.102 0.49219 0.011719 0.98828 0.015626 1.4844 0.015626 27.027 0 53.336-16.582 60.324-38.25 3.7578-11.648 0.1875-19.258-8.9766-36.859-7.1484-13.742-16.941-32.551-24.414-60.898zm-126.09-44.246c-10.871 0-19.684-8.8828-19.684-19.84 0-10.957 8.8125-19.844 19.684-19.844s19.684 8.8828 19.684 19.844c0 10.961-8.8125 19.84-19.684 19.84zm112.5 150.56c-9.1289 8.3477-25.488 5.1719-36.531-7.1016-11.047-12.27-12.598-28.988-3.4648-37.34 9.1289-8.3477 25.488-5.1719 36.531 7.1016 11.043 12.273 12.594 28.992 3.4648 37.34z"/>
  <path d="m1195.8 136.95c-8.9805 14.262-20.133 27.117-32.895 37.824-17.312 14.527-35.316 23.434-51.305 28.902 15.914 10.102 29.547 23.562 39.77 39.656 13.094-7.1875 36.945-24.246 45.57-56.355 5.2734-19.633 2.8008-37.176-1.1406-50.027z"/>
 </g>
</svg>
