<svg width='100px' height='100px' version="1.1" viewBox="0 0 1200 1200" xmlns="http://www.w3.org/2000/svg">
 <g>
  <path d="m54.844 708.89c5.0508 0.042969 9.9727-1.5977 13.992-4.6562 4.0234-3.0625 6.9102-7.3711 8.2188-12.25 3.2812-11.926 7.3711-26.113 11.758-39.699 1.0742 12.125 1.8594 26.852 2.043 43.395 0.52734 47.926-4.4688 73.035-7.7344 77.605-11.484 15.73-7.0312 44.062 14.434 91.859 12.297 27.391 26.195 51.918 29.844 58.25l26.57 91.258c2.1719 7.5156 6.5352 14.215 12.535 19.238 6.0039 5.0195 13.363 8.1406 21.145 8.957l47.258 5.0742c6.8203 0.73828 13.711-0.48438 19.867-3.5156l29.352 3.5156c1.2969 0.13672 2.6016 0.20703 3.9062 0.21094 6.8438 0.011719 13.551-1.9258 19.34-5.5781 5.7852-3.6562 10.414-8.8789 13.344-15.066 6.7969-14.465 3.75-25.496-0.015625-32.207-8.0469-14.352-27.156-23.141-58.379-26.832-10.516-11.047-28.262-78.309-39.574-150.31 11.809-65.59 26.691-138.14 31.703-148.71 0.71875-1 1.8164-2.4766 3.2227-4.3633h-0.003906c15.887-20.957 30.469-42.875 43.66-65.625 57.32 21.09 117.88 32.031 178.95 32.344 20.027 0.011719 40.035-1.2578 59.898-3.793-19.621 81.633-39.801 180-32.109 212.34 8.832 37.188-1.7734 77.949-8.1133 102.3-0.60938 2.3438-1.1719 4.5156-1.6836 6.5234-1.7109 6.7969-9.25 39.73 1.5508 54.141-0.027344 0.23438-0.054688 0.45312-0.078125 0.66016-0.53125 4.5039-1.6406 13.879 5.7656 21.723 6.707 7.1133 18.324 11.68 50.219 11.68 8.3633 0 18.133-0.3125 29.562-0.98047 4.9219-0.28516 15.961-0.9375 24.879-5.543l12.891 0.61328c1.582 0.078125 3.1289 0.11719 4.6406 0.11328l0.003906 0.003906c4.4375 0.015626 8.8672-0.34375 13.242-1.0781 19.172-3.2695 24.902-12.684 26.336-20 2.9805-15.219-10.234-31.039-42.852-51.285l0.003906-0.003906c-1.7422-1.0703-2.8555-2.918-2.9883-4.9531-5.1055-85.203-1.375-138.57 4.9492-147.24 10.469-14.359 33.367-73.629 68.055-176.17v-0.003906c4.2969-12.727 11.281-24.383 20.48-34.176 10.109-10.492 22.965-17.934 37.098-21.477 5.1719-1.3477 10.461-2.1758 15.797-2.4766l-0.054687-1.0156h-0.003907c31.539-5.5312 62.453-14.168 92.289-25.781 69.793-27.871 109.96-68.77 116.17-118.28 12.578-100.33 79.23-117.5 81.906-118.14v0.003906c10.668-2.457 21.168-5.5898 31.441-9.375 8.3711-3.1172 17.348-4.25 26.23-3.3125 9.6992 0.99609 20.551 1.6094 32.258 1.8203 13.074 0.25391 24.812-14.848 26.051-27.98 0.69922-7.5234-1.8164-14.992-6.9258-20.555 2.6367-7.2148 2.9414-15.082 0.86719-22.48-2.1523-7.2656-8.0039-17.465-23.656-24.875-12.16-5.6367-25.707-7.6055-38.969-5.6562-33.789 4.6445-61.672 4.3984-71.035-0.62891-17.379-9.332-34.488-10.422-43.68-11.004l-1.5859-0.10156h-0.003906c-3.8867-3.3398-8.1172-6.2617-12.621-8.7148-14.023-8.0703-19.148-8.0938-22.852-7.4727-10.207 1.6953-14.445 9.8438-18.441 37.062-5.5469 5.9336-13.891 17.688-27.996 44.012v0.003906c-9.793 18.133-17.676 37.234-23.523 56.996-14.801 50.727-38.703 82.367-67.305 89.09-20.605 4.8438-44.125-3.75-61.387-22.453-84.75-91.754-136.07-109.32-164.17-107.86-3.168 0.16016-6.3398 0.12891-9.5039-0.09375-27.113-1.8945-51.695-19.18-64.152-45.109-13.074-27.203-45.957-72.316-119.48-68.73-61.602 2.9922-94.23 37.852-125.77 71.559-22.5 24.043-45.758 48.906-81.125 66.074-96.852 47.016-158.48 129.45-146.55 196.01v0.003906c3.4219 18.988 4.3789 38.34 2.8477 57.578-1.582 17-5.6758 33.676-12.152 49.477-14.387 36.621-9.1758 74.184-2.2734 99.25v-0.003906c1.3047 4.8711 4.1914 9.1719 8.207 12.223 4.0117 3.0547 8.9258 4.6875 13.969 4.6406zm241.3 300.15c0.77344 1.3789 0.46875 3.5586-0.90234 6.4766-1.457 3.0078-4.6406 4.7852-7.9688 4.4531l-12.668-1.5156c1.5977-6.6055 1.0625-13.547-1.5312-19.832 18.387 3.8633 22.379 9.1914 23.07 10.418zm-61.07-360.76c-1.8242 2.4531-3.1836 4.2852-3.9648 5.3906-8.2891 11.809-24.418 94.508-36.488 161.81-0.27344 1.5312-0.29297 3.0977-0.054688 4.6367 0.25781 1.668 6.4375 41.34 15.852 82.086 7.707 33.371 14.711 55.242 21.457 69.426l-0.003906-0.003906c-6.1836-1.3945-12.438-2.457-18.734-3.1836-2.793-3.1953-12.391-17.957-26.09-79.414-7.1016-31.875-12.188-62.461-13.543-70.922 11.809-65.586 26.691-138.12 31.703-148.69 0.71875-1 1.8164-2.4727 3.2188-4.3633 23.105-31.078 40.641-58.562 52.609-82.457 3.8633 1.8477 8.5156 3.9844 13.887 6.3281-12.145 20.527-25.449 40.348-39.848 59.359zm432.71-26.461c-37.527 110.93-57.738 159.84-64.141 168.61-12.395 16.996-15.859 72.676-10.297 165.48 0.68359 11.156 6.7305 21.285 16.227 27.176 9.4883 5.5391 18.301 12.16 26.266 19.727-3.793 0.57813-7.6367 0.75391-11.469 0.53516l-2.6484-0.125c-4.1406-11.703-17.645-24.316-41.82-39.328v-0.003906c-1.7539-1.0742-2.875-2.9336-3.0117-4.9844-5.1016-85.195-1.3711-138.55 4.9492-147.22 10.469-14.359 33.367-73.629 68.055-176.17 4.3008-12.734 11.289-24.395 20.488-34.191 4.0859-4.2852 8.6719-8.0625 13.664-11.25-6.9336 9.7344-12.414 20.426-16.262 31.738zm-606.67-18.75c7.4922-18.367 12.211-37.746 14.004-57.5 1.7266-21.648 0.65234-43.43-3.1953-64.805-9.4414-52.656 48.168-125.46 131.15-165.74 40.059-19.453 66.262-47.453 89.383-72.16 31.496-33.66 56.375-60.25 106.58-62.691 54.434-2.6406 80.492 27.25 92.758 52.816 16.828 35.016 50.375 58.383 87.543 60.98h0.003906c4.2891 0.29688 8.5938 0.33984 12.891 0.12109 30.348-1.5352 83.465 35.402 142.07 98.855 24.496 26.52 57.57 38.012 88.484 30.746 27.516-6.4688 65.098-30.559 87.863-108.59v0.003907c5.3047-17.891 12.453-35.18 21.328-51.59 17.793-33.211 24.188-38.645 24.859-39.156 3.0195-2.2578 5.0078-5.6367 5.5117-9.375 0.58203-4.3281 1.3242-8.8438 2.0742-12.82 1.7383 1.0234 3.4141 2.1406 5.0273 3.3516 4.332 7.0312 12.941 7.5781 19.453 7.9961 8.0391 0.51172 20.184 1.2852 32.164 7.7188 19.406 10.422 58.66 7.7734 88.168 3.7109l0.003906-0.003906c7.8516-1.1914 15.879-0.074219 23.105 3.2188 4.8164 2.2812 7.9961 4.9961 8.7227 7.4492v-0.003907c0.21094 0.80469 0.26562 1.6406 0.16016 2.4648-7.5156-0.87109-14.371 4.3555-15.523 11.828-1.1484 7.4766 3.8164 14.523 11.246 15.949 1.9727 0.31641 3.918 0.79688 5.8125 1.4414 0.75781 0.40625 1.5508 0.74219 2.3672 1.0039 0.30469 0.16016 0.57031 0.3125 0.76172 0.44141-0.25781 0.59766-0.58203 1.1641-0.96875 1.6914-9.5195-0.23438-18.34-0.78125-26.25-1.5977-13.23-1.375-26.598 0.32812-39.059 4.9805-9.0352 3.3164-18.266 6.0703-27.641 8.2461-3.6094 0.81641-88.539 21.414-103.66 142.09-3.3828 27.012-23.258 65.535-98.695 95.66-51.488 20.562-106.17 28.297-127.91 29.516-7.2031 0.40234-14.348 1.5234-21.328 3.3398-19.223 4.8711-36.691 15.039-50.422 29.352-11.984 12.746-21.094 27.926-26.699 44.504-37.527 110.93-57.738 159.84-64.141 168.61-12.391 16.996-15.859 72.656-10.297 165.47 0.69141 11.16 6.75 21.297 16.254 27.188 9.4805 5.5391 18.289 12.156 26.25 19.719-2.5469 0.39062-5.1055 0.65625-7.6758 0.78906-37.469 2.1758-51.145 0.019532-55.941-1.4336 0.52344-4.4883 1.3242-13.004-5.0938-20.242-1.1055-5.625 0.88672-22.531 2.918-30.582 0.49219-1.9453 1.0391-4.0586 1.6406-6.3281 6.9961-26.887 18.707-71.891 8.2578-115.88-8.6719-36.531 32.68-209.69 62.594-317.17l-0.003906 0.003907c1.0352-3.6055 0.58984-7.4727-1.2383-10.746-1.832-3.2773-4.8906-5.6836-8.5039-6.6875-3.6133-1.0078-7.4805-0.52734-10.738 1.3281-3.2578 1.8594-5.6406 4.9414-6.6133 8.5625-2.6758 9.6094-12.406 44.914-23.527 89.434-129.92 19.922-240.69-25.547-275.03-41.816 8.3242-22.734 10.469-41.66 6.5234-57.031-1.9297-7.5234-9.5938-12.055-17.117-10.125-7.5234 1.9297-12.059 9.5898-10.129 17.113 8.7891 34.379-37.438 103.48-65.797 141.6-1.8242 2.4492-3.1836 4.2852-3.9648 5.3906-8.2891 11.809-24.418 94.508-36.488 161.81-0.27344 1.5312-0.29297 3.0977-0.054688 4.6367 0.25781 1.668 6.4375 41.34 15.852 82.086 17.477 75.648 31.328 92.27 46.75 93.957 32.207 3.5156 38.121 11.336 38.98 12.867 0.77344 1.3789 0.46875 3.5586-0.90625 6.4766v-0.003906c-1.4961 3.0586-4.7578 4.8398-8.1367 4.4375l-47.258-5.0781v0.003906c-4.5742-0.47656-8.4023-3.6758-9.6797-8.0938l-27.051-92.891c-0.32422-1.1133-0.78516-2.1836-1.375-3.1836-0.15625-0.26172-15.602-26.664-28.871-56.043-24.125-53.41-17.875-64.727-17.832-64.809 11.527-15.805 13.508-60 13.145-94.281-0.078125-7.332-1.0586-72.203-11.152-91.305-5.0352-9.5195-12.801-10.324-15.895-10.215-4.8594 0.15625-11.613 2.4688-16.172 12.617-6.9883 15.547-14.23 37.801-20.191 58.055-2.7812-18.488-2.7422-40.516 5.5625-61.652z"/>
  <path d="m374.2 549.92c35.086 7.5547 70.867 11.402 106.76 11.484 2.793 0 5.5781-0.023438 8.3633-0.074219h-0.003906c7.7695-0.0625 14.012-6.4141 13.945-14.18-0.0625-7.7656-6.4102-14.008-14.18-13.945h-0.25c-36.543 0.53906-73.027-3.082-108.75-10.793-7.5938-1.6172-15.066 3.2305-16.684 10.824-1.6172 7.5977 3.2305 15.066 10.824 16.684z"/>
  <path d="m313.83 533.38c3.3516 1.125 6.8086 2.2539 10.371 3.3789v-0.003906c7.3906 2.2734 15.227-1.8477 17.547-9.2227 2.3164-7.375-1.75-15.238-9.1094-17.605-3.3789-1.0625-6.6602-2.1328-9.8438-3.2031v0.003906c-7.3516-2.457-15.305 1.5-17.781 8.8477-2.4727 7.3477 1.4648 15.309 8.8008 17.805z"/>
 </g>
</svg>
