<?xml version="1.0" encoding="UTF-8"?>
<svg width='100px' height='100px' version="1.1" viewBox="0 0 1200 1200" xmlns="http://www.w3.org/2000/svg">
 <path d="m729.83 948c-22.934 0-51.758-15.395-57.504-58.777-7.8711-59.34 5.1602-115.43 11.062-136.64-1.6914 0.046875-3.3711 0.070313-5.0625 0.070313-56.039 0-97.586-22.598-112.51-32.062-23.125 38.438-59.293 57.301-86.062 71.258-18.434 9.6133-33 17.207-31.945 25.477 2.9648 23.09 28.453 56.062 35.855 65.258 0.92578-0.046875 2.0039-0.070313 3.2148-0.070313 26.375 0 42.121 11.41 42.121 30.539 0 17.832-14.352 29.832-35.723 29.832-16.906 0-35.195-7.1992-50.16-19.738-27.793-23.27-68.473-78.758-68.941-112.75-0.14453-9.8398 2.9141-17.629 9.0977-23.09 12.395-10.969 19.766-31.105 24.012-48.047-24.445 26.832-56.027 30.613-84.562 34.008-17.281 2.0625-33.613 4.0312-46.379 10.992-30.758 16.754-40.43 69.301-42.961 88.152 10.32 0.73047 27.863 4.3555 39.07 19.691 7.9336 10.848 9.6719 22.598 4.7773 32.258-5.3984 10.645-17.965 16.738-34.453 16.738l-1.7539-0.023438c-31.402-0.76953-49.598-8.8555-61.957-50.855-11.605-39.492 0.64844-99.277 28.512-139.11 11.797-16.824 25.645-22.738 36.781-27.469 14.676-6.2539 22.043-9.3711 18.602-34.43-5.3867-39.238 9.4922-93.238 17.508-118.5-18.875 7.1758-41.207 10.945-65.508 10.945-57.371 0-114.95-20.902-136.88-49.715-34.129-44.785-28.367-95.16-17.062-142.96 10.934-46.188 69-87.266 93.805-104.81 2.7344-1.9336 5.0273-3.5508 6.7812-4.8477 3.7852-2.8203 37.602-27.324 60.797-27.324 10.906 0 16.367 5.293 19.031 9.7305 3.8516 6.4062 4.9219 12.648 3.2891 19.055-4.043 15.84-23.891 31.789-81.695 65.641-35.328 20.688-56.832 57.648-54.77 94.152 1.5977 28.188 16.934 50.102 43.176 61.738 12.781 5.6523 28.055 8.5078 45.406 8.5078 58.5 0 122.66-32.352 127.87-35.039 50.699-35.363 111.91-52.559 187.12-52.559 48.852 0 94.754 7.2461 131.63 13.066 28.355 4.4766 51.91 8.2695 66.133 6.7695 17.062-1.7891 32.438-2.6641 46.992-2.6641 30.098 0 53.832 3.7188 82.391 9.7305 6.9492 1.4648 15.383 2.207 25.117 2.207 33.949 0 72.504-9.0469 72.898-9.1445 14.809-2.4375 27.562-7.3672 39.887-12.145 12.742-4.9336 24.793-9.6016 38.281-11.566 12.602-15.469 32.965-35.039 60.781-44.773l12.816-4.5-4.7266 12.742c-0.070312 0.15625-4.2461 11.449-6.7578 23.293 8.2188-4.2461 20.184-9.0977 34.656-10.957l16.152-2.0742-10.441 12.504c-0.17969 0.22656-16.633 19.992-26.258 35.074 28.297 19.801 28.945 39.602 29.473 55.68 0.26562 7.7031 0.49219 14.34 3.9492 19.586 4.2617 6.4453 8.4492 11.004 12.156 15.012 7.6562 8.3398 14.891 16.211 8.125 31.078l-1.3203 2.9531c-7.4141 16.68-19.859 44.578-55.477 44.578-1.3672 0-2.7969-0.046875-4.2734-0.13281-6.9102-0.42188-12.457-0.88672-17.258-1.2734-6.9961-0.58984-12.059-1.0078-17.508-1.0078-10.824 0-23.578 1.8008-50.566 7.1523-40.836 8.1133-70.957 48.539-95.148 81.047-5.3164 7.1523-10.355 13.895-15.121 19.738-9.9844 12.324-20.773 20.629-28.668 26.676-4.5469 3.4688-11.398 8.7461-11.438 10.57 0 0.023438 0.23828 1.8242 5.6641 5.8789 5.4258 4.1055 10.547 6 16.129 6 7.5234 0 15.324-3.4219 24.371-7.4023 11.688-5.1133 24.926-10.945 41.52-10.945 7.1992 0 14.605 1.1523 21.996 3.3945 37.57 11.41 62.723 55.008 58.488 83.484-2.1016 14.16-11.773 22.598-25.859 22.598l-1.3555-0.023437c-31.883-1.1523-48.684-25.246-54.926-42.301-16.211 5.8789-59.184 20.27-92.531 20.27-12.145 0-22.066-1.9688-29.473-5.832-26.16-13.621-45.758-41.746-54.77-56.578-18.574 34.223-24.73 91.285-26.41 112.05 1.1641-0.070313 2.4258-0.12109 3.7422-0.12109 19.309 0 31.859 11.207 34.477 30.73 1.0195 7.7148-1.2344 15-6.5391 21.07-7.2891 8.332-19.613 13.277-32.992 13.277zm-28.68-209.23-3.0117 9.0234c-0.22656 0.68359-22.547 68.977-13.152 139.75 4.6562 35.16 26.219 47.699 44.844 47.699 9.5898 0 18.539-3.4219 23.352-8.9297 2.8555-3.2539 4.0312-6.9375 3.4922-10.992-1.7656-13.223-8.9023-19.645-21.816-19.645-5.0156 0-8.9141 1.0781-8.9648 1.0781l-8.4961 2.3398 0.40625-8.8086c0.20312-3.793 4.9219-93.422 34.766-135.52l6.0977-8.6055 4.7891 9.3945c0.22656 0.44531 22.68 43.969 54.758 60.707 5.5547 2.9023 13.488 4.3789 23.555 4.3789 38.641 0 93.77-21.613 94.309-21.816l6.9375-2.7461 1.6562 7.2617c0.33594 1.5234 9.2383 38.016 45.023 39.324h0.88672c7.8359 0 12.047-3.707 13.246-11.699 3.0352-20.438-16.883-59.461-49.598-69.395-6.2539-1.9219-12.238-2.832-18.266-2.832-13.895 0-25.344 5.0156-36.383 9.8633-9.9258 4.3555-19.297 8.4844-29.508 8.4844-8.3633 0-16.164-2.7852-23.82-8.5547-4.9688-3.7578-10.703-8.9531-10.727-16.031-0.046876-8.1367 6.8633-13.43 16.414-20.762 7.7891-6 17.496-13.43 26.555-24.59 4.5703-5.6289 9.5156-12.277 14.762-19.332 24.168-32.438 57.238-76.883 102.91-85.934 42.434-8.4258 50.555-8.1133 71.629-6.3477 4.7031 0.39453 10.164 0.83984 16.969 1.2617 29.891 1.8008 40.066-20.652 47.305-36.91l1.3555-3.0352c3.1797-6.9609 1.8125-8.7461-5.9023-17.16-3.8047-4.1641-8.5547-9.3359-13.367-16.621-5.4727-8.2578-5.7734-17.363-6.0703-26.184-0.51562-15.457-1.043-31.414-28.754-48.758l-5.1719-3.2539 2.9883-5.3047c4.7539-8.4102 12.574-19.094 19.117-27.602-14.207 4.8477-23.148 11.723-23.258 11.809l-10.945 8.543 0.625-13.859c0.39453-8.5781 2.7461-18.562 4.9688-26.41-19.812 10.055-34.633 25.32-44.113 37.332l-1.6445 2.0742-2.6406 0.3125c-12.949 1.5234-25.02 6.1914-37.801 11.148-12.938 5.0039-26.316 10.188-42 12.742-1.1875 0.30078-39.926 9.3828-75.395 9.3945-10.598 0-19.945-0.83984-27.742-2.4844-27.758-5.832-50.785-9.457-79.766-9.457-14.113 0-29.051 0.85156-45.66 2.6055-15.012 1.5859-39.938-2.1953-69.457-6.8633-36.445-5.7617-81.781-12.926-129.64-12.926-72.66 0-131.59 16.523-180.14 50.508l-0.68359 0.42188c-2.8438 1.5-70.332 36.684-134.17 36.684-19.141 0-36.156-3.2383-50.566-9.6133-30.406-13.477-48.898-39.961-50.746-72.684-2.3281-41.242 21.648-82.801 61.066-105.9 44.281-25.945 72.422-44.664 75.77-57.781 0.76953-3.0117 0.19141-5.8906-1.8711-9.3242-0.91016-1.5117-2.7344-3.5273-8.0898-3.5273-13.5 0-37.043 12.852-53.195 24.793-1.8008 1.332-4.1758 3-6.9961 5.0039-23.617 16.715-78.949 55.848-88.754 97.344-12.238 51.684-14.398 93.961 14.785 132.27 19.414 25.477 73.895 44.688 126.74 44.688 28.414 0 53.746-5.3984 73.262-15.613l14.641-7.6562-5.6875 15.516c-0.28906 0.76953-28.223 77.746-21.562 126.34 4.7773 34.715-10.297 41.137-26.258 47.93-10.129 4.3086-21.625 9.1914-31.32 23.039-25.441 36.324-37.176 92.629-26.723 128.16 10.176 34.621 21.949 41.016 50.016 41.723l1.4414 0.023438c11.508 0 19.922-3.5625 23.062-9.7695 2.6406-5.207 1.2969-12.098-3.6953-18.938-9.6484-13.199-26.52-14.629-33.324-14.629-1.2109 0-1.957 0.046875-2.0625 0.070312l-7.4297 0.5625 0.55078-7.4023c0.25391-3.3242 6.7422-81.395 50.34-105.19 14.941-8.1367 32.449-10.223 50.988-12.422 34.285-4.1055 69.742-8.3398 91.945-52.738l15.086-30.191-3.0117 33.613c-0.22656 2.4844-5.7734 61.031-33.48 85.57-3.3125 2.9297-4.8711 7.3086-4.7891 13.355 0.39453 28.895 38.734 81.684 64.379 103.15 12.516 10.477 28.211 16.738 41.965 16.738 5.3867 0 22.957-1.2227 22.957-17.062 0-14.699-15.973-17.785-29.352-17.785-3.1445 0-5.2578 0.21484-5.3984 0.23828l-3.3477 0.34766-2.1953-2.5781c-1.5-1.7539-36.863-43.691-40.789-74.316-2.1953-17.09 15.852-26.508 38.711-38.41 26.676-13.895 63.215-32.953 84.191-72.098l3.5039-6.5156 5.9414 4.4297c0.45703 0.32422 45.926 33.539 110.84 33.539 4.4297 0 8.9023-0.14453 13.32-0.44531z"/>
</svg>
