<svg height='100px' width='100px' version="1.1" viewBox="21 17 53 76" xmlns="http://www.w3.org/2000/svg">
    <g>
        <path d="m56.422 75h-5c0-8.75 6.6211-14.879 14.762-14.879 5.2227 0 9.9531 2.6133 12.648 7.0938l-4.2812 2.5508c-1.7852-2.9648-4.9141-4.6289-8.3672-4.6289-5.3828 0-9.7617 4.8633-9.7617 9.8633z"/>
        <path d="m54.504 81.215-8.7695-8.7734 3.5312-3.5352 5.2383 5.2344 5.2383-5.2344 3.5352 3.5352z"/>
        <path d="m65.016 92.059c-5.1445 0-9.9922-2.8398-12.648-7.2539l4.2812-2.6328c1.7852 2.9609 4.9141 4.9102 8.3672 4.9102 5.3828 0 9.7617-4.582 9.7617-9.582h5c-0.003906 7.5-6.625 14.559-14.762 14.559z"/>
        <path d="m81.93 82.949-5.2383-5.2383-5.2383 5.2383-3.5352-3.5352 8.7734-8.7734 8.7734 8.7734z"/>
        <path d="m42.5 82.5h-13.75c-2.7578 0-5-2.2422-5-5v-53.75c0-2.7578 2.2422-5 5-5h31.035l11.465 11.465v24.785h-5v-22.715l-8.5352-8.5352h-28.965v53.75h13.75z"/>
        <path d="m68.75 35h-13.75v-13.75h5v8.75h8.75z"/>
    </g>
</svg>
