<?xml version="1.0" encoding="UTF-8"?>
<svg height='100px' width='100px' version="1.1" viewBox="100 100 1000 1000" xmlns="http://www.w3.org/2000/svg">
 <g>
  <path d="m492.67 215.31c153 0 277.08 124.09 277.08 277.08 0 153.05-124.09 277.08-277.16 277.01-152.97 0-276.95-124.04-277.01-277.01 0-74.867 30.293-146.6 83.961-198.76 33.332-32.359 74.238-55.84 118.97-68.266h0.054688c24.117-6.6523 49.039-10.051 74.105-10.051zm0-69.094c-34.719 0.066406-69.16 5.2812-102.29 15.559-52.066 16.039-99.641 44.227-138.81 82.227-67.148 65.133-105 154.72-105 248.33-0.066406 91.801 36.441 179.85 101.32 244.79 64.922 64.945 152.97 101.4 244.79 101.4 65.281-0.21484 129.17-18.828 184.32-53.762l10.199 11.535c27.988 33.879 77.078 31.586 108.81-0.14844 31.734-31.801 34.172-80.906 0.28125-108.81l-11.188-10.012c34.988-55.266 53.602-119.45 53.668-184.92 0-91.801-36.465-179.85-101.39-244.8-64.895-64.848-152.89-101.38-244.71-101.38z"/>
  <path d="m778.93 849.48 153.33 180.2c32.426 37.012 73.398 25.281 97.988 0.70703 24.52-24.52 36.32-65.492-0.69141-97.922l-180.21-153.4c-7.5742 13.961-17.641 27.625-30.199 40.215-12.574 12.625-26.27 22.625-40.215 30.199z"/>
  <path d="m492.67 355.72c-125.07 0-197.56 102.51-197.56 136.68 0 34.238 72.492 136.73 197.56 136.73 125.08 0 197.59-102.49 197.59-136.73 0-34.172-72.492-136.68-197.59-136.68zm0 43.133c24.801 0 48.625 9.8672 66.188 27.359 17.492 17.559 27.359 41.387 27.359 66.188 0 51.668-41.867 93.547-93.547 93.547-24.785 0-48.602-9.8672-66.172-27.375-17.508-17.559-27.359-41.387-27.359-66.172 0-24.801 9.8516-48.625 27.359-66.188 17.57-17.492 41.398-27.359 66.172-27.359z"/>
  <path d="m556.43 492.4c0 30.68-21.719 57.16-51.945 62.988-30.133 5.8281-60.199-10.559-71.668-39.039-11.453-28.535-1.1055-61.105 24.652-77.828 25.828-16.68 59.852-12.641 81.105 9.5078l-46.238 44.375z"/>
 </g>
</svg>
