<svg height='100px' width='100px'  fill="#000000" xmlns:rdf="http://www.w3.org/1999/02/22-rdf-syntax-ns#" xmlns="http://www.w3.org/2000/svg" xmlns:cc="http://creativecommons.org/ns#" xmlns:dc="http://purl.org/dc/elements/1.1/" version="1.1" viewBox="0 0 100 100" x="0px" y="0px"><defs><marker id="a" refY="0.0" refX="0.0" orient="auto"><path d="M0,0l5-5-17.5,5,17.5,5-5-5z" fill-rule="evenodd" transform="scale(0.2) rotate(180) translate(6,0)" stroke="#000000" stroke-width="1.0pt"></path></marker></defs><g style="" font-weight="normal" transform="translate(-1.9023592,0.11737089)" font-size="22.65134621px" font-stretch="normal" line-height="125%" font-variant="normal" font-family="Geometr415 Lt BT" font-style="normal" fill="#000000"><path d="m14.49,6.3993c-0.059,0.0000149-0.14379-0.00367-0.25438-0.01106-0.11061-0.00736-0.19172-0.011045-0.24332-0.01106-0.8922,0.000015-1.4968,0.17329-1.8139,0.51983-0.31707,0.34657-0.4756,1.0729-0.47559,2.1789v2.6766c-0.000007,1.224-0.16038,2.0922-0.48112,2.6047-0.32075,0.51246-0.89035,0.88298-1.7088,1.1116,0.81845,0.22121,1.3881,0.58804,1.7088,1.1005,0.32074,0.51246,0.48111,1.3807,0.48112,2.6047v2.6766c-0.000007,1.0986,0.16037,1.8194,0.48112,2.1623,0.32074,0.34286,0.94564,0.5143,1.8747,0.5143h0.43135v1.3825h-0.38711c-0.72998-0.000004-1.318-0.04425-1.7641-0.13272-0.4461-0.08849-0.82399-0.23596-1.1337-0.44241-0.40555-0.26545-0.69127-0.63412-0.85717-1.106-0.16591-0.47191-0.24886-1.2572-0.24886-2.3558v-2.6987c0-1.121-0.203-1.906-0.6085-2.356-0.4056-0.45-1.1024-0.675-2.0904-0.675-0.051617,0.000005-0.13272,0.0037-0.24332,0.01106-0.1106,0.0074-0.1954,0.01107-0.25439,0.01106v-1.4046c0.058986,0.000006,0.14378,0.0037,0.25439,0.01106,0.1106,0.0074,0.19171,0.01107,0.24332,0.01106,0.98804,0.000007,1.6848-0.22673,2.0904-0.6802,0.40554-0.45346,0.60831-1.2443,0.60831-2.3724v-2.6987c-0.000005-1.1281,0.08295-1.9226,0.24886-2.3835,0.1659-0.46083,0.45162-0.82028,0.85717-1.0784,0.30968-0.20644,0.68573-0.35391,1.1281-0.44241,0.4424-0.088466,1.0323-0.13271,1.7696-0.13272h0.38711z"></path><path d="m18.339,20.402c-0.000002-0.33181,0.11797-0.61568,0.35393-0.85164,0.23595-0.23595,0.51983-0.35392,0.85164-0.35393,0.33918,0.000002,0.62674,0.11613,0.8627,0.3484,0.23595,0.23227,0.35392,0.51799,0.35393,0.85717-0.000004,0.32443-0.11982,0.60647-0.35946,0.84611s-0.52536,0.35946-0.85717,0.35946c-0.31706-0.000001-0.59726-0.12166-0.84058-0.36499-0.24333-0.24332-0.36499-0.52352-0.36499-0.84058z"></path><path d="m24.798,20.402c-0.000002-0.33181,0.11797-0.61568,0.35393-0.85164,0.23595-0.23595,0.51983-0.35392,0.85164-0.35393,0.33918,0.000002,0.62674,0.11613,0.8627,0.3484,0.23595,0.23227,0.35392,0.51799,0.35393,0.85717-0.000005,0.32443-0.11982,0.60647-0.35946,0.84611s-0.52536,0.35946-0.85717,0.35946c-0.31706-0.000001-0.59726-0.12166-0.84058-0.36499-0.24333-0.24332-0.36499-0.52352-0.36499-0.84058z"></path><path d="m31.257,20.402c-0.000002-0.33181,0.11797-0.61568,0.35393-0.85164,0.23595-0.23595,0.51983-0.35392,0.85164-0.35393,0.33918,0.000002,0.62674,0.11613,0.8627,0.3484,0.23595,0.23227,0.35392,0.51799,0.35393,0.85717-0.000005,0.32443-0.11982,0.60647-0.35946,0.84611s-0.52536,0.35946-0.85717,0.35946c-0.31706-0.000001-0.59726-0.12166-0.84058-0.36499-0.24333-0.24332-0.36499-0.52352-0.36499-0.84058z"></path><path d="m41.93,9.0316,0,2.6987c-0.000006,1.1208,0.20461,1.9097,0.61384,2.3669,0.40922,0.45716,1.1115,0.68574,2.107,0.68573,0.0516,0.000007,0.13271-0.0037,0.24332-0.01106,0.11059-0.0074,0.19539-0.01105,0.25438-0.01106v1.4046c-0.059,0.000005-0.14379-0.0037-0.25438-0.01106-0.11061-0.0074-0.19172-0.01105-0.24332-0.01106-0.99543,0.000005-1.6978,0.22858-2.107,0.68573-0.40924,0.45716-0.61385,1.2461-0.61384,2.3669v2.6766c-0.000006,1.1281-0.08112,1.9263-0.24332,2.3945-0.16222,0.46821-0.44242,0.83504-0.84058,1.1005-0.28757,0.19171-0.64703,0.32996-1.0784,0.41476-0.43135,0.08479-1.0231,0.12719-1.7752,0.12719h-0.45347v-1.3825c0.05899-0.000003,0.14378,0.0037,0.25438,0.01106,0.1106,0.0074,0.19171,0.01106,0.24332,0.01106,0.88482-0.000003,1.4876-0.17512,1.8083-0.52536,0.32074-0.35024,0.48112-1.0821,0.48112-2.1955v-2.6545c-0.000005-1.224,0.16037-2.0922,0.48112-2.6047,0.32074-0.51245,0.89034-0.87928,1.7088-1.1005-0.81846-0.22857-1.3881-0.59909-1.7088-1.1116-0.32075-0.51245-0.48112-1.3807-0.48112-2.6047v-2.6766c0-1.0992-0.162-1.8236-0.486-2.1739-0.325-0.3502-0.948-0.5253-1.869-0.5253h-0.43135v-1.3825h0.38711c0.73734,0.0000163,1.3309,0.0461,1.7807,0.13825,0.44978,0.092185,0.82951,0.23781,1.1392,0.43688,0.39816,0.25809,0.67835,0.61939,0.84058,1.0839,0.16221,0.46454,0.24332,1.2572,0.24332,2.3779z"></path></g><rect style="enable-background:accumulate;color:#000000;" stroke-dasharray="none" stroke-dashoffset="0" height="22.177" width="22.177" stroke="#000000" stroke-linecap="butt" stroke-miterlimit="4" y="72.006" x="27.941" stroke-width="2" fill="none"></rect><rect style="enable-background:accumulate;color:#000000;" stroke-dasharray="none" stroke-dashoffset="0" height="22.177" width="22.177" stroke="#000000" stroke-linecap="butt" stroke-miterlimit="4" y="72.006" x="49.882" stroke-width="2" fill="none"></rect><rect style="enable-background:accumulate;color:#000000;" stroke-dasharray="none" stroke-dashoffset="0" height="22.177" width="22.177" stroke="#000000" stroke-linecap="butt" stroke-miterlimit="4" y="72.006" x="71.823" stroke-width="2" fill="none"></rect><rect style="enable-background:accumulate;color:#000000;" stroke-dasharray="none" stroke-dashoffset="0" transform="matrix(0.91910075,-0.39402259,0.39402259,0.91910075,0,0)" height="22.177" width="22.177" stroke="#000000" stroke-linecap="butt" stroke-miterlimit="4" y="51.094" x="-3.54" stroke-width="2" fill="none"></rect><rect style="enable-background:accumulate;color:#000000;" stroke-dasharray="none" stroke-dashoffset="0" height="22.177" width="22.177" stroke="#000000" stroke-linecap="butt" stroke-miterlimit="4" y="28" x="71.823" stroke-width="2" fill="none"></rect><rect style="enable-background:accumulate;color:#000000;" stroke-dasharray="none" stroke-dashoffset="0" height="22.177" width="22.177" stroke="#000000" stroke-linecap="butt" stroke-miterlimit="4" y="50" x="49.941" stroke-width="2" fill="none"></rect><rect style="enable-background:accumulate;color:#000000;" stroke-dasharray="none" stroke-dashoffset="0" height="22.177" width="22.177" stroke="#000000" stroke-linecap="butt" stroke-miterlimit="4" y="50" x="71.882" stroke-width="2" fill="none"></rect><path stroke-linejoin="miter" style="" d="m20.499,26.302c0.56398,4.8143,3.6785,10.662,5.7266,13.279" stroke="#000000" stroke-linecap="butt" stroke-miterlimit="4" stroke-dasharray="none" stroke-width="1.9" fill="none" marker-end="url(#a)"></path></svg>