<svg height='100px' width='100px' fill="#000000" xmlns="http://www.w3.org/2000/svg"
     xmlns:sketch="http://www.bohemiancoding.com/sketch/ns" viewBox="0 0 30 30" version="1.1" x="0px" y="0px"><title>email_034-attachment-send-file-code-css</title><desc>Created with Sketch.</desc><g stroke="none" stroke-width="1" fill="none" fill-rule="evenodd" sketch:type="MSPage"><g sketch:type="MSArtboardGroup" transform="translate(-450.000000, -135.000000)" fill="#000000"><g sketch:type="MSLayerGroup" transform="translate(454.000000, 136.000000)"><circle sketch:type="MSShapeGroup" cx="9.5" cy="12.5" r="0.5"></circle><circle sketch:type="MSShapeGroup" cx="11" cy="12.5" r="0.5"></circle><circle sketch:type="MSShapeGroup" cx="12.5" cy="12.5" r="0.5"></circle><path d="M7.65373513,7.81428773 C7.27366405,8.05183578 7,8.55204566 7,9.00783157 L7,9.78967292 L6.14674808,10.6465114 C5.95157226,10.8417587 5.95157226,11.1582413 6.14674808,11.3534886 L7,12.2149657 L7,12.9921684 C7,13.4442332 7.27361196,13.9481317 7.65373513,14.1857123 L8.03498542,14.4239973 C8.26915268,14.5703541 8.57762836,14.4991696 8.72398513,14.2650024 C8.8703419,14.0308351 8.79915743,13.7223594 8.56499017,13.5760027 L8.18373988,13.3377176 C8.09881004,13.2846356 8,13.1026618 8,12.9921684 L8,12 C8,11.8674235 7.94734672,11.7402743 7.85361813,11.6465114 L7.2101462,10.9971963 L7.85361813,10.3534886 C7.94734672,10.2597257 8,10.1325765 8,10 L8,9.00783157 C8,8.89478246 8.09782126,8.71598236 8.18373988,8.6622824 L8.56499017,8.42399733 C8.79915743,8.27764056 8.8703419,7.96916488 8.72398513,7.73499762 C8.57762836,7.50083036 8.26915268,7.42964589 8.03498542,7.57600267 L7.65373513,7.81428773 Z" sketch:type="MSShapeGroup"></path><path d="M14.8533811,7.81428773 C14.47331,8.05183578 14.199646,8.55204566 14.199646,9.00783157 L14.199646,9.78967292 L13.3463941,10.6465114 C13.1512183,10.8417587 13.1512183,11.1582413 13.3463941,11.3534886 L14.199646,12.2149657 L14.199646,12.9921684 C14.199646,13.4442332 14.473258,13.9481317 14.8533811,14.1857123 L15.2346314,14.4239973 C15.4687987,14.5703541 15.7772744,14.4991696 15.9236311,14.2650024 C16.0699879,14.0308351 15.9988034,13.7223594 15.7646362,13.5760027 L15.3833859,13.3377176 C15.298456,13.2846356 15.199646,13.1026618 15.199646,12.9921684 L15.199646,12 C15.199646,11.8674235 15.1469927,11.7402743 15.0532641,11.6465114 L14.4097922,10.9971963 L15.0532641,10.3534886 C15.1469927,10.2597257 15.199646,10.1325765 15.199646,10 L15.199646,9.00783157 C15.199646,8.89478246 15.2974673,8.71598236 15.3833859,8.6622824 L15.7646362,8.42399733 C15.9988034,8.27764056 16.0699879,7.96916488 15.9236311,7.73499762 C15.7772744,7.50083036 15.4687987,7.42964589 15.2346314,7.57600267 L14.8533811,7.81428773 Z" sketch:type="MSShapeGroup" transform="translate(14.599856, 11.000000) scale(-1, 1) translate(-14.599856, -11.000000) "></path><path d="M20,5.19999981 C20,5.06739155 19.9473216,4.94021457 19.8535534,4.84644638 L15.1535526,0.146446574 C15.0597844,0.0526784063 14.9326075,0 14.7999992,0 L2.5,0 C2.22385763,0 2,0.223857625 2,0.5 L2,17 L3,17 L3,1 L14,1 L14,5.5 C14,5.77614237 14.2238576,6 14.5,6 L19,6 L19,17 L20,17 L20,5.19999981 Z" sketch:type="MSShapeGroup"></path><path d="M19,10.9499969 L21.8000803,13.0962276 C21.8615083,13.1423806 21.9119593,13.2023546 21.9468163,13.2715316 C21.9839233,13.3482676 22.0007973,13.4248006 22.0000253,13.5016306 L22.0000253,27.2537105 L15.5123087,20.4839192 L21.0000253,14.9962456 L21.0000253,13.7428686 L19,12.2104429 L19,10.9499969 Z M3,10.9500261 L0.199971338,13.0962276 C0.138543338,13.1423806 0.0880923383,13.2023546 0.0497963383,13.2785036 C0.0161283383,13.3482676 -0.000746661651,13.4248006 2.53383489e-05,13.5016306 L2.53383489e-05,27.2536584 L6.48769598,20.4839151 L1.00002534,14.9962006 L1.00002534,13.7428686 L3,12.210474 L3,10.9500261 Z M21.3265361,27.9962236 L0.673464547,27.9962236 L7.38179788,20.9962236 L14.6182028,20.9962236 L21.3265361,27.9962236 Z" sketch:type="MSShapeGroup"></path></g></g></g></svg>
