<svg xmlns="http://www.w3.org/2000/svg" version="1.1" width="100" height="80" viewBox="0 0 100 100">
    <path style="baseline-shift:baseline;block-progression:tb;color:#000000;direction:ltr;text-indent:0;enable-background:accumulate;text-transform:none;"
          fill="#000"
          d="M29.125,14.875c-2.477,0-4.482,0.141-5.969,0.437-1.486,0.298-2.741,0.808-3.781,1.5-1.362,0.868-2.318,2.076-2.875,3.626-0.557,1.548-0.844,4.208-0.844,8v9.062c0,3.79-0.669,6.445-2.031,7.969-1.362,1.523-3.7121,2.281-7.0312,2.281-0.1736,0-0.441-0.006-0.8126-0.031-0.3714-0.025-0.6768-0.031-0.875-0.031v4.718c0.1982,0,0.5036-0.006,0.875-0.031,0.3716-0.025,0.639-0.061,0.8126-0.063,3.3191,0.002,5.6692,0.771,7.0312,2.282s2.031,4.141,2.031,7.906v9.062c0,3.692,0.287,6.353,0.844,7.938s1.513,2.796,2.875,3.688c1.04,0.692,2.315,1.202,3.813,1.5,1.498,0.296,3.484,0.437,5.937,0.437h1.281v-4.625h-1.406c-3.122,0-5.266-0.598-6.344-1.75-1.077-1.152-1.625-3.559-1.625-7.25v-9c0-4.112-0.515-7.028-1.593-8.75s-3-2.944-5.75-3.688c2.75-0.766,4.672-2.028,5.75-3.75,1.078-1.72,1.593-4.636,1.593-8.75v-8.968c0-3.716,0.56-6.18,1.625-7.344s3.097-1.75,6.094-1.75c0.173,0,0.472,0.038,0.844,0.062,0.371,0.026,0.614,0.032,0.812,0.032v-4.719h-1.281zm18.656,0v27.406c-3.498,0.973-6.062,4.207-6.062,8s2.565,7.027,6.062,8v26.844h4.438v-26.844c3.497-0.973,6.062-4.207,6.062-8s-2.564-7.027-6.062-8v-27.406h-4.438zm21.719,0v4.625h1.5c3.096,0,5.16,0.605,6.25,1.781,1.09,1.177,1.625,3.622,1.625,7.313v8.968c0,4.114,0.547,7.03,1.625,8.75,1.078,1.722,3,2.984,5.75,3.75-2.75,0.744-4.672,1.966-5.75,3.688s-1.625,4.638-1.625,8.75v8.906c0,3.741-0.547,6.23-1.625,7.406-1.078,1.178-3.09,1.75-6.062,1.75-0.174,0-0.441-0.006-0.813-0.031s-0.677-0.031-0.875-0.031v4.625h1.531c2.527,0,4.52-0.121,5.969-0.406s2.659-0.761,3.625-1.407c1.338-0.89,2.267-2.114,2.813-3.687,0.544-1.573,0.812-4.271,0.812-8.063v-9c0-3.764,0.719-6.401,2.094-7.937,1.374-1.536,3.718-2.311,7.062-2.313,0.174,0.002,0.472,0.038,0.844,0.063,0.371,0.025,0.645,0.031,0.844,0.031v-4.718c-0.199,0-0.473,0.006-0.844,0.031-0.372,0.025-0.67,0.031-0.844,0.031-3.344,0-5.688-0.778-7.062-2.312-1.375-1.536-2.094-4.173-2.094-7.938v-9.062c0-3.766-0.268-6.44-0.812-8-0.546-1.562-1.475-2.758-2.813-3.626-1.04-0.668-2.333-1.159-3.844-1.468-1.511-0.31-3.46-0.469-5.937-0.469h-1.344zm-19.5,31.563c2.164,0,3.875,1.679,3.875,3.843s-1.711,3.875-3.875,3.875-3.875-1.711-3.875-3.875,1.711-3.843,3.875-3.843z"></path>
</svg>