<svg height='100px' width='100px'  fill="#000000" xmlns:rdf="http://www.w3.org/1999/02/22-rdf-syntax-ns#" xmlns="http://www.w3.org/2000/svg" xmlns:cc="http://creativecommons.org/ns#" xmlns:dc="http://purl.org/dc/elements/1.1/" viewBox="0 0 100 100" version="1.1" x="0px" y="0px"><path style="color-rendering:auto;text-decoration-color:#000000;color:#000000;isolation:auto;mix-blend-mode:normal;shape-rendering:auto;solid-color:#000000;block-progression:tb;text-decoration-line:none;text-decoration-style:solid;image-rendering:auto;white-space:normal;text-indent:0;text-transform:none;" d="m49.393 5.0566c-4.119 0-7.5 3.3816-7.5 7.5004 0 3.425 2.343 6.332 5.5 7.216v10.53c-3.157 0.884-5.5 3.791-5.5 7.217 0 3.425 2.343 6.332 5.5 7.216v10.528c-3.157 0.884-5.5 3.791-5.5 7.216 0 3.426 2.343 6.333 5.5 7.217v10.53c-3.157 0.884-5.5 3.791-5.5 7.216 0 4.119 3.381 7.5 7.5 7.5 4.118 0 7.5-3.381 7.5-7.5 0-3.425-2.344-6.332-5.5-7.216v-10.53c3.156-0.884 5.5-3.791 5.5-7.217 0-3.425-2.344-6.332-5.5-7.216v-10.528c3.156-0.884 5.5-3.791 5.5-7.216 0-3.426-2.344-6.333-5.5-7.217v-10.53c3.156-0.884 5.5-3.791 5.5-7.216 0-4.1188-3.382-7.5004-7.5-7.5004zm0 4c1.956 0 3.5 1.5434 3.5 3.5004 0 1.956-1.544 3.5-3.5 3.5-1.957 0-3.5-1.544-3.5-3.5 0-1.957 1.543-3.5004 3.5-3.5004zm10.078 1.0334l-0.012 4c5.957 0.014 10.573 1.235 13.723 3.203s4.9 4.591 5.404 7.932c0.836 5.54-2.178 13.443-10.34 22.195l0.248-3.69-9.908 15.313 16.504-7.768-4.674-0.314c9.283-9.589 13.274-18.735 12.127-26.334-0.672-4.452-3.247-8.232-7.24-10.727-3.993-2.494-9.34-3.795-15.832-3.81zm-39.205 21.053c-2.199 0-4 1.801-4 4v9c0 2.198 1.801 4 4 4h9c2.198 0 4-1.802 4-4v-2.397l7.568-4.603h-7.568v-2c0-2.199-1.802-4-4-4h-9zm0 2h9c1.125 0 2 0.874 2 2v4h2.429l-2.429 1.478v3.522c0 1.125-0.875 2-2 2h-9c-1.126 0-2-0.875-2-2v-9c0-1.126 0.874-2 2-2zm29.127 0.877c1.956 0 3.5 1.543 3.5 3.5 0 1.956-1.544 3.5-3.5 3.5-1.957 0-3.5-1.544-3.5-3.5 0-1.957 1.543-3.5 3.5-3.5zm-28.42 0.416l-1.414 1.414 3.793 3.793-3.793 3.793 1.414 1.414 3.793-3.793 3.793 3.793 1.414-1.414-3.793-3.793 3.793-3.793-1.414-1.414-3.793 3.793-3.793-3.793zm28.42 24.544c1.956 0 3.5 1.544 3.5 3.5 0 1.957-1.544 3.5-3.5 3.5-1.957 0-3.5-1.543-3.5-3.5 0-1.956 1.543-3.5 3.5-3.5zm0 24.963c1.956 0 3.5 1.544 3.5 3.5 0 1.957-1.544 3.5-3.5 3.5-1.957 0-3.5-1.543-3.5-3.5 0-1.956 1.543-3.5 3.5-3.5z"></path></svg>