<svg height='100px' width='100px'  fill="#000000" xmlns="http://www.w3.org/2000/svg" viewBox="0 0 100 100" x="0px" y="0px"><title>Straight_Line</title><path d="M20,32.5H10a2.5,2.5,0,0,1,0-5H20a2.5,2.5,0,0,1,0,5Z"></path><path d="M79.999,32.5a2.5,2.5,0,0,1-.0346-5l10-.1426h.0366a2.5,2.5,0,0,1,.0346,5l-10,.1426Z"></path><path d="M70,42.5A2.5,2.5,0,0,1,67.5,40V20a2.5,2.5,0,0,1,5,0V40A2.5,2.5,0,0,1,70,42.5Z"></path><path d="M80,52.5H60a2.5,2.5,0,0,1,0-5H80a2.5,2.5,0,0,1,0,5Z"></path><path d="M40,52.5H20a2.5,2.5,0,0,1,0-5H40a2.5,2.5,0,0,1,0,5Z"></path><path d="M30,42.5A2.5,2.5,0,0,1,27.5,40V20a2.5,2.5,0,0,1,5,0V40A2.5,2.5,0,0,1,30,42.5Z"></path><path d="M70,82.5A2.5,2.5,0,0,1,67.5,80V60a2.5,2.5,0,0,1,5,0V80A2.5,2.5,0,0,1,70,82.5Z"></path><path d="M30,82.5A2.5,2.5,0,0,1,27.5,80V60a2.5,2.5,0,0,1,5,0V80A2.5,2.5,0,0,1,30,82.5Z"></path><path d="M50,62.5A2.5,2.5,0,0,1,47.5,60V40a2.5,2.5,0,0,1,5,0V60A2.5,2.5,0,0,1,50,62.5Z"></path><path d="M60,32.5H40a2.5,2.5,0,0,1,0-5H60a2.5,2.5,0,0,1,0,5Z"></path><path d="M60,72.5H40a2.5,2.5,0,0,1,0-5H60a2.5,2.5,0,0,1,0,5Z"></path><path d="M50,92.5A2.5,2.5,0,0,1,47.5,90V80a2.5,2.5,0,0,1,5,0V90A2.5,2.5,0,0,1,50,92.5Z"></path><path d="M80,92.5H60a2.5,2.5,0,0,1,0-5H80a2.5,2.5,0,0,1,0,5Z"></path><path d="M40,92.5H20a2.5,2.5,0,0,1,0-5H40a2.5,2.5,0,0,1,0,5Z"></path><path d="M20,72.5H10a2.5,2.5,0,0,1,0-5H20a2.5,2.5,0,0,1,0,5Z"></path><path d="M90,72.5H80a2.5,2.5,0,0,1,0-5H90a2.5,2.5,0,0,1,0,5Z"></path><path d="M90,62.5A2.5,2.5,0,0,1,87.5,60V40a2.5,2.5,0,0,1,5,0V60A2.5,2.5,0,0,1,90,62.5Z"></path><path d="M10,62.5A2.5,2.5,0,0,1,7.5,60V40a2.5,2.5,0,0,1,5,0V60A2.5,2.5,0,0,1,10,62.5Z"></path><path d="M50,22.5A2.5,2.5,0,0,1,47.5,20V10a2.5,2.5,0,0,1,5,0V20A2.5,2.5,0,0,1,50,22.5Z"></path><path d="M40,12.5H20a2.5,2.5,0,0,1,0-5H40a2.5,2.5,0,0,1,0,5Z"></path><path d="M80,12.5H60a2.5,2.5,0,0,1,0-5H80a2.5,2.5,0,0,1,0,5Z"></path><path d="M90,22.5A2.5,2.5,0,0,1,87.5,20V10a2.5,2.5,0,0,1,5,0V20A2.5,2.5,0,0,1,90,22.5Z"></path><path d="M10,22.5A2.5,2.5,0,0,1,7.5,20V10a2.5,2.5,0,0,1,5,0V20A2.5,2.5,0,0,1,10,22.5Z"></path><path d="M90,92.5A2.5,2.5,0,0,1,87.5,90V80a2.5,2.5,0,0,1,5,0V90A2.5,2.5,0,0,1,90,92.5Z"></path><path d="M10,92.5A2.5,2.5,0,0,1,7.5,90V80a2.5,2.5,0,0,1,5,0V90A2.5,2.5,0,0,1,10,92.5Z"></path></svg>