
<svg height='100px' width='100px'  fill="#000000" xmlns:x="http://ns.adobe.com/Extensibility/1.0/" xmlns:i="http://ns.adobe.com/AdobeIllustrator/10.0/" xmlns:graph="http://ns.adobe.com/Graphs/1.0/" xmlns="http://www.w3.org/2000/svg" xmlns:xlink="http://www.w3.org/1999/xlink" version="1.1" x="0px" y="0px" viewBox="0 0 100 100" style="enable-background:new 0 0 100 100;" xml:space="preserve"><g><g i:extraneous="self"><g><path d="M5273.1,2400.1v-2c0-2.8-5-4-9.7-4s-9.7,1.3-9.7,4v2c0,1.8,0.7,3.6,2,4.9l5,4.9c0.3,0.3,0.4,0.6,0.4,1v6.4     c0,0.4,0.2,0.7,0.6,0.8l2.9,0.9c0.5,0.1,1-0.2,1-0.8v-7.2c0-0.4,0.2-0.7,0.4-1l5.1-5C5272.4,2403.7,5273.1,2401.9,5273.1,2400.1z      M5263.4,2400c-4.8,0-7.4-1.3-7.5-1.8v0c0.1-0.5,2.7-1.8,7.5-1.8c4.8,0,7.3,1.3,7.5,1.8C5270.7,2398.7,5268.2,2400,5263.4,2400z"></path><path d="M5268.4,2410.3c-0.6,0-1,0.4-1,1c0,0.6,0.4,1,1,1h4.3c0.6,0,1-0.4,1-1c0-0.6-0.4-1-1-1H5268.4z"></path><path d="M5272.7,2413.7h-4.3c-0.6,0-1,0.4-1,1c0,0.6,0.4,1,1,1h4.3c0.6,0,1-0.4,1-1C5273.7,2414.1,5273.3,2413.7,5272.7,2413.7z"></path><path d="M5272.7,2417h-4.3c-0.6,0-1,0.4-1,1c0,0.6,0.4,1,1,1h4.3c0.6,0,1-0.4,1-1C5273.7,2417.5,5273.3,2417,5272.7,2417z"></path></g><g><path d="M34.3,17.8c-2.2,0-4,1.8-4,4s1.8,4,4,4c4.7,0,8.5,3.8,8.5,8.5c0,2.2,1.8,4,4,4c2.2,0,4-1.8,4-4     C50.7,25.2,43.4,17.8,34.3,17.8z"></path><path d="M96.3,78.5L74.9,57.1c-0.7-0.7-1.8-1.2-2.8-1.2s-2.1,0.4-2.8,1.2L66,60.3l-6.6-6.6c4.2-5.4,6.7-12.1,6.7-19.4     c0-17.5-14.3-31.8-31.8-31.8S2.5,16.8,2.5,34.3s14.3,31.8,31.8,31.8c7.3,0,14.1-2.5,19.4-6.7l6.6,6.6l-3.3,3.3     c-1.6,1.6-1.6,4.1,0,5.7l21.4,21.4c0.7,0.7,1.8,1.2,2.8,1.2s2.1-0.4,2.8-1.2l12.2-12.2C97.9,82.6,97.9,80.1,96.3,78.5z      M34.3,58.1c-13.1,0-23.8-10.7-23.8-23.8s10.7-23.8,23.8-23.8s23.8,10.7,23.8,23.8S47.4,58.1,34.3,58.1z M81.3,87.8L65.6,72.1     l6.5-6.5l15.8,15.8L81.3,87.8z"></path></g></g></g></svg>