<?xml version="1.0" encoding="UTF-8"?>
<svg height='100px' width='100px' version="1.1" viewBox="0 0 1200 1200" xmlns="http://www.w3.org/2000/svg">
 <path d="m1177.6 57.238c-11.879-22.32-37.922-32.641-61.922-24.359-122.4 41.762-204.48-16.199-207.84-18.598-1.1992-0.83984-2.5195-1.5586-3.9609-2.1602-99.48-37.32-188.04 23.039-195.6 28.438-123.36 79.801-97.078 235.44-86.039 281.4 0.96094 4.1992 1.0781 8.3984 0.35938 12.719-22.32 121.32-98.758 183.36-195.6 261.84-29.762 24.121-60.48 48.961-92.039 77.52-101.52 91.801-144.96 229.92-143.16 326.16 0.60156 29.039 6.7188 57.359 16.922 83.16-47.52-23.762-136.92-78.238-162.48-162-17.398-56.879-2.3984-119.04 44.52-184.92 5.1602-7.3203 3.4805-17.398-3.8398-22.68-7.3203-5.1602-17.398-3.4805-22.68 3.8398-53.039 74.52-69.602 146.28-49.078 213.24 39.961 130.56 205.32 193.92 212.4 196.56 1.5586 0.60156 3.2383 0.83984 4.8008 0.96094 29.16 42.961 70.68 71.52 113.76 71.52h286.92c13.078 0 24.84-6.7188 31.441-17.879 6.6016-11.16 6.8398-24.602 0.71875-35.879-12.961-23.879-38.641-51.84-89.398-65.641 31.559-19.922 71.281-53.16 91.68-102l33.121 143.64c-2.8789 18.84 2.1602 37.922 14.281 52.801 12.84 15.961 32.039 25.078 52.441 25.078h134.28c13.32 0 25.559-6 33.602-16.559 8.0391-10.441 10.801-23.641 7.4414-36.359-14.039-53.281-59.039-76.32-91.078-83.641l17.52-114.96c112.44-108.72 125.52-217.8 128.52-437.64 1.8008-136.92 19.801-149.88 59.281-178.32 22.801-16.441 51.121-36.84 85.68-81.961 70.66-92.273 52.301-160.68 35.02-193.32zm-463.56 18.961c5.5195 50.281 34.801 75.238 63.238 99.48 23.039 19.68 46.922 40.078 62.039 76.32 20.281 48.602 19.199 85.32-3.2383 109.08-34.68 36.719-109.08 35.281-141 24.121-15.359-5.3984-29.039-20.398-40.559-44.762 1.5586-8.7617 1.3203-17.52-0.71875-26.039-9.3633-39.117-31.441-167.64 60.238-238.2zm402.6 154.68c-31.68 41.281-57.84 60.121-78.961 75.359-48.961 35.281-70.68 57.121-72.719 204.12-3 217.68-14.879 316.44-122.4 418.44-2.6406 2.5195-4.3203 5.7617-4.9219 9.3594l-20.762 136.44c-0.71875 4.4414 0.60156 9 3.3594 12.602 2.8789 3.4805 7.0781 5.7617 11.52 6 2.6406 0.23828 64.32 5.0391 79.32 62.039 1.0781 3.9609-0.60156 6.9609-1.6797 8.2812-1.9219 2.5195-4.8008 3.9609-7.9219 3.9609l-134.16-0.003906c-10.68 0-20.641-4.8008-27.238-12.961-6.7188-8.2812-9.2383-18.961-7.0781-29.398 0.48047-2.2812 0.48047-4.6797 0-7.0781l-52.441-227.4c-0.35938-1.6797-0.96094-3.1211-1.8008-4.5586-3.1211-21.961-9.9609-44.762-20.762-68.039-3.7188-8.1602-13.32-11.641-21.48-7.9219-8.1602 3.7188-11.641 13.441-7.9219 21.48 22.441 48.84 25.559 93.719 9.3594 133.56-30.238 74.039-118.08 108.12-118.92 108.48-7.1992 2.6406-11.52 10.078-10.32 17.641 1.1992 7.5586 7.4414 13.32 15 13.801 56.52 3.4805 94.559 22.441 113.16 56.641 0.83984 1.5586 0.35937 2.8789-0.12109 3.8398-0.48047 0.71875-1.5586 2.0391-3.6016 2.0391l-287.04-0.003907c-59.879 0-120.24-83.16-121.92-168-1.6797-85.922 39-216.96 132.48-301.44 30.961-27.961 61.32-52.559 90.719-76.441 86.52-70.199 162.6-131.88 196.08-237 11.879 15.359 25.559 25.801 40.801 31.078 15.961 5.6406 36.961 8.8789 59.398 8.8789 41.52 0 87.84-11.52 116.04-41.398 21.961-23.281 41.52-67.199 9.6016-143.76-18.121-43.32-46.199-67.32-70.922-88.559-30.84-26.398-53.641-45.84-52.68-95.039 28.199-14.52 84.84-36 145.08-14.281 15 10.199 105.96 66.121 235.44 21.719 8.8789-3 18.359 0.71875 22.68 8.8789 16.688 31.688 24.609 84.605-32.27 158.64z"/>
</svg>
