<?xml version="1.0" encoding="UTF-8"?>
<svg width='100px' height='100px' version="1.1" viewBox="0 0 1200 1200" xmlns="http://www.w3.org/2000/svg">
 <g>
  <path d="m1099.7 315.24c-8.7109-23.465-23.848-44.008-43.68-59.277 3.1719-19.82 9.75-38.941 19.441-56.52 12-24 22.199-46.801 3.8398-56.398v-0.003907c-10.07-5.0508-22.023-4.6016-31.68 1.1992-2.6016-3.9805-7.3086-6.0508-12-5.2773-21.922 3.5234-42.344 13.336-58.789 28.25-16.445 14.91-28.207 34.277-33.852 55.75-51.359 6.1211-93.84 50.762-100.56 58.078l-135.72 102.96c-39 0-342.72-4.4414-428.28-16.441-54.961-7.6797-130.32-8.7617-177.72 29.52-26.57 22.113-42.312 54.605-43.199 89.16-0.60156 9-0.83984 17.641-0.71875 26.039-7.082 16.441-44.762 113.04-24.242 207.72 19.68 90.961 1.9219 120 1.9219 120-2.6016 3.6523-2.9492 8.4453-0.90625 12.434 2.0469 3.9883 6.1445 6.5039 10.625 6.5273 1.2656 0.24609 2.5625 0.28516 3.8398 0.11719 10.863-4.2656 20.988-10.219 30-17.637-6.1211 38.039 4.5586 135 7.8008 161.4-6.0625 12.566-7.832 26.773-5.0391 40.441 0.94922 5.8672 6.0547 10.156 12 10.078h71.281-0.003907c3.1836 0 6.2344-1.2617 8.4844-3.5156 2.2539-2.25 3.5156-5.3008 3.5156-8.4844 0.35156-14.816-5.0703-29.188-15.117-40.078v-81.359l24.84 72c-4.9219 12-14.281 38.879-4.8008 55.559 2.1523 3.7266 6.1367 6.0156 10.438 6h72c3.1836 0 6.2383-1.2656 8.4883-3.5156s3.5117-5.3008 3.5117-8.4844c-2.1836-26.078-10.754-51.219-24.957-73.199-18.84-29.039-15-85.68-7.5586-98.762 7.4375-13.078 44.277-101.52 58.078-135.36 46.559 21.121 129.12 44.398 266.16 44.398 32 0 66.922-1.3984 104.76-4.1992 8.6406 38.398 18.961 90.48 18.121 114.96-1.1992 36-3.3594 89.039-4.0781 105.84h-0.003906c-11.164 13.309-15.07 31.258-10.441 48 1.1055 5.7266 6.168 9.8242 12 9.7188h72c5.0391-0.070312 9.4961-3.2812 11.16-8.0391 1.6602 4.7578 6.1211 7.9688 11.16 8.0391h68.398c3.1836 0 6.2344-1.2617 8.4844-3.5117 2.2539-2.2539 3.5156-5.3047 3.5156-8.4883 1.3203-26.52-8.0391-38.16-14.281-42.961l0.003906 0.003906c-7.5781-19.297-9.6562-40.316-6-60.723 6.4609-45.641 5.2422-92.039-3.6016-137.28-3.5078-33.047 2.6641-66.398 17.758-96l101.76-226.56v-0.003906c11.582 5.1641 23.637 9.1797 36 12 12 6.6016 79.68 42.961 131.04 42.961 7.832 0.089844 15.633-0.96094 23.16-3.1211 13.734-3.4883 25.34-12.648 31.922-25.199 30.121-67.68-12-110.28-45.359-144-14.512-12.441-26.383-27.66-34.922-44.762zm-36-151.68c-3.0547 8.7578-6.7031 17.301-10.918 25.562-8.4375 16.383-15.039 33.645-19.684 51.48l-7.3203-4.0781 0.003907-0.003907c2.7617-10.488 6.793-20.605 12-30.121 6.6406-11.008 10.969-23.258 12.719-36 3.707-3.6641 8.5117-6.0234 13.68-6.7188zm-964.8 635.52c0-9.4805-2.0391-24.84-4.3203-43.68-5.1484-37.621-7.793-75.543-7.918-113.52l5.3984 13.199c9.4023 19.965 16.18 41.059 20.16 62.762 2.5156 27.77-2.0664 55.727-13.32 81.238zm-34.559 22.562c3.2969-35.652 0.49609-71.609-8.2812-106.32-8.7812-48.84-6.2773-99.039 7.3203-146.76 2.6055 12.164 5.8516 24.18 9.7188 36-14.641 19.199-12 67.68-2.3984 153.36 2.2812 19.68 4.3203 36.719 4.0781 43.922h0.003907c-0.65625 7.7422-4.4219 14.887-10.441 19.801zm157.32 36c-12 20.281-15.84 86.52 8.2812 123.6v-0.003907c9.4492 14.836 16.008 31.328 19.316 48.602h-48.84c0.97656-11.117 3.9414-21.973 8.7617-32.039 1.168-2.8867 1.168-6.1133 0-9l-38.398-112.8 90.359-164.4c5.8828 4.3516 12.012 8.3555 18.359 12-17.039 40.559-51.48 121.56-57.84 133.56zm547.2 160.2c-1.7578-9.0938-6.6406-17.285-13.801-23.16 0-42.121 4.0781-63.84 6.7188-68.762l0.003907 0.003906c0.66016-0.53516 1.2656-1.1406 1.7969-1.8008 5.8477 25.398 9.8594 51.184 12 77.16-3.6055 4.6797-5.9219 10.223-6.7188 16.078zm389.4-523.2c-3.4258 6.7422-9.5898 11.684-16.918 13.559-37.078 11.16-111.48-24-137.04-38.641-1.1523-0.68359-2.4102-1.168-3.7227-1.4375-0.71875 0-78.359-15.359-92.762-72h0.003906c-1.625-6.4297-8.1523-10.324-14.582-8.6992-6.4258 1.6211-10.324 8.1484-8.6992 14.578 7.9766 28.008 26.695 51.73 52.082 66l-102 226.8c-17.5 33.949-24.48 72.344-20.043 110.28 8.5312 42.809 9.75 86.75 3.6016 129.96-5.2461 26.578-1.7969 54.137 9.8398 78.602 0.99219 2.0977 2.7539 3.7305 4.9219 4.5586 0 0 3.2383 2.3984 4.5586 11.281h-45.48c0-6.4805 0-12 2.2812-13.559 2.6406-1.8711 4.4141-4.7266 4.918-7.9219 1.5586-10.441-8.5195-96.961-25.922-128.04 2.2812-22.68 4.1992-57 5.1602-109.2h0.003906c25.035-27.574 41.355-61.938 46.918-98.762 1.1602-6.6289-3.2734-12.941-9.8984-14.102-6.6289-1.1602-12.941 3.2734-14.102 9.9023-4.6172 33.109-19.469 63.949-42.48 88.199-2.6016 2.2266-4.1289 5.457-4.1992 8.8789-0.96094 60-4.9219 129.84-9.8398 142.92-5.3984 4.8008-13.922 18.84-13.922 93.48h0.003906c-0.15234 5.6836 3.7031 10.691 9.2383 12 3 0.71875 5.5195 7.9219 6.7188 16.078h-48.957c-0.99609-6.5469 1.082-13.191 5.6367-18 3.582-2.0625 5.8516-5.8281 6-9.9609 0 0 2.8789-67.922 4.3203-111.36s-28.438-162.84-29.879-167.88c-1.625-6.4297-8.1523-10.324-14.578-8.6992-6.4297 1.6211-10.324 8.1523-8.7031 14.578 0 0 2.2812 9.2383 5.5195 22.68-265.8 19.32-368.64-41.52-393.48-60l7.9219-14.281v0.003906c3.3125-5.8008 1.3008-13.188-4.5-16.5-5.7969-3.3164-13.188-1.3008-16.5 4.5l-121.56 221.04c-0.95703 1.7695-1.4492 3.75-1.4414 5.7578v115.56c0.007812 3.9258 1.9336 7.6016 5.1602 9.8398 3.9336 3.375 6.7734 7.8438 8.1602 12.84h-46.441c-0.39844-4.3906 0.17578-8.8164 1.6797-12.961 3.7578-2.7539 5.582-7.4297 4.6836-12-3.3633-15.121-13.922-143.64-8.4023-162 26.488-36.934 38.758-82.184 34.559-127.44-4.1406-23.914-11.488-47.164-21.84-69.117-17.641-43.078-37.68-91.922-32.762-158.4l0.003907-0.003906c0.65625-27.793 13.145-53.984 34.32-72 40.68-32.879 109.08-31.441 159.24-24 92.52 12.363 420.96 16.441 435.48 16.441 2.6914 0.14453 5.3398-0.71094 7.4414-2.3984l139.56-106.2 1.8008-1.6797s36-40.078 77.641-49.559v-0.003906c-1.6992 11.195-2.1836 22.539-1.4414 33.84 0.50391 6.25 5.7305 11.059 12 11.039h0.48047c6.5859-0.51172 11.523-6.25 11.039-12.84-0.68359-13.945 0.56641-27.918 3.7227-41.52v-0.96094c3.0469-16.777 10.684-32.387 22.059-45.094 11.371-12.707 26.039-22.02 42.379-26.906-0.84375 10.715-4.3945 21.035-10.32 30-8.5195 14.812-14.18 31.098-16.68 48-1.3789 10.438-1.3789 21.008 0 31.441 0.86328 6.6289 6.9336 11.301 13.562 10.441 6.625-0.86328 11.301-6.9336 10.438-13.562 0-2.8789 0-5.6406-0.71875-8.2812v0.003907c23.836 13.57 42.492 34.676 53.039 60 9.4492 20.621 23.246 38.961 40.441 53.758l7.4414 7.5586-43.32 76.199-0.003906 0.003906c-3.3125 5.7656-1.3242 13.125 4.4414 16.438 5.7656 3.3164 13.125 1.3281 16.441-4.4375l39.48-69.48c21.48 24.359 34.559 52.199 16.797 90.359z"/>
  <path d="m1044.2 345c0 6.5625-5.3164 11.879-11.879 11.879-6.5586 0-11.879-5.3164-11.879-11.879s5.3203-11.879 11.879-11.879c6.5625 0 11.879 5.3164 11.879 11.879"/>
 </g>
</svg>
