<svg width='100px' height='100px' version="1.1" viewBox="0 0 1200 1200" xmlns="http://www.w3.org/2000/svg">
 <g>
  <path d="m1106.2 637.5h-18.75v-412.5c0-10.352-8.3828-18.75-18.75-18.75h-93.75v-75c0-10.352-8.3828-18.75-18.75-18.75h-93.75v-75c0-10.352-8.3828-18.75-18.75-18.75h-750c-10.367 0-18.75 8.3984-18.75 18.75v956.25c0 10.352 8.3828 18.75 18.75 18.75h93.75v75c0 10.352 8.3828 18.75 18.75 18.75h93.75v75c0 10.352 8.3828 18.75 18.75 18.75h750c10.367 0 18.75-8.3984 18.75-18.75v-281.25h18.75c10.367 0 18.75-8.3984 18.75-18.75v-225c0-10.352-8.3828-18.75-18.75-18.75zm-918.75-506.25v843.75h-75v-918.75h712.5v56.25h-618.75c-10.367 0-18.75 8.3984-18.75 18.75zm37.5 937.5v-918.75h712.5v56.25h-506.25c-4.9883 0-9.75 1.9688-13.258 5.4922l-112.5 112.5c-3.5234 3.5078-5.4922 8.2891-5.4922 13.258v731.25zm187.5-798.49v48.488h-48.488zm637.5 892.24h-712.5v-806.25h93.75c10.367 0 18.75-8.3984 18.75-18.75v-93.75h600v393.75h-431.25c-10.367 0-18.75 8.3984-18.75 18.75v225c0 10.352 8.3828 18.75 18.75 18.75h431.25zm37.5-300h-450v-187.5h450z"/>
  <path d="m717.99 838.26 26.512-26.512-42.992-42.996 42.992-42.992-26.512-26.512-56.25 56.25c-7.332 7.332-7.332 19.18 0 26.512z"/>
  <path d="m751.95 816.62 56.246-112.49 33.539 16.77-56.246 112.49z"/>
  <path d="m1007 838.26 56.25-56.25c7.332-7.332 7.332-19.18 0-26.512l-56.25-56.25-26.512 26.512 42.992 42.992-42.992 42.992z"/>
  <path d="m843.75 768.75h37.5v37.5h-37.5z"/>
  <path d="m918.75 768.75h37.5v37.5h-37.5z"/>
  <path d="m637.5 562.5h37.5v37.5h-37.5z"/>
  <path d="m712.5 562.5h37.5v37.5h-37.5z"/>
  <path d="m787.5 562.5h37.5v37.5h-37.5z"/>
 </g>
</svg>
