<svg height='100px' width='100px'  fill="#000000" xmlns="http://www.w3.org/2000/svg" data-name="Layer 2" viewBox="0 0 100 100" x="0px" y="0px"><title>Artboard 48</title><path d="M25.916,34.13916a.50042.50042,0,0,0-.69336-.13867l-12.375,8.25a.5.5,0,0,0,0,.832l12.375,8.25a.5.5,0,1,0,.55469-.832l-11.751-7.834,11.751-7.834A.50008.50008,0,0,0,25.916,34.13916Z"></path><path d="M94.47681,35.13483a.492.492,0,0,0-.13593-.24707L79.77924,20.32562a.49156.49156,0,0,0-.24011-.13452.45669.45669,0,0,0-.06018-.01208.46982.46982,0,0,0-.062-.01251H61.28613L46.7666,5.64648,46.76569,5.646a.50449.50449,0,0,0-.22375-.11957.45471.45471,0,0,0-.067-.01343.47414.47414,0,0,0-.06482-.013H6a.49971.49971,0,0,0-.5.5V79.33008a.49971.49971,0,0,0,.5.5H38.5V94a.49971.49971,0,0,0,.5.5H94a.49971.49971,0,0,0,.5-.5V35.25a.47019.47019,0,0,0-.01569-.07794C94.48224,35.15894,94.47992,35.14771,94.47681,35.13483ZM79.91309,21.87354,92.78906,34.75h-12.876Zm-33-1.79V7.207l12.876,12.87646ZM6.5,78.83008V6.5H45.91309V20.1665H39a.49971.49971,0,0,0-.5.5V31.54834L27.55273,53.44287a.50006.50006,0,0,0,.89453.44727L38.5,33.78467V78.83008ZM39.5,93.5V21.1665H78.91309V35.25a.49971.49971,0,0,0,.5.5H93.5V93.5Z"></path><path d="M74.77734,48.66748a.5.5,0,0,0-.55469.832l11.751,7.834-11.751,7.834a.5.5,0,1,0,.55469.832l12.375-8.25a.5.5,0,0,0,0-.832Z"></path><path d="M58.916,48.80615a.49955.49955,0,0,0-.69336-.13867l-12.375,8.25a.5.5,0,0,0,0,.832l12.375,8.25a.5.5,0,1,0,.55469-.832l-11.751-7.834,11.751-7.834A.50008.50008,0,0,0,58.916,48.80615Z"></path><path d="M72.22363,45.88623a.50125.50125,0,0,0-.6709.22363l-11,22a.50006.50006,0,0,0,.89453.44727l11-22A.5004.5004,0,0,0,72.22363,45.88623Z"></path></svg>