<?xml version="1.0" encoding="UTF-8"?>
<svg width='100px' height='100px' version="1.1" viewBox="0 0 1200 1200" xmlns="http://www.w3.org/2000/svg">
 <g>
  <path d="m1018.8 486c0 16.57-13.434 30-30 30-16.57 0-30-13.43-30-30s13.43-30 30-30c16.566 0 30 13.43 30 30"/>
  <path d="m193.2 435.6c39.602-50.398 99.602-78 163.2-78h243.6c16.801 0 30-13.199 30-30 0-16.801-13.199-30-30-30h-243.6c-50.398 0-99.602 14.398-140.4 39.602h-93.602c-60 0-109.2 49.199-109.2 109.2 0 16.801 13.199 30 30 30 16.801-0.003906 28.801-13.203 28.801-30.004 0-27.602 22.801-49.199 49.199-49.199h26.398s-1.1992 1.1992-1.1992 1.1992l-28.801 34.801c-43.199 54-63.598 121.2-57.598 190.8l26.398 310.8c4.8008 56.398 52.801 100.8 109.2 100.8h166.8c16.801 0 30-13.199 30-30v-52.801c0-10.801 3.6016-21.602 9.6016-30l51.602-67.199 58.801 12c10.801 2.3984 20.398 3.6016 31.199 3.6016 25.199 0 49.199-6 72-16.801 14.398-7.1992 20.398-25.199 13.199-39.602-7.1992-14.398-25.199-20.398-39.602-13.199-20.398 9.6016-43.199 13.199-64.801 8.3984l-121.2-24c18-28.801 28.801-62.398 28.801-97.199 0-16.801-13.199-30-30-30s-30 13.199-30 30c0 39.602-20.398 76.801-55.199 100.8-39.602 26.398-67.199 66-79.199 111.6l-19.199 76.801h-22.801c-26.398 0-48-19.199-49.199-45.602l-26.402-313.2c-4.8008-54 12-106.8 45.602-147.6zm102 476.4c8.3984-31.199 26.398-58.801 55.199-78 0 0 1.1992-1.1992 1.1992-1.1992l34.801 7.1992-33.602 44.398c-14.398 19.199-22.801 42-22.801 66v22.801h-51.602z"/>
  <path d="m1158 630-46.801-140.4c-1.1992-4.8008-2.3984-10.801-2.3984-15.602v-57.602c0-42-22.801-79.199-61.199-98.398l-20.398-9.6016c-2.3984-24-10.801-46.801-24-67.199l-18-26.398c-32.398-49.199-97.199-63.602-147.6-33.602l-96 57.602c-32.398 19.199-52.801 55.199-52.801 93.602v88.801c0 20.398 3.6016 40.801 9.6016 60l13.199 40.801c14.398 44.398 56.398 74.398 104.4 74.398h22.801c16.801 0 30-13.199 30-30 0-16.801-13.199-30-30-30h-22.801c-21.602 0-40.801-13.199-46.801-33.602l-13.199-40.801c-4.8008-13.199-7.1992-27.602-7.1992-40.801v-88.801c0-16.801 9.6016-33.602 24-43.199l96-57.602c22.801-13.199 52.801-7.1992 67.199 15.602l18 26.398c9.6016 14.398 15.602 32.398 15.602 49.199v3.6016c0 1.1992 1.1992 2.3984 1.1992 3.6016 0 2.3984 0 4.8008 1.1992 7.1992 0 1.1992 1.1992 1.1992 1.1992 2.3984 2.3984 6 7.1992 10.801 13.199 13.199l36 18c16.801 8.3984 27.602 25.199 27.602 44.398v57.602c0 12 2.3984 22.801 6 34.801l46.801 140.4c16.801 55.203 25.199 111.61 25.199 168v79.199h-16.801c-4.8008 0-8.3984-3.6016-9.6016-8.3984l-25.199-129.6c-7.1992-33.602-27.602-61.199-58.801-76.801l-15.602-7.1992c-25.199-13.199-56.398-15.602-84-6l-61.199 20.398c-28.801 9.6016-48 36-48 66v220.8h-50.398c-27.602 0-50.398-22.801-50.398-50.398v-198c0-16.801-13.199-30-30-30s-30 13.199-30 30v199.2c0 60 49.199 109.2 109.2 109.2h158.4c16.801 0 30-13.199 30-30l0.003906-219.6c0-16.801-13.199-30-30-30-16.801 0-30 13.199-30 30v189.6h-20.398l-0.003906-219.6c0-4.8008 2.3984-8.3984 7.1992-9.6016l61.199-20.398c12-3.6016 26.398-3.6016 38.398 2.3984l15.602 7.1992c14.398 7.1992 24 19.199 26.398 34.801l25.199 129.6c6 32.398 34.801 56.398 68.398 56.398h46.801c16.801 0 30-13.199 30-30l0.003907-109.2c3.6016-62.398-6-126-26.398-186z"/>
 </g>
</svg>
