<svg height='100px' width='100px'  fill="#000000" xmlns="http://www.w3.org/2000/svg" data-name="Layer 1" viewBox="0 0 96 96" x="0px" y="0px"><rect width="100%" height="100%" fill="#FFFFFF"></rect><g transform="translate(50 50) scale(0.69 0.69) rotate(0) translate(-50 -50)" style="fill:#1A1A1A"><svg fill="#1A1A1A" xmlns="http://www.w3.org/2000/svg" data-name="Layer 1" viewBox="0 0 100 100" x="0px" y="0px"><title>files_time</title><path d="M43,50.8a14.5,14.5,0,1,0,14.5,14.5A14.52,14.52,0,0,0,43,50.8Zm7,16.5H43a2,2,0,0,1-2-2V53.8a2,2,0,0,1,4,0v9.5h5a2,2,0,1,1,0,4Z"></path><path d="M54.53,23l-12-12.58H15.69v7.69H8.35V27.3H2.5V89.56H81.33v-6.2h8.83V75.68H97.5V23ZM43,83.8a18.5,18.5,0,1,1,18.5-18.5A18.52,18.52,0,0,1,43,83.8Zm44.17-3.41H81.33V39.87H39.21l-12-12.58H11.33V21.1H33.91l12,12.58H87.18Zm7.34-7.69H90.16v-42h-43l-12-12.58H18.67V13.41H41.25L53.26,26H94.52Z"></path></svg></g></svg>
