<svg height='100px' width='100px'  fill="#000000" xmlns="http://www.w3.org/2000/svg" data-name="Layer 1" viewBox="0 0 96 96" x="0px" y="0px"><path d="M18,94H78A16,16,0,0,0,94,78V48a2,2,0,0,0-2-2H66V4a2,2,0,0,0-2-2H4A2,2,0,0,0,2,4V78A16,16,0,0,0,18,94ZM90,50V78A12,12,0,0,1,78,90q-.61,0-1.23-.06a12,12,0,0,1-2.33-.48c-.38-.12-.75-.25-1.11-.4A12,12,0,0,1,66,78V50ZM6,6H62V78a15.85,15.85,0,0,0,.09,1.7c0,.19.06.37.09.55,0,.37.1.74.18,1.1s.11.43.16.64.17.64.27,1,.16.44.24.65.22.59.35.88.2.42.3.63.28.55.43.81.24.41.37.61.33.5.5.75l.43.57q.27.34.57.69c.16.18.31.35.48.52s.42.43.64.63.21.22.33.32H18A12,12,0,0,1,6,78Z"></path><path d="M14,30H54a2,2,0,0,0,2-2V18a2,2,0,0,0-2-2H14a2,2,0,0,0-2,2V28A2,2,0,0,0,14,30Zm2-10H52v6H16Z"></path><path d="M14,54H29a2,2,0,0,0,2-2V37a2,2,0,0,0-2-2H14a2,2,0,0,0-2,2V52A2,2,0,0,0,14,54Zm2-15H27V50H16Z"></path><path d="M54,40H35a2,2,0,0,0,0,4H54a2,2,0,0,0,0-4Z"></path><path d="M54,50H35a2,2,0,0,0,0,4H54a2,2,0,0,0,0-4Z"></path><path d="M54,61H39a2,2,0,0,0-2,2V78a2,2,0,0,0,2,2H54a2,2,0,0,0,2-2V63A2,2,0,0,0,54,61ZM52,76H41V65H52Z"></path><path d="M14,70H33a2,2,0,0,0,0-4H14a2,2,0,0,0,0,4Z"></path><path d="M14,80H33a2,2,0,0,0,0-4H14a2,2,0,0,0,0,4Z"></path></svg>
