<?xml version="1.0" encoding="UTF-8"?>
<svg height='100px' width='100px' version="1.1" viewBox="0 0 1200 1200" xmlns="http://www.w3.org/2000/svg">
 <g>
  <path d="m838.22 5.5312c-3.5-3.5195-8.2539-5.5117-13.219-5.5312h-646.88c-9.9453 0-19.484 3.9492-26.516 10.984-7.0352 7.0312-10.984 16.57-10.984 26.516v1125c0 9.9453 3.9492 19.484 10.984 26.516 7.0312 7.0352 16.57 10.984 26.516 10.984h843.75c9.9453 0 19.484-3.9492 26.516-10.984 7.0352-7.0312 10.984-16.57 10.984-26.516v-928.12c0.12891-1.2148 0.12891-2.4414 0-3.6562-0.79297-3.5312-2.5469-6.7734-5.0625-9.375zm5.5312 58.5 151.59 151.59h-151.59zm178.12 1098.5h-843.75v-1125h628.12v178.12c0 9.9453 3.9492 19.484 10.984 26.516 7.0312 7.0352 16.57 10.984 26.516 10.984h178.12z"/>
  <path d="m885.94 1068.8h-571.88c-6.6992 0-12.887 3.5742-16.238 9.375-3.3477 5.8008-3.3477 12.949 0 18.75 3.3516 5.8008 9.5391 9.375 16.238 9.375h571.88c6.6992 0 12.887-3.5742 16.238-9.375 3.3477-5.8008 3.3477-12.949 0-18.75-3.3516-5.8008-9.5391-9.375-16.238-9.375z"/>
  <path d="m782.44 483c-3.4297 3.2148-5.5234 7.6016-5.8711 12.289-0.34766 4.6914 1.0781 9.3359 3.9961 13.023l30.094 37.5h-60.656v-77.062c0-4.9727-1.9766-9.7422-5.4922-13.258-3.5156-3.5156-8.2852-5.4922-13.258-5.4922h-79.125v-62.156l37.5 30.094c3.6875 2.918 8.332 4.3438 13.023 3.9961 4.6875-0.34766 9.0742-2.4414 12.289-5.8711l48.188-51.562c3.5-3.7109 5.3398-8.6836 5.0898-13.781-0.24609-5.0938-2.5586-9.8672-6.4023-13.219l-150-123c-3.3555-2.7578-7.5625-4.2656-11.906-4.2656s-8.5508 1.5078-11.906 4.2656l-150 123c-3.9961 3.2891-6.457 8.0898-6.793 13.254-0.33984 5.168 1.4766 10.246 5.0117 14.027l48.188 51.562c3.2031 3.4414 7.582 5.5547 12.273 5.9219 4.6875 0.36328 9.3398-1.0469 13.039-3.9531l36.75-28.969v60.656h-77.719c-4.9727 0-9.7422 1.9766-13.258 5.4922-3.5156 3.5156-5.4922 8.2852-5.4922 13.258v77.625h-60.844l30.094-37.5c2.918-3.6875 4.3438-8.332 3.9961-13.023-0.34766-4.6875-2.4414-9.0742-5.8711-12.289l-51.75-48.75c-3.7812-3.5352-8.8594-5.3516-14.027-5.0117-5.1641 0.33594-9.9648 2.7969-13.254 6.793l-122.72 150.09c-2.7578 3.3555-4.2656 7.5625-4.2656 11.906s1.5078 8.5508 4.2656 11.906l123 150c3.2734 4.0078 8.0586 6.4844 13.219 6.8438h1.2188c4.6719-0.0625 9.1523-1.8672 12.562-5.0625l51.562-48.188c3.4414-3.2031 5.5547-7.582 5.9219-12.273 0.36328-4.6875-1.0469-9.3398-3.9531-13.039l-28.969-36.75h59.812v79.219c0 4.9727 1.9766 9.7422 5.4922 13.258 3.5156 3.5156 8.2852 5.4922 13.258 5.4922h77.719v58.125l-36.75-28.969c-3.6992-2.9062-8.3516-4.3164-13.039-3.9531-4.6914 0.36719-9.0703 2.4805-12.273 5.9219l-48.188 51.562c-3.5352 3.7812-5.3516 8.8594-5.0117 14.027 0.33594 5.1641 2.7969 9.9648 6.793 13.254l150 123c3.3555 2.7578 7.5625 4.2656 11.906 4.2656s8.5508-1.5078 11.906-4.2656l150-123c3.9961-3.2891 6.457-8.0898 6.793-13.254 0.33984-5.168-1.4766-10.246-5.0117-14.027l-48.188-51.562c-3.2148-3.4297-7.6016-5.5234-12.289-5.8711-4.6914-0.34766-9.3359 1.0781-13.023 3.9961l-37.5 30.094v-59.344h78.656c4.9727 0 9.7422-1.9766 13.258-5.4922 3.5156-3.5156 5.4922-8.2852 5.4922-13.258v-79.312h59.438l-28.969 36.75c-2.9062 3.6992-4.3164 8.3516-3.9531 13.039 0.36719 4.6914 2.4805 9.0703 5.9219 12.273l51.938 48.281c3.4805 3.2578 8.0742 5.0703 12.844 5.0625h1.2188c5.1602-0.35938 9.9453-2.8359 13.219-6.8438l123-150c2.7578-3.3555 4.2656-7.5625 4.2656-11.906s-1.5078-8.5508-4.2656-11.906l-123-150c-3.2773-4.0117-8.0664-6.4883-13.234-6.8438s-10.25 1.4453-14.047 4.9688zm-332.44 131.44h-98.344c-4.7227 0-9.2695 1.7773-12.738 4.9844-3.4648 3.2031-5.5938 7.5977-5.9609 12.305-0.36719 4.707 1.0547 9.3828 3.9805 13.086l42.188 53.625-24.375 22.781-100.5-122.72 100.59-122.62 24.281 22.688-43.406 54.562c-2.9258 3.7031-4.3477 8.3789-3.9805 13.086 0.36719 4.707 2.4961 9.1016 5.9609 12.305 3.4688 3.207 8.0156 4.9844 12.738 4.9844h99.562zm50.062-236.62-22.781-24.375 122.72-100.31 122.53 100.31-22.688 24.375-54.844-43.5c-3.7031-2.9258-8.3789-4.3477-13.086-3.9805-4.707 0.36719-9.1016 2.4961-12.305 5.9609-3.207 3.4688-4.9844 8.0156-4.9844 12.738v100.97h-30.656v-99.656c0-4.7227-1.7773-9.2695-4.9844-12.738-3.2031-3.4648-7.5977-5.5938-12.305-5.9609-4.707-0.36719-9.3828 1.0547-13.086 3.9805zm199.78 441.47 22.688 24.469-122.53 100.41-122.72-100.41 22.781-24.375 53.625 42.188c3.7031 2.9258 8.3789 4.3477 13.086 3.9805 4.707-0.36719 9.1016-2.4961 12.305-5.9609 3.207-3.4688 4.9844-8.0156 4.9844-12.738v-96.844h30.656v98.062c0.085938 4.668 1.9102 9.1328 5.1133 12.527 3.207 3.3945 7.5625 5.4727 12.215 5.8242 4.6562 0.35156 9.2734-1.043 12.953-3.9141zm12.656-106.78h-225v-225h225zm233.06-114-100.59 122.72-24.375-22.781 41.906-53.625c2.9258-3.7031 4.3477-8.3789 3.9805-13.086-0.36719-4.707-2.4961-9.1016-5.9609-12.305-3.4688-3.207-8.0156-4.9844-12.738-4.9844h-97.781v-30.562h99.469c4.8008 0.054688 9.4414-1.7305 12.965-4.9961 3.5195-3.2617 5.6562-7.7539 5.9648-12.547 0.30859-4.7891-1.2305-9.5195-4.3047-13.207l-43.406-54.844 24.281-22.688z"/>
 </g>
</svg>
