<?xml version="1.0" encoding="UTF-8"?>
<svg height='100px' width='100px' version="1.1" viewBox="30 30 1140 1140" xmlns="http://www.w3.org/2000/svg">
 <g>
  <path d="m1009.2 501.6v285.6c0 8.3984 7.1992 16.801 16.801 16.801s16.801-7.1992 16.801-16.801v-290.4c-1.1992 1.1992-2.3984 1.1992-3.6016 1.1992-7.1992 3.6016-14.398 4.8008-21.602 4.8008-2.3984 0-4.7969 0-8.3984-1.1992z"/>
  <path d="m792 804c20.398 0 36-15.602 37.199-36l4.8008-229.2h26.398l3.6016 229.2c0 20.398 18 36 37.199 36 20.398 0 36-16.801 36-37.199l-8.3984-410.4 18 18 37.199 86.398c6 13.199 18 20.398 32.398 20.398 4.8008 0 9.6016-1.1992 13.199-2.3984 18-7.1992 25.199-27.602 18-45.602l-39.602-92.398c-1.1992-3.6016-4.8008-7.1992-7.1992-10.801l-52.797-54c-18-18-42-27.602-68.398-27.602h-67.199c-22.801 0-45.602 6-64.801 19.199l-88.801 56.398c-15.602 9.6016-20.398 30-12 46.801l55.199 94.801c9.6016 16.801 31.199 22.801 48 13.199 4.8008-2.3984 8.3984-7.1992 12-12l-6 301.2c-1.1992 19.203 14.398 36.004 36 36.004-1.1992 0 0 0 0 0zm-68.398-440.4 39.602-25.199-1.1992 90z"/>
  <path d="m764.4 142.8c0 45.602 37.199 82.801 81.602 82.801 45.602 0 81.602-37.199 81.602-81.602-21.602 3.6016-48 6-81.602 6-33.602-1.1992-61.199-2.3984-81.602-7.1992z"/>
  <path d="m846 128.4c63.602 0 114-9.6016 114-22.801 0-7.1992-15.602-13.199-39.602-16.801l-13.199-40.797c-3.6016-10.801-13.199-18-25.199-18h-72c-10.801 0-21.602 7.1992-25.199 18l-13.199 40.801c-24 3.6016-39.602 10.801-39.602 16.801 0 13.199 51.602 22.797 114 22.797z"/>
  <path d="m513.6 356.4c-13.199-10.801-32.398-9.6016-43.199 3.6016l-73.203 84c-7.1992 9.6016-19.199 14.398-31.199 14.398h-63.602c-12 0-22.801-4.8008-31.199-14.398l-73.199-85.199c-10.801-13.199-30-14.398-43.199-3.6016-13.199 10.801-14.398 30-3.6016 43.199l98.398 115.2 0.003906 254.4c0 16.801 13.199 31.199 31.199 31.199s31.199-14.398 31.199-31.199v-130.8h44.398v130.8c0 16.801 13.199 31.199 31.199 31.199 16.801 0 31.199-13.199 31.199-31.199l0.003906-254.4 98.398-115.2c10.801-12.004 9.6016-31.203-3.5977-42.004z"/>
  <path d="m409.2 355.2c0 41.09-33.309 74.402-74.398 74.402-41.09 0-74.402-33.312-74.402-74.402 0-41.09 33.312-74.398 74.402-74.398 41.09 0 74.398 33.309 74.398 74.398"/>
  <path d="m132 985.2c-16.801 0-31.199 13.199-31.199 31.199 0 16.801 13.199 31.199 31.199 31.199h250.8c-1.1992-9.6016-2.3984-20.398-2.3984-31.199 0-10.801 1.1992-20.398 2.3984-31.199z"/>
  <path d="m1089.6 994.8-120-120c-12-12-31.199-12-43.199 0s-12 31.199 0 43.199l67.199 67.199h-217.2c1.1992 9.6016 2.3984 20.398 2.3984 31.199 0 10.801-1.1992 20.398-2.3984 31.199h217.2l-67.199 67.199c-12 12-12 31.199 0 43.199 6 6 14.398 8.3984 21.602 8.3984 7.1992 0 15.602-2.3984 21.602-8.3984l120-120c6-6 8.3984-13.199 8.3984-21.602 0-8.3945-3.6016-15.594-8.3984-21.594z"/>
  <path d="m579.6 862.8c-85.199 0-153.6 68.398-153.6 153.6 0 85.199 68.398 153.6 153.6 153.6 85.199 0 153.6-68.398 153.6-153.6-0.003906-85.203-68.402-153.6-153.6-153.6zm64.797 192c-4.8008 7.1992-12 10.801-19.199 10.801-3.6016 0-8.3984-1.1992-12-3.6016l-45.602-27.602c-7.1992-3.6016-10.801-10.801-10.801-19.199v-78c0-12 9.6016-22.801 22.801-22.801 12 0 22.801 9.6016 22.801 22.801v64.801l34.801 20.398c9.6016 8.4023 13.199 21.602 7.1992 32.402z"/>
 </g>
</svg>
