<?xml version="1.0" encoding="UTF-8"?>
<svg width='100px' height='100px' version="1.1" viewBox="0 0 1200 1200" xmlns="http://www.w3.org/2000/svg">
 <path d="m675 515c-12.227-2.2305-21.289-3.5156-27.227-3.8984l-133.33-6.6602c-21.109-0.74219-37.789-1.4883-49.992-2.2305-18.156-1.1055-34.273-2.9648-48.336-5.543l-22.777-6.6719c-11.113-4.8125-17.953-7.9688-20.555-9.4453-10.367-4.8242-22.223-12.406-35.555-22.789-17.773-14.809-33.898-32.219-48.336-52.211-10.738-15.191-19.812-30.562-27.215-46.117-5.1953-11.855-8.8789-22.402-11.125-31.668-2.2305-7.4141-2.7617-11.293-1.668-11.676 0.37109-0.37109 2.3984 2.7852 6.1211 9.4453 6.2891 12.227 11.473 21.852 15.551 28.883 8.8789 15.191 18.719 29.258 29.449 42.227 14.797 18.145 30.926 33.707 48.324 46.668 12.961 9.2539 23.879 15.926 32.773 20.004 1.4883 0.73047 7.7773 3.1445 18.887 7.2227l14.988 4.4531 5.0039 0.53906c12.973 2.2188 27.973 3.707 45 4.4531 11.496 0.37109 27.973 0.5625 49.453 0.5625h52.766c5.9297 0.35938 15.012 0.92578 27.238 1.6562l55.559 3.8867c6.6602 0.37109 16.285 1.6797 28.871 3.8984 3.3359 0.37109 8.3398 1.1055 15.012 2.2188l14.449 3.3359c3.3242 0.74219 8.3281 2.0273 15 3.8867 5.543 1.8594 10.355 3.5156 14.449 5.0039 11.473 4.0781 20.914 7.7773 28.32 11.102l26.664 16.68c12.961 9.625 25.008 21.48 36.121 35.543 1.8594 2.5938 3.5156 5.1836 5.0039 7.7773 8.1484 11.484 16.285 25.57 24.445 42.227 1.4766 2.2188 2.7734 4.6328 3.875 7.2227 3.7188 7.7773 10.559 23.891 20.555 48.324l9.4453 23.34c3.3359 8.1367 6.6836 15.191 10.008 21.109 6.6719 13.703 14.258 26.676 22.777 38.891 4.4414 6.3008 8.8789 12.215 13.332 17.762 12.961 15.938 27.035 29.82 42.227 41.688 18.145 14.438 37.391 25.176 57.758 32.219 15.938 5.9297 32.41 9.0703 49.453 9.4336 10.367 0.37109 22.402 0 36.121-1.1055 1.1055-0.37109 2.3984-0.55078 3.8867-0.55078-1.1289 1.1172-2.0391 2.2188-2.7852 3.3359-5.1836 6.3008-9.2539 10.547-12.215 12.77-15.191 14.074-33.516 24.996-55.008 32.773-28.883 10.738-60.371 14.449-94.441 11.113-8.1484-0.38281-16.477-1.2969-24.996-2.7734-10.008-2.2188-20.016-4.8242-30-7.7773-18.898-5.543-35.566-12.227-50.004-20.004-1.8711-1.4883-4.0664-2.7734-6.6719-3.8867-2.5938-1.8477-4.6445-3.3359-6.1211-4.4531l-6.6602-5.0039c-7.043-5.9297-11.125-9.6367-12.238-11.113-2.5938-2.2188-6.1094-6.2891-10.559-12.215-4.0781-6.3008-6.8398-10.738-8.3164-13.332-7.7773-15.551-12.77-34.441-15.012-56.664l-0.55078-26.113c0-7.4141 0.37109-15.551 1.1172-24.457 2.6055-19.621 4.0781-33.707 4.4531-42.227 0.73047-12.59 0.34766-23.316-1.1289-32.219-1.4766-7.4141-4.4414-15.18-8.8789-23.328-2.9648-4.8242-6.1211-7.4297-9.4453-7.7891v2.7734c-2.6055 8.5195-6.6719 22.031-12.227 40.559-1.1172 3.3359-3.8984 12.406-8.3398 27.227-4.0781 12.215-7.2109 22.402-9.4453 30.562-3.3242 12.949-5.3398 24.254-6.1094 33.887l-0.55078 12.215 0.55078 2.7734c0.75781 3.7188 2.6055 8.3398 5.5664 13.895 2.5938 4.4531 6.1094 8.5195 10.547 12.227 2.9648 2.5938 7.9688 6.8516 15 12.781 6.3008 5.543 10.922 11.844 13.883 18.887 1.1055 2.2188 2.2305 6.1211 3.3359 11.664 0.35938 1.1172 0.55078 2.9766 0.55078 5.5664v5.0039c-0.35937 2.2188-0.74219 5.543-1.1172 9.9961l-1.6797 9.4453-5.543 15.551c-1.4766 4.4531-5.0039 13.523-10.547 27.215-2.9766 7.043-6.4922 14.82-10.559 23.34 64.441 0.74219 122.96 1.8594 175.55 3.3242 93.336 2.6055 140 5.9414 140 10.008 0 3.707-46.668 6.8516-140 9.457-56.664 1.8477-120.54 2.9648-191.66 3.3242 3.707-27.035 6.8516-45.551 9.4336-55.559 4.4531-15.18 7.043-24.07 7.7891-26.652l4.9922-29.449-0.5625-3.8867c0-1.4883-0.17969-2.4102-0.55078-2.7734l-1.668-5.5547c-1.8477-3.3242-4.6328-6.8516-8.3281-10.547l-15-12.215c-6.6602-5.9297-11.676-11.676-15-17.219-5.1836-8.8906-8.3281-16.488-9.4336-22.777l-0.5625-17.773 0.5625-5.0039c1.4648-12.215 4.2461-24.625 8.3164-37.223 5.1953-15.551 12.973-35.004 23.328-58.332 8.8789-19.633 14.809-32.027 17.773-37.223l5.0039-10.559c0.37109-0.73047 0.92578-1.2969 1.668-1.668 3.707 1.4883 6.6602 2.5938 8.8906 3.3242 3.707 2.2305 8.3281 6.1211 13.883 11.676 6.2891 8.1484 10.934 16.477 13.883 24.996 3.707 9.9961 5.5664 22.223 5.5664 36.672 0.35937 7.0312 0 21.289-1.1172 42.77-0.37109 9.9961-0.37109 17.594 0 22.777l1.6562 24.457c2.9766 19.633 7.7891 35.184 14.449 46.68 0 1.0938 2.0391 4.6211 6.1094 10.547 5.5664 6.2891 8.3398 9.625 8.3398 9.9961 0.75781 1.1055 3.875 3.8867 9.4453 8.3281l5.5547 3.8984c0.74219 0.73047 2.6055 2.0273 5.5547 3.8867 12.961 8.1602 29.438 15.551 49.453 22.234 7.7656 2.2188 15.551 4.2461 23.328 6.0977 9.2539 1.8594 18.312 3.3359 27.215 4.4531 30.758 4.0781 59.629 2.2305 86.664-5.543 17.785-4.4531 35.207-11.688 52.246-21.672-5.5664 1.1172-11.125 1.8477-16.68 2.2305-17.773 1.4883-35.746-0.37109-53.879-5.5547-22.234-6.3008-43.715-17.039-64.453-32.23-10.738-7.7656-21.121-16.477-31.105-26.113-10.754-10.367-20.941-21.852-30.562-34.441-9.625-12.961-18.336-26.664-26.113-41.125-3.3242-6.2891-6.8516-13.883-10.559-22.777l-9.9961-23.328c-0.75781-1.8477-1.6797-3.707-2.7734-5.5547-8.1602-18.887-14.258-32.578-18.336-41.113-8.5195-17.773-17.219-32.953-26.113-45.562-5.9297-8.1367-12.227-15.539-18.875-22.223-5.5664-5.543-11.305-10.738-17.242-15.551l-22.777-13.332c-8.1484-3.6953-16.656-7.2227-25.547-10.547-3.707-1.1055-8.3281-2.5938-13.883-4.4414-5.9141-1.5-10.367-2.5938-13.344-3.3359l-13.32-3.3477c-5.8633-1.4961-10.508-2.2266-13.832-2.2266zm-59.449 118.32c4.0781-10.355 7.2344-15.359 9.457-15 1.4648 0.75781 1.4648 6.4922 0 17.23-2.2305 18.887-3.3359 33.719-3.3359 44.449 0 22.969 3.8867 43.164 11.676 60.562 4.4297 9.9961 10.738 20.555 18.875 31.68 0.35938 0.35938 2.4102 2.7734 6.1211 7.2109 2.5938 3.3359 5.0039 5.9297 7.2227 7.7773 4.8008 5.1836 9.4453 9.6367 13.883 13.344 3.3359 2.9531 8.8906 7.2109 16.668 12.77 7.4141 5.9297 12.973 10.367 16.68 13.332 14.074 11.844 23.879 22.766 29.438 32.773 0.75781 1.1172 2.4102 4.6211 5.0039 10.547l1.1055 5.0039c0.75781 2.2188 1.1289 4.0781 1.1289 5.543v20.555c-1.8594 12.227-5.375 23.148-10.559 32.773l-12.227 30.551c-30.359 0.37109-61.848 0.55078-94.441 0.55078 2.2188-5.9297 4.6211-13.715 7.2227-23.34 5.9141-22.586 12.035-42.77 18.324-60.551 5.5664-17.773 9.6367-30.18 12.227-37.223 2.6055-7.0312 4.6328-11.484 6.1094-13.332-5.1719-3.707-9.6133-7.2109-13.32-10.559-6.3008-5.1836-11.855-10.547-16.668-16.105-4.0781-4.0664-8.7109-9.8164-13.883-17.23-8.8906-11.855-15.758-24.266-20.555-37.223-8.5312-21.48-11.305-45.18-8.3281-71.102 2.1797-15.902 6.2617-30.914 12.176-44.988zm5.5586 166.12c6.6836 6.6602 10.754 10.922 12.238 12.781 4.4297 5.1836 7.957 10.379 10.547 15.551 3.707 6.6719 5.5547 13.512 5.5547 20.555 0.37109 5.543-0.37109 12.023-2.2305 19.453-1.4766 4.0664-3.3242 8.8789-5.543 14.449-2.5938 7.4023-4.0664 11.652-4.4531 12.77l-4.4531 12.781c-3.6953 10.367-7.7539 19.633-12.215 27.77-4.4414 8.1484-10.188 17.977-17.219 29.461h-3.8984-88.32c-57.781-0.38281-111.49-0.92578-161.12-1.6797h-3.8867c-2.2305-18.516-0.55078-34.621 4.9922-48.336 5.9414-13.691 12.406-29.258 19.453-46.668 7.043-17.398 12.406-30.371 16.117-38.891 3.3242-8.8906 5.375-17.965 6.1094-27.227 0.75781-9.2539 1.1172-16.488 1.1172-21.672v-12.215l1.668-17.773c1.4766-14.809 2.6055-23.148 3.3242-24.996 1.4883-6.3008 3.1562-9.457 5.0156-9.457 1.8359 0 3.5156 3.1562 4.9922 9.457 1.8477 7.7773 2.9766 16.488 3.3359 26.113 0.37109 5.543 0.5625 11.664 0.5625 18.324l-0.5625 20.555c0 2.6055-0.92578 10.367-2.7734 23.34-0.74219 8.8789-2.2305 17.398-4.4531 25.559-4.0664 12.59-10.738 27.227-20.004 43.883l-18.875 32.785c-5.5547 10.367-9.4453 17.594-11.676 21.672v1.668c48.156-0.74219 100.38-1.2969 156.68-1.668 25.547-0.37109 51.66-0.5625 78.324-0.5625 1.4766-1.0938 3.1445-2.3984 5.0039-3.875 5.9141-5.1953 9.6367-9.0859 11.113-11.676 2.5938-4.4414 5.0039-11.125 7.2227-20.004l2.7734-12.781c0.35938-1.8477 1.668-6.6602 3.8867-14.449 2.6055-8.5195 3.8867-12.961 3.8867-13.344 1.1055-4.8125 1.6797-8.5078 1.6797-11.102-0.37109-3.7188-1.4883-7.043-3.3359-10.008-2.2305-4.0664-4.8125-7.7773-7.7773-11.113-2.5938-3.3359-6.1211-7.0312-10.547-11.113l-11.125-11.113c-8.8789-8.1484-16.129-15.562-21.672-22.223-14.809-17.41-24.254-33.156-28.32-47.219-2.5938-8.1484-3.5273-15.551-2.7852-22.223 0.35937-3.707 1.1172-7.043 2.2305-9.9961-22.969 6.6602-46.859 10.738-71.676 12.227-19.246 1.4766-36.66 0.92578-52.223-1.668-16.668-1.8594-30.562-5.9297-41.676-12.227-5.9141-2.9648-11.113-6.2891-15.551-9.9961 1.1172 7.7773 3.5273 22.766 7.2227 45 1.8477 12.613 2.9648 22.789 3.3242 30.551l0.5625 8.3281c0.37109 4.0664 0.55078 6.8516 0.55078 8.3281 0 5.1836-0.17969 8.3281-0.55078 9.457l-1.1172 8.3281c-0.74219 6.3008-2.5938 17.594-5.5547 33.887-3.707 13.715-6.4688 23.508-8.3281 29.449l-15 48.324c-1.4648 5.9297-3.5156 21.852-6.1094 47.785h-13.883c0.74219-18.516 1.1055-28.883 1.1055-31.105l0.55078-9.457c0.38281-4.4414 0.75781-7.9688 1.1172-10.559 1.4766-14.062 4.6445-31.105 9.4453-51.098l6.6719-28.895c1.1172-6.6719 2.0391-11.844 2.7852-15.551 1.1172-5.9297 1.668-10.934 1.668-15 1.1055-6.3008 1.4766-16.488 1.1055-30.551 0-1.8477-0.55078-11.676-1.6562-29.461-1.8594-23.688-2.7852-40.906-2.7852-51.672 0.37109-14.809 2.0391-26.652 4.9922-35.543 2.6055-8.5195 4.8242-12.59 6.6719-12.238 1.1172 0.38281 2.2422 4.8242 3.3359 13.344 0.37109 8.5195 0.92578 15.742 1.668 21.66l1.1055 0.5625c7.043 4.0781 14.832 7.2227 23.34 9.457 20.375 5.9297 48.887 7.5859 85.559 5.0039 19.633-1.4883 49.262-5.0039 88.883-10.559 14.449-1.8477 23.52-2.9648 27.238-3.3242 6.6602-0.74219 10.355-0.37109 11.113 1.1055 0.74219 1.8477-2.0391 4.4414-8.3398 7.7773-6.2773 4.0664-14.797 7.957-25.559 11.664-2.5938 1.1055-5.1836 2.0273-7.7656 2.7852v0.53906c-1.4766 9.2656 0.19141 19.078 5.0039 29.449 5.1836 10.738 14.809 23.148 28.883 37.223 2.6055 2.5781 9.625 9.4453 21.121 20.543zm67.223 43.883c-2.6055 12.973-7.4023 28.164-14.449 45.562-6.2891 15.191-12.961 31.285-20.004 48.324 20.363 0.38281 40.188 0.5625 59.449 0.5625 1.4766-1.1172 2.7734-2.2305 3.8984-3.3359l3.3125-3.8867 2.2305-4.4414c2.9648-7.7891 4.8125-16.848 5.5664-27.227 0.34766-3.3242 0.34766-5.9297 0-7.7773l-0.5625-3.3359c0-1.4766-0.19141-2.6055-0.55078-3.3242-1.1289-2.9648-1.6797-5.1953-1.6797-6.6602-1.4766-2.9766-2.7734-5.1953-3.8867-6.6836-4.4297-7.0312-12.59-15.371-24.445-24.996-2.9648-1.8477-5.7461-3.8984-8.3281-6.1094 0 1.1094-0.17969 2.2227-0.55078 3.3281zm-561.12-484.44c3.7188-8.1484 7.7773-15.18 12.238-21.109 4.0664-5.1836 9.8047-10.547 17.23-16.117l13.32-8.8789c1.4766-0.37109 3.1562-1.4883 5.0039-3.3242l2.2188-1.1172c-1.4766-6.6719-1.8477-13.523-1.1172-20.543l3.3359-17.785c1.1172-4.0664 4.0664-13.895 8.8789-29.449l1.668-5.543 36.121 34.43c5.9297 7.4141 10.199 15.012 12.781 22.777 2.5781 7.4141 4.0664 15 4.4414 22.777 0.74219 7.7773-0.19141 10.559-2.7734 8.3398-2.5938-1.8477-5.375-5.1836-8.3281-10.008-2.9648-4.8008-6.1211-9.0586-9.4453-12.77-4.4531-5.9141-9.0859-10.922-13.883-15l-5.5664-5.0039c-0.34766-0.37109-0.55078-0.37109-0.55078 0h-0.55078l-2.7734 11.113c-1.8594 6.3008-2.6055 13.152-2.2305 20.555v1.6562c-8.5312 5.1953-13.523 8.7109-15 10.547-1.8477 1.1172-5.9141 4.8242-12.227 11.125-5.9141 6.3008-9.9961 11.473-12.227 15.562v0.53906c-2.9648 5.1836-5.375 10.754-7.2227 16.668-4.0664 10.754-7.7773 18.516-11.113 23.328-0.75781 1.4883-2.0391 3.1562-3.8984 5.0039l-3.875 4.4414c-2.9766 3.3242-5.7461 5.9297-8.3281 7.7773-5.1953 3.707-11.113 7.0195-17.785 9.9961l-11.113 4.4531h-0.56641c-0.75781 0-1.2969 0.35938-1.668 1.1055-0.37109 0.74219-0.37109 1.4883 0 2.2305 0 0.74219 0.91016 4.0664 2.7734 9.9961l2.7734 8.3281c1.4766 5.1953 1.4766 8.1484 0 8.8906-1.4883 1.4883-4.2617 0.35938-8.3281-3.3359-2.2305-1.8594-4.4414-4.0781-6.6719-6.6719-3.3242-4.0547-5.9141-7.7773-7.7656-11.102-1.8477-4.8125-2.7852-8.6992-2.7852-11.664 0.37109-4.4531 2.0391-8.3398 5.0039-11.676 1.4766-1.4766 3.3359-2.9531 5.5547-4.4414l11.664-6.6719c5.1836-2.9648 9.6367-6.1094 13.332-9.4453 1.4883-1.4766 3.5273-3.3359 6.1211-5.5547l4.4414-5.5547c1.8594-2.9492 4.8242-9.25 8.8906-18.875zm-3.8867 81.121c11.113-3.3359 21.121-5.5664 30-6.6719 6.6719-1.1172 13.332-1.6562 19.992-1.6562 8.5312 0.37109 16.297 1.8477 23.328 4.4414 8.8906 3.3242 16.129 8.8906 21.672 16.668 2.9648 3.707 5.5547 7.9688 7.7773 12.781 1.1172 2.2188 2.6055 6.6719 4.4531 13.332 2.5781 9.2539 3.875 19.078 3.875 29.449 0 8.1484-0.55078 17.965-1.668 29.449-1.8594 17.41-2.7734 27.047-2.7734 28.895v1.1055c-0.74219 10.754-0.35938 19.824 1.1172 27.227 1.4766 9.6367 4.4531 18.516 8.8789 26.664 4.0781 7.7773 9.8047 16.117 17.23 24.996 4.8125 5.5664 12.035 14.09 21.672 25.559l18.875 28.332c10.379 18.145 17.23 38.699 20.566 61.68l5.5547 55.547c1.1172 17.773 1.2969 34.246 0.55078 49.441l-2.207 21.109c0 4.0781-0.9375 10.367-2.7852 18.887 0 0.38281-0.55078 3.3242-1.6797 8.8906l-6.6602 21.109c-0.37109 0.74219-1.4883 9.0703-3.3477 24.996-15.539 0-30.73-0.37109-45.551-1.1055-92.965-2.6055-139.43-5.7461-139.43-9.457 0-4.0664 46.465-7.4023 139.43-10.008 12.602-0.35937 25.199-0.73047 37.789-1.1055 0.74219-1.8477 1.2852-3.8867 1.668-6.1094l2.7734-20.555c0.74219-5.1836 1.1172-7.957 1.1172-8.3281 0.35938-7.7773 0.55078-13.895 0.55078-18.324v-20.555c-0.35938-14.074-1.668-29.641-3.8867-46.68l-6.6602-53.879c-4.0938-20.363-10.559-38.148-19.465-53.34l-5.543-9.4453-11.676-15c-9.2539-11.113-16.297-19.633-21.109-25.547-7.7773-9.2656-14.641-19.066-20.555-29.461-5.9141-10.754-9.6367-22.211-11.125-34.453-1.1172-9.2539-1.2852-19.621-0.55078-31.117v-2.7617c0.37109-3.7188 1.668-13.715 3.8867-30 1.4883-11.113 2.3984-20.004 2.7734-26.676 0.37109-7.4023-0.19141-15.551-1.668-24.457-3.3359-15.562-10.367-25.934-21.121-31.105-8.1484-3.707-19.812-5.5547-35.004-5.5547-5.9297 0.37109-15.551 1.2969-28.883 2.7734-17.027 2.2188-25.738 2.4258-26.113 0.55078-0.32422-1.8438 7.6328-5.3477 23.93-10.531z" fill-rule="evenodd"/>
</svg>
