<svg height='100px' width='100px' version="1.1" viewBox="0 0 1200 1200" xmlns="http://www.w3.org/2000/svg">
 <path d="m504.56 903.25 10.508-18.207c27.613 7.4062 55.91 11.145 84.477 11.145h0.050781l5.4375 20.301c6.2578 23.328 27.43 38.754 50.523 38.754 4.457 0 9-0.57422 13.52-1.7891l63.746-17.082c13.445-3.6016 24.711-12.27 31.703-24.379 7.0039-12.121 8.8672-26.203 5.2539-39.648l-5.4375-20.301c24.758-14.289 47.426-31.691 67.641-51.918l18.207 10.52c24.992 14.414 57.012 5.8281 71.426-19.141l32.988-57.148c6.9688-12.062 8.8164-26.156 5.1914-39.672-3.6133-13.52-12.258-24.797-24.32-31.762l-18.211-10.512c7.4062-27.625 11.145-55.945 11.145-84.527l20.301-5.4375c27.844-7.4688 44.438-36.195 36.969-64.039l-17.082-63.734c-3.6016-13.457-12.258-24.711-24.379-31.715s-26.203-8.8672-39.648-5.2539l-20.301 5.4375c-14.289-24.758-31.691-47.426-51.918-67.641l10.52-18.207c14.414-24.969 5.8281-57-19.141-71.426l-57.148-33c-25.004-14.426-57.023-5.8164-71.426 19.141l-10.52 18.207c-27.613-7.4062-55.91-11.145-84.477-11.145h-0.050781l-5.4375-20.301c-7.4688-27.844-36.184-44.414-64.039-36.98l-63.746 17.082c-27.832 7.457-44.426 36.184-36.969 64.039l5.4375 20.289c-24.758 14.289-47.426 31.676-67.641 51.906l-18.207-10.508c-12.051-6.9688-26.145-8.8047-39.66-5.1797-13.52 3.625-24.797 12.258-31.762 24.32l-32.988 57.148c-6.9688 12.062-8.8047 26.145-5.1797 39.66 3.625 13.52 12.27 24.797 24.332 31.75l18.207 10.52c-7.4219 27.637-11.145 55.961-11.145 84.527l-20.301 5.4375c-13.457 3.6016-24.711 12.258-31.715 24.379s-8.8672 26.203-5.2539 39.648l17.082 63.734c3.6016 13.457 12.258 24.723 24.379 31.715 12.109 6.9922 26.18 8.8516 39.66 5.2539l20.289-5.4375c14.289 24.758 31.691 47.414 51.918 67.641l-10.52 18.207c-6.9688 12.062-8.8047 26.156-5.1797 39.66 3.625 13.52 12.27 24.797 24.332 31.75l57.148 33c24.953 14.48 56.988 5.8828 71.41-19.082zm-31.199-18c-2.1562 3.7227-5.6562 6.4023-9.8828 7.5312-4.2383 1.1523-8.5977 0.57422-12.344-1.5781l-57.148-33c-3.7344-2.1562-6.418-5.6562-7.543-9.8828-1.1406-4.2227-0.5625-8.5977 1.5781-12.332l17.582-30.453c4.2227-7.3242 2.793-16.594-3.4414-22.297-25.238-23.082-46.016-50.156-61.762-80.473-3.9062-7.5078-12.504-11.289-20.645-9.0859l-33.941 9.0977c-4.1641 1.125-8.5352 0.52734-12.32-1.6641-3.7969-2.1797-6.4883-5.6797-7.6055-9.8438l-17.082-63.746c-1.1133-4.1523-0.52734-8.5234 1.6523-12.305 2.1914-3.7852 5.6953-6.4883 9.8438-7.6055l33.957-9.0977c8.168-2.1797 13.703-9.7461 13.324-18.195-1.5078-34.102 2.9492-67.945 13.25-100.58 2.5469-8.0586-0.85547-16.801-8.168-21.012l-30.453-17.582c-3.7344-2.1562-6.418-5.668-7.543-9.8828-1.1406-4.2227-0.5625-8.5977 1.5781-12.332l32.988-57.148c2.1562-3.7227 5.6562-6.4023 9.8828-7.5312 4.2383-1.1523 8.6094-0.57422 12.344 1.5781l30.453 17.582c7.3086 4.2227 16.578 2.793 22.297-3.4414 23.07-25.223 50.156-46.004 80.473-61.762 7.4922-3.8945 11.277-12.477 9.0859-20.645l-9.1094-33.941c-2.3125-8.668 2.8398-17.609 11.512-19.922l63.746-17.082c8.6445-2.3125 17.598 2.8398 19.922 11.512l9.0977 33.957c2.1914 8.1562 9.7969 13.75 18.195 13.324 34.176-1.5078 67.973 2.9375 100.57 13.25 8.0586 2.5469 16.801-0.85547 21.035-8.168l17.582-30.453c4.4688-7.7773 14.438-10.445 22.223-5.9492l57.148 33c7.7617 4.4805 10.434 14.449 5.9375 22.223l-17.582 30.453c-4.2227 7.3242-2.793 16.594 3.4414 22.285 25.223 23.082 46.004 50.156 61.75 80.473 3.9062 7.4922 12.504 11.266 20.645 9.0859l33.957-9.0977c4.1406-1.1133 8.5234-0.52734 12.32 1.6641 3.7852 2.1797 6.4766 5.6797 7.5938 9.832l17.082 63.734c2.3125 8.668-2.8398 17.609-11.512 19.922l-33.957 9.0977c-8.168 2.1797-13.703 9.7461-13.324 18.195 1.5078 34.141-2.9375 67.973-13.25 100.57-2.5469 8.0586 0.85547 16.801 8.168 21.023l30.453 17.582c3.7227 2.1562 6.4023 5.668 7.543 9.8945 1.125 4.2227 0.5625 8.5977-1.5938 12.332l-32.988 57.148c-4.4805 7.7617-14.438 10.445-22.223 5.9492l-30.453-17.582c-7.3242-4.2383-16.578-2.793-22.297 3.4414-23.082 25.238-50.156 46.016-80.473 61.762-7.4922 3.8945-11.277 12.477-9.0859 20.633l9.0977 33.957c1.1133 4.1641 0.52734 8.5352-1.6523 12.332-2.1914 3.7852-5.6797 6.4883-9.832 7.6055l-63.746 17.082c-8.7305 2.3516-17.582-2.8398-19.922-11.496l-9.0977-33.957c-2.1172-7.9102-9.2695-13.348-17.387-13.348-0.26953 0-0.53906 0-0.80859 0.011719-34.113 1.5078-67.973-2.9492-100.57-13.25-8.082-2.5469-16.812 0.84375-21.035 8.168zm126.15-111.96c17.867 0 35.828-2.3516 53.547-7.0898 53.031-14.215 97.371-48.219 124.82-95.781 27.453-47.559 34.75-102.96 20.535-156-14.203-53.043-48.219-97.371-95.781-124.82-47.57-27.453-102.98-34.738-156-20.535-53.031 14.215-97.371 48.219-124.82 95.781-27.453 47.559-34.75 102.96-20.535 156 14.203 53.043 48.219 97.371 95.781 124.82 31.676 18.281 66.832 27.625 102.45 27.625zm-163.45-161.78c-11.73-43.75-5.707-89.438 16.945-128.66 22.641-39.219 59.203-67.273 102.96-79.004 14.609-3.9062 29.426-5.8516 44.156-5.8516 29.387 0 58.383 7.7031 84.516 22.789 39.219 22.641 67.273 59.203 79.004 102.96 11.73 43.738 5.707 89.438-16.945 128.66-22.641 39.219-59.203 67.273-102.96 79.004-43.715 11.73-89.438 5.7188-128.67-16.934-39.227-22.648-67.289-59.211-79.008-102.96zm619.08 218.97c-70.223 121.62-183.59 208.61-319.22 244.95-45.023 12.062-90.574 18.109-136.19 18.109-19.676 0-39.367-1.2617-59.031-3.5039l36.234 37.824c6.8828 7.1758 6.6367 18.574-0.55078 25.457-3.4883 3.3438-7.9844 5.0078-12.453 5.0078-4.7383 0-9.4648-1.8594-13.004-5.5469l-65.609-68.473c-3.293-3.4531-5.1055-8.0703-4.9961-12.844 0.10938-4.7773 2.0938-9.3203 5.5469-12.613l68.473-65.598c7.1758-6.8828 18.562-6.6367 25.469 0.55078 6.8828 7.1758 6.6367 18.574-0.55078 25.457l-36.355 34.824c61.406 7.2617 123.05 2.8281 183.7-13.434 126.36-33.855 231.96-114.88 297.37-228.17 65.398-113.28 82.762-245.25 48.918-371.6-69.898-260.83-338.97-416.17-599.79-346.27l-9.332-34.789c135.62-36.344 277.32-17.695 398.94 52.52 121.61 70.211 208.59 183.57 244.95 319.22 36.348 135.64 17.699 277.31-52.512 398.93zm-891.96-484.54-32.117-16.324c5.582-10.984 11.656-21.957 18.051-32.609l30.883 18.527c-5.9531 9.9219-11.613 20.16-16.816 30.406zm35.719-59.535-29.496-20.656c7.0781-10.113 14.633-20.129 22.457-29.766l27.957 22.703c-7.2773 8.9727-14.316 18.305-20.918 27.719zm-62.73 123.49-34.09-11.633c4.0039-11.719 8.4727-23.438 13.285-34.824l33.172 14.008c-4.4688 10.617-8.6328 21.527-12.367 32.449zm-17.707 67.113-35.387-6.6875c2.3125-12.219 5.0703-24.453 8.2305-36.379l34.824 9.1953c-2.9414 11.098-5.5117 22.496-7.668 33.871zm-7.9961 68.953-35.977-1.5781c0.53906-12.332 1.543-24.844 2.9648-37.176l35.781 4.125c-1.3242 11.496-2.2539 23.152-2.7695 34.629zm302.28-430.96-13.727-33.305c7.4805-3.0742 15.062-6 22.738-8.7539l12.148 33.906c-7.1406 2.5703-14.203 5.2891-21.16 8.1523zm-62.129 30.918-18.305-31.016c10.664-6.3047 21.699-12.293 32.781-17.793l16.027 32.254c-10.301 5.1172-20.562 10.691-30.504 16.555zm-57.062 39.441-22.531-28.102c9.6484-7.7383 19.715-15.234 29.891-22.273l20.484 29.621c-9.4766 6.5625-18.855 13.543-27.844 20.754zm-50.902 47.156-26.289-24.625c8.4844-9.0625 17.375-17.902 26.438-26.289l24.477 26.426c-8.4375 7.8086-16.727 16.051-24.625 24.488zm-130.26 382.86-35.828 3.5508c-1.2227-12.379-2.0195-24.906-2.3633-37.211l36-1.0039c0.30859 11.473 1.0547 23.129 2.1914 34.664zm230.96 369.42c9.8086 6.0234 19.973 11.793 30.234 17.145l-16.652 31.934c-10.996-5.7305-21.906-11.914-32.426-18.379zm-56.426-40.422c8.8906 7.3594 18.148 14.496 27.504 21.207l-20.977 29.277c-10.055-7.1992-19.984-14.852-29.496-22.762zm117.99 72.527c10.617 4.6172 21.504 8.8906 32.34 12.711l-11.977 33.969c-11.633-4.1016-23.312-8.6953-34.703-13.641zm-143.93-95.621-24.895 26.02c-8.9492-8.5586-17.695-17.547-26.008-26.695l26.668-24.195c7.7539 8.5234 15.895 16.898 24.234 24.871zm-136.88-237.46-34.996 8.5586c-2.9375-12.012-5.4844-24.281-7.5781-36.488l35.496-6.0859c1.9609 11.375 4.3359 22.824 7.0781 34.016zm21.184 66.148-33.453 13.359c-4.6055-11.512-8.8398-23.301-12.602-35.082l34.309-10.973c3.4961 10.973 7.4492 21.969 11.746 32.695zm30.258 62.434-31.211 17.977c-6.1953-10.762-12.062-21.844-17.449-32.977l32.426-15.688c4.9961 10.363 10.469 20.684 16.234 30.688zm38.816 57.492-28.336 22.238c-7.5938-9.6875-14.988-19.812-21.941-30.109l29.828-20.191c6.4922 9.5977 13.371 19.051 20.449 28.062z"/>
</svg>
