<svg height='100px' width='100px' version="1.1" viewBox="0 0 1200 1200" xmlns="http://www.w3.org/2000/svg">
 <g>
  <path d="m990.95 130.46c0-8-6.5-14.5-14.523-14.5-8 0-14.5 6.5-14.5 14.5s6.5 14.5 14.5 14.5c8.0234 0 14.523-6.5 14.523-14.5z"/>
  <path d="m1081.8 186.32c-5.8984-10.863-14.18-18.16-21.484-24.598-1.4805-1.3008-2.9492-2.5977-4.3867-3.9102-2.8203-2.5781-6.043-5.6797-8.5664-9.1562-3.1133-4.2656-6.5352-13.141-10.156-22.535-6.0391-15.672-12.887-33.434-23.484-44.359-10.352-10.684-22.676-16.199-31.344-18.961 3.4062-12.719 7.1367-34.188-1.1016-48.527-4.2969-7.4766-11.289-12.242-20.219-13.789-7.6328-1.3242-20.609-0.82812-30.777 13.484-8.4609-5.8594-21.352-12.918-33.637-12.258-7.2969 0.39453-13.691 3.4414-18.484 8.8203-15.738 17.645-0.91016 41.914 9.2422 54.73-1.4844 1.3945-3.9609 4.0508-8.6211 10.219-0.0625 0.082031-0.13281 0.17578-0.19922 0.26172-0.042969 0.058594-0.09375 0.11719-0.13281 0.17578-1.4648 1.918-3.0938 4.1172-4.9492 6.6797-11.82-6.3359-30.16-10.668-47.957 0.61328-32.191 20.441-85.059 132.04-99.66 168.2-7.7188 19.16-15.84 45.445-23.691 70.863-8.7109 28.199-17.719 57.359-25.621 74.758-10.242 22.551-42.359 58.809-66.996 83.258-0.027344 0.023438-0.046875 0.042969-0.070313 0.066407-8.7539 6.9492-12.949 15.719-16.629 23.492-4.1953 8.8594-7.8203 16.512-17.723 22.441-7.1211 4.2461-23.582 7.2891-35.363 9.2109-9.5469 1.5742-20.34 3.0625-31.766 4.6406l-10.578 1.4648c-46.797 6.543-99.836 15.211-137.84 35.242-0.003906 0-0.003906 0.003906-0.007813 0.003906-0.19141 0.10156-0.39062 0.19141-0.58203 0.28906-0.79297 0.38672-1.5703 0.79297-2.1953 1.1562-9.0156 4.9805-18.047 10.723-26.844 17.051-0.085938 0.058594-0.16797 0.11719-0.25391 0.17969-0.03125 0.019531-0.0625 0.042968-0.09375 0.0625-25.863 18.586-46.832 40.078-63.684 57.352l-3.4258 3.5078c-15.289 15.625-27.746 27.828-37.32 30.934-9.7227 3.1484-18.934 1.6367-25.137-0.28906 4.3359-15.789-2.7305-35.32-18.598-47.277-13.898-10.484-42.902-14.008-63.336-7.6875-3.4609 1.0703-6.0117 4.0078-6.5898 7.582-0.57812 3.5742 0.92188 7.1641 3.8672 9.2695 4.4844 3.2031 6.3438 10.984 8.3086 19.219 2.1836 9.1523 4.4414 18.617 10.953 25.848 8.6055 9.582 23.504 13.699 35.25 13.699 0.71875 0 1.4258-0.015625 2.1172-0.046875 3.6289-0.16016 6.9727-0.72656 10-1.6328 5.5117 13.52 17.227 34.188 38.191 37.539 16.223 2.5938 28.719-5.7344 38.754-12.426 8.5898-5.7266 14.473-9.332 20.664-8.7812-5.3867 12.559-13.723 35.566-13.723 57.734 0 13.969 3.0781 27.863 6.0508 41.305 0.55078 2.4922 1.1055 4.9844 1.6367 7.4844 2.6953 12.551 5.375 27.031 3.0547 40.016-1.043 5.8398-2.8945 11.691-5.6562 17.898l0.019531 0.007812c-0.003906 0.007812-0.011719 0.019531-0.015625 0.027344l-0.011719-0.003906c-3.1094 7.0039-6.9844 13.676-11.082 20.742-6.6016 11.379-13.434 23.145-17.738 37.48-3.0898 10.277-3.8008 23.121-2.2461 40.402 0.67969 7.8086 1.7188 15.789 2.7266 23.512 2.1133 16.195 4.1055 31.492 2.5039 42.434-1.7344 11.887-6.7266 23.637-11.551 35.004-5.9258 13.957-11.523 27.137-10.105 39.277 1.9492 16.539 12.961 26.027 21.004 32.953 2.6797 2.3086 5.2109 4.4922 6.5469 6.1836 0.21484 0.28125 0.42188 0.58984 0.63672 0.90234 0.074219 0.11719 0.13281 0.24219 0.21094 0.35547 3.3594 5.75 5.6797 18.48 6.3672 25.309 0.48047 4.875 4.582 8.5859 9.4766 8.5859h60.906c5.2578 0 9.5234-4.2656 9.5234-9.5234 0-20.375-10.355-34.332-19.492-46.645-2.8359-3.8203-5.5156-7.4336-7.793-11.102-1.6641-2.6562-2.9492-5.1328-3.918-7.5508-6.3516-15.906 0.68359-70.066 13.938-107.32 5.0391-14.168 16.891-38.82 34.367-71.516-2.8477 15.07-5.0195 30.121-3.4414 43.418 0.10156 0.83594 0.21484 1.6484 0.33984 2.4805 0.007812 0.046875 0.042968 0.28516 0.050781 0.34375 0.003906 0.015625 0.003906 0.027344 0.007813 0.039062 2.6719 16.211 11.406 31.898 19.855 47.078 7.0586 12.676 13.723 24.648 14.93 33.918 1.1016 8.4609 0.53516 17.219-0.019532 25.688-0.95312 14.625-1.8516 28.438 5.5508 40.078 6.5156 10.234 14.801 14.953 21.453 18.746 4.7422 2.7031 8.4883 4.8398 11.305 8.4492 5.6367 7.2305 7.2852 19.945 7.4414 24.211 0.16797 5.1367 4.3789 9.2148 9.5195 9.2148h70.336c2.8242 0 5.5039-1.2539 7.3125-3.4219 1.8086-2.168 2.5625-5.0273 2.0586-7.8047-4.0977-22.574-18.258-38.48-31.953-53.863-1.4453-1.625-2.8945-3.2539-4.332-4.8867-0.12891-0.14453-0.25781-0.28516-0.39453-0.42188-7.9258-9.0469-15.977-18.855-20.512-30.457-11.996-30.633-6.8164-141.18-2.0508-166.02 0.13672-0.67187 0.28906-1.3867 0.48437-2.1562 3.0625-12.039 13.609-33.309 23.809-53.883 3.125-6.3008 6.2461-12.602 9.1797-18.68l0.023437-0.046874c0.003907-0.007813 0.007813-0.019532 0.015625-0.03125 3.4258-7.0859 6.1836-13.047 8.4414-18.234 25.062 5.3828 53.227 2.1484 73.035-0.97266 0.082031-0.011718 0.16016-0.027344 0.23828-0.039062 0.007812-0.003906 0.019531-0.003906 0.027344-0.003906 13.852-2.207 27.547-5.0078 40.789-7.7227l2.375-0.48438c0.86719-0.17969 1.7109-0.35156 2.5742-0.52734 3.4609 10.027 9.3164 28.164 12.145 43.578 0.87891 4.6914 1.4023 8.7891 1.5625 12.191 0.54688 11.711-1.9375 28.137-4.332 44.02-2.2656 14.984-4.6055 30.484-4.6055 43.156 0 13.973 3.4961 29.785 6.875 45.082 3.0898 13.973 6.0039 27.168 6.0039 37.469 0 9.7773-3 21.035-5.9023 31.926-3.5938 13.496-6.9922 26.246-4.6484 36.594 2.2305 9.7891 7.4023 17.035 11.965 23.43 2.4805 3.4805 4.8281 6.7656 6.2148 9.8555 0.59375 1.3398 0.96875 2.4297 1.1914 3.5156 1.9023 9.043 0.45703 23.191-0.25781 27.871-0.42187 2.7461 0.375 5.543 2.1836 7.6523s4.4492 3.3242 7.2305 3.3242h75.359c5.2578 0 9.5234-4.2656 9.5234-9.5234 0-15.742-4.9492-28.48-15.121-38.945-2.1133-2.1758-3.6211-4.8086-4.4844-7.8281-0.84766-2.9531-1.0195-6.1484-0.49609-9.2578 1.2227-7.3398 1.3516-14.281 0.38281-20.602-0.92969-6.1602-3.0312-12.613-5.4688-20.086-4.6875-14.371-10.523-32.25-8.9961-53.992 1.1797-16.719 7.5352-39.41 12.93-56.242 3.3125 8.3398 7.8984 18.773 13.02 30.418 10.918 24.836 25.875 58.848 26.969 71.828 0.75391 9.0898-0.77734 18.637-2.2617 27.871-1.9805 12.309-3.8477 23.938 0.19922 33.484 4.5586 10.746 12.723 16.23 18.688 20.234 0.82422 0.55078 1.6328 1.0938 2.4883 1.6953 1.1758 0.80469 2.8438 2 3.7148 3.0781 5.0273 6.2539 8.0781 12.789 9.3281 19.977 0.79297 4.5625 4.7539 7.8906 9.3828 7.8906l68.816-0.015625c2.8633 0 5.5703-1.2852 7.3789-3.5039 1.8086-2.2148 2.5273-5.1289 1.9531-7.9297-3.6289-17.738-11.098-33.895-22.199-48.023-3.418-4.3477-7.3086-8.6328-11.57-12.734-5.0195-4.832-7.6562-11.723-7.2422-18.895 0.63281-10.785 1.1055-26.035-0.21094-37.402-1.1562-10.086-8.7461-33.473-17.535-60.559-8.9375-27.551-19.07-58.781-20.516-71.176-1.2891-11.051-3.2148-42.121-4.25-77.93-0.96094-33.926-0.76562-61.422 0.54297-77.434 0.25391-3.0938 0.49609-5.4102 0.76953-7.332 0.76172-5.4258 2.3242-11.68 4.7578-19.086 0.027343-0.070313 0.0625-0.13672 0.089843-0.21094 2.5391-7.6367 5.7539-15.641 8.8555-23.379 8.8281-21.988 17.16-42.758 14.098-61.523-2.0781-12.652-7.6328-23.086-12.531-32.289-1.0664-2.0039-2.125-3.9922-3.1406-5.9883-3.9609-7.7891-6.6328-14.504-6.8008-22.094-0.050781-1.5781 0.035156-3.3086 0.25781-5.1055 1.5781-12.234 14.895-40.715 27.77-68.262 4.8906-10.465 9.9492-21.285 14.527-31.547 8.5234-19.047 13.801-32.711 16.613-43.004 2.1602-7.9102 6.2031-24.566 12.73-52.406 5.8008-24.777 13.266-57.188 21.582-93.719 1.7148-7.5195 3.4141-15.008 5.0898-22.379l3.5078-15.449c5.0117-22.152 9.6445-42.723 13.371-59.273l1.5586-6.9297c0.87891-3.9062 3.1875-6.1602 5.0039-7.3867 4.1523-2.832 9.5273-2.8867 13.723-0.12109 7.9414 5.2109 15.449 9.6523 22.312 13.203 2.6094 1.3555 5.5352 2.7695 8.707 4.2031 19.453 8.7852 74.73 29.379 96.641 19.309 8.6016-3.9531 14.684-10.68 17.594-19.441 3.707-11.191 1.8516-25.355-4.9688-37.879zm-189.43-163.12c1.4375-1.6094 3.0156-2.3516 5.2852-2.4805 7.0508-0.38672 17.133 5.3516 24.301 10.699-2.4844 7.7891-3.8594 15.645-4.5938 21.438-3.8086 0.33203-8.4102 1.1172-13.234 2.7305-8.0586-9.6992-17.898-25.5-11.758-32.387zm-198.46 381.7c8.3984-18.5 17.18-46.922 26.48-77.012 7.7383-25.047 15.738-50.945 23.16-69.363 18.551-45.957 67.914-143.82 92.199-159.24 10.164-6.4375 20.199-3.9922 26.707-0.92969-10.719 15.699-23.441 35.219-35.863 55.055-0.039063 0.054687-0.070313 0.11328-0.10547 0.16797-0.039063 0.058593-0.089844 0.10156-0.125 0.16016-15.145 24.219-28.688 46.914-39.164 65.637-7.3789 13.18-13.199 24.324-17.297 33.125-10.09 21.613-19.828 51.621-29.238 80.637l-0.25781 0.80078c-4.4102 13.578-8.9727 27.613-13.461 40.465-0.003906 0.007813-0.007812 0.019532-0.007812 0.03125-0.003906 0.007813-0.007813 0.015625-0.007813 0.027344-6.8398 19.551-17.078 46.836-26.977 58.023-11.129 12.578-28.855 21.051-45.309 27.664 15.359-17.578 31.586-38.336 39.266-55.25zm-390.93 606.57c-11.918 33.496-22.785 94.035-14.254 119.16-12.008 3.0078-21.832 8.25-29.395 15.668-0.77734-0.6875-1.5742-1.3711-2.3828-2.0625-6.9102-5.9531-13.438-11.578-14.516-20.742-0.83203-7.1172 3.8086-18.047 8.7188-29.613 5.0508-11.895 10.773-25.371 12.863-39.688 1.9844-13.547-0.17969-30.113-2.4648-47.656-0.60547-4.6406-1.2148-9.3711-1.75-14.066 13.156-3.1562 35.809-11.887 44.312-35.359 9.4961-26.125-6.6133-56.133-13.68-67.418 2.293-5.8828 3.9492-11.617 4.9844-17.395 2.293-12.832 0.92578-25.82-1.2461-37.727 20.031-4.625 34.473-15.234 42.809-31.32 3.3516 7.9805 6.5938 16.27 9.6484 24.723-8.918 7.6641-24.809 24.453-27.113 48.348-2.4219 24.918 12.242 49.641 19.465 60.129-13.293 24.84-29.32 56.238-36 75.02zm348.96-78.504c2.5352-16.797 5.1602-34.164 4.5273-47.754-0.082032-1.7227-0.25-3.5898-0.46484-5.5312 8.6523-2.3672 21.332-7.4844 31.402-18.398 8.0898-8.7617 10.797-19.648 11.32-29.027 5.2461 8.3711 9.2422 22.91 11.922 43.34-14.07 5.9531-32.215 19.961-33.211 45.047-1.0547 27.133 18.18 44.5 29.016 52.09-6.7188 20.277-14.016 46.012-15.402 65.684-1.7852 25.453 4.9609 46.137 9.8867 61.242 2.1758 6.6602 4.0508 12.414 4.7461 17.039 0.66797 4.3516 0.55078 9.2656-0.33594 14.594-0.20312 1.2227-0.32031 2.457-0.41016 3.6914-14.883-1.4258-29.387 0.74609-43.336 6.4766-1.082-1.6172-2.1914-3.2031-3.3008-4.7539-3.8633-5.4141-7.5156-10.527-8.8945-16.582-1.3047-5.7617 1.6367-16.797 4.4805-27.473 3.0664-11.508 6.543-24.555 6.543-36.828 0-12.383-3.1328-26.566-6.4531-41.578-3.1602-14.297-6.4258-29.078-6.4258-40.969 0-11.238 2.2305-26.016 4.3906-40.309zm300.04-741.95c-9.3633-6.1758-21.094-6.8242-30.949-2.0039-19.152-4.2461-52.191-3.375-62.754 26.602-11.047 31.355 17.133 57.336 29.609 66.965l-2.1133 9.2969c-1.2695 5.6016-2.5625 11.273-3.8555 16.969-15.09 4.9727-55.168 21.117-59.57 53.559-3.7695 27.801 17.953 45.492 34.906 53.426-5.375 22.824-8.7969 36.844-10.68 43.75-2.3398 8.5547-6.7461 20.09-13.73 35.949-14.031 3.6328-51.602 16.027-64.32 47.012-13.625 33.09 10.426 64.918 18.449 74.238 0.40234 4.2773 1.2969 8.2891 2.5039 12.078-8.0859 1.0469-17.738 4.4531-25.996 13.438-15.16 16.496-31.676 62.785-13.168 88.922 10.52 14.879 25.121 24.051 34.379 28.777-1.457 5.2344-2.4727 9.9414-3.1016 14.41-0.066406 0.46094-0.12891 0.94922-0.19141 1.4414-16.891 4.6914-40.121 17.691-40.121 43.516 0 28.148 26.535 43.547 39.004 49.23 0.98047 30.414 2.6875 60.582 4.1797 73.402 1.6641 14.273 11.656 45.066 21.316 74.848 7.7617 23.922 15.789 48.66 16.73 56.863 0.91797 7.9297 0.96094 19.723 0.11719 34.113-0.63672 10.996 2.8398 21.652 9.6055 29.957-14.891 1.7383-29.602 5.8984-43.977 12.473-4.2227-2.8945-7.793-5.7383-9.832-10.547-1.9062-4.5039-0.39453-13.922 1.0703-23.027 1.5898-9.875 3.3867-21.074 2.4375-32.484-1.3594-16.152-15.164-47.547-28.512-77.902-6.3281-14.391-12.301-27.98-15.254-36.402-1.8906-5.3984-2.8438-18.449-3.1562-22.73-0.44922-6.2031-0.82812-13.137-1.2266-20.48-0.76953-14.176-1.6445-30.238-3.3047-45.547-3.1211-28.844-8.418-48.223-16.504-60.305 2.6211-11.926 6.8594-41.812-11.953-56.988-20.793-16.797-66.25-17.539-81.066-1.3203-13.84 15.156-13.84 38.48-12.508 51.516-7.332 1.4922-14.762 2.9648-22.23 4.3203-0.27734-16.391-4.4609-43.938-28.371-52.793-11.133-4.1328-28.504-6.7383-50.82 1.9609-0.39453-2.2578-0.58984-4.332-0.4375-6.1641 0.39062-4.3984 1.457-9.0625 2.6914-14.461l0.66016-2.9102c2.0078-8.9453 4.1133-19.602 3.582-32.844-0.12891-3.4844-0.59375-7.6016-1.3906-12.227-3.8008-22.285-14.074-52.074-15.008-54.758-0.003906-0.007813-0.003906-0.015625-0.007813-0.019532-0.019531-0.058593-0.039062-0.11719-0.050781-0.14453-0.070312-0.19922-0.17969-0.36719-0.26172-0.55859-0.16016-0.375-0.30859-0.75391-0.51562-1.0977-0.13672-0.23828-0.3125-0.44141-0.46484-0.66406-0.19922-0.28125-0.38672-0.57031-0.61328-0.82812-0.19922-0.22266-0.42188-0.41016-0.64062-0.61328-0.23047-0.21484-0.44922-0.44141-0.69922-0.63672-0.23438-0.17969-0.48438-0.32031-0.73438-0.47266-0.26953-0.17188-0.53516-0.35156-0.82031-0.49609-0.25781-0.12891-0.53516-0.21484-0.80078-0.32031-0.30078-0.11719-0.58984-0.24609-0.90625-0.33203-0.3125-0.085938-0.63672-0.125-0.95312-0.17969-0.28516-0.046874-0.5625-0.11719-0.85547-0.13672-0.38281-0.027344-0.76953 0-1.1602 0.015625-0.22266 0.007812-0.44141-0.015625-0.66406 0.007812-0.035156 0.003907-0.10547 0.015625-0.14844 0.019531-0.007813 0.003907-0.019531 0.003907-0.03125 0.003907-3.418 0.41016-28.07 3.9102-40.133 20-5.457 7.2773-7.4883 16.133-5.8789 25.602 1.5156 8.9414 6.1992 16.266 13.535 21.176 8.832 5.9102 20.223 7.5156 29.98 7.5156 3.7031 0 7.1641-0.23438 10.168-0.54688 0.007812 0.13672 0.019531 0.28906 0.027344 0.42578 0.32422 8.0938-0.54688 15.027-1.7539 21.371-19.168 3.2109-46.34 15.191-46.469 44.602-0.10156 27.688 25.293 39.949 45.262 44-0.39453 1.0859-0.82812 2.2344-1.332 3.5117-1.6797 4.2539-3.8164 9.1758-6.5391 15.059-11.637-6.5742-31.348-14.648-47.785-6.1641-24.895 12.867-27.246 49.906-19.371 71.699 5.6602 15.66 18.324 24.316 26.719 28.516-4.8711 33.469-9.6328 137.29 3.8203 171.64 3.6094 9.2305 8.8438 17.355 14.414 24.602-10.762 3.6367-20.387 9.2344-28.785 16.738-3.1016-2.3359-6.2773-4.1641-9.2422-5.8555-5.8125-3.3125-10.84-6.1758-14.816-12.422-4.0586-6.3828-3.3867-16.688-2.6133-28.613 0.58203-8.9453 1.2422-19.086-0.10156-29.387-1.6758-12.887-9.2031-26.406-17.176-40.723-5.6562-10.156-11.441-20.566-14.949-30.547 16.625-2.3594 36.348-10.992 40.426-33.035 4.9531-26.809-21.258-48.531-33.012-56.785 0.67969-5.4609 1.0586-10.406 1.1445-14.973 0.003907-0.070313 0-0.12891 0-0.19922l0.027344-0.0625h-0.027344c0.046875-2.4258 0.015625-4.6562-0.10547-6.7656-0.51562-9.3203-4.4531-26.102-10.598-45.609 0.375 0.003906 0.74609 0.015625 1.1289 0.015625 13.18 0 30.914-3.5508 42.336-20 6.8945-9.9492 8.6484-22.168 5.0781-35.332-5.2891-19.5-22.078-39.207-40.824-47.918-20.461-9.4961-46.199-7.4219-57.957-5.7539-6.8828-9.6016-13.703-16.973-20.309-21.891-1.1484-0.86328-2.293-1.6367-3.4805-2.3984-3.9219-2.4688-7.8672-4.168-11.699-5.0469-15.328-3.5703-27.105 4.2852-37.5 11.215-8.7617 5.8398-16.332 10.871-25.18 9.4648-8.4141-1.3438-14.969-9.1211-19.535-17.332 7.8828 1.2578 17.355 1.2773 27.375-1.9648 12.211-3.9648 24.324-14.816 39.309-29.898 6.5508 4.0781 16.879 8.9414 28.988 8.9414 6.9844 0 14.559-1.625 22.316-5.9531 24.637-13.766 24.625-53.922 23.469-70.621 5.6797-3.9258 11.441-7.5703 17.262-10.926 12.375 9.3125 44.547 30.871 77.23 30.871 8.2383 0 16.512-1.3711 24.504-4.6562 33.297-13.652 43.18-43.969 44.23-63.938l2.2305-0.30859c7.1641-0.98828 14.035-1.9453 20.59-2.9102 1.1328 14.453 8.9609 32.234 33.418 39.199 6.2734 1.7891 12.742 2.668 19.203 2.668 12.871 0 25.723-3.4922 37.012-10.273 15.129-9.082 25.703-23.137 29.016-38.555 4.8906-22.742-9.6562-46.414-19.301-59.07 5.1172-2.3086 11.383-4.6797 17.895-7.1328 1.1055-0.41797 2.2461-0.84766 3.375-1.2773 10.605 13.289 38.438 43.582 71.688 43.578 4.4375 0 8.9805-0.53906 13.582-1.7344 48.012-12.406 76.156-70.484 68.336-112.17-5.6445-30.082-34.383-40.645-56.336-42.875 2.5977-7.7266 5.1836-15.621 7.7344-23.461 19.27-2.2227 74.012-12.09 81.102-52.805 6.2266-35.875-17.367-60.473-29.992-70.805 8.7109-15.266 19.199-32.801 30.746-51.395 6.7188 1.7031 14.621 2.9336 22.766 2.9336 15.898 0 32.656-4.6484 43.035-19.406 17.688-25.164 1.7734-57.957-6.4609-71.688 1.6484-1.9805 2.3906-2.6641 2.6016-2.8516 1.5234-1.3477 3.2812-2.5352 5.2422-3.5352 9.0156-4.6133 19.066-3.6602 19.117-3.6562 2.625 0.30078 5.2578-0.51562 7.2695-2.2344 2.0078-1.7227 3.207-4.2031 3.3125-6.8438 0.007813-0.17188 0.75781-17.262 6.4258-30.676 6.1133-14.461 12.91-13.285 15.816-12.777 4.2891 0.74219 5.9648 2.7969 6.9492 4.5039 5.4688 9.4961 0.80859 31.16-3.4141 42.578-1.0078 2.7148-0.70703 5.7461 0.78516 8.2266 1.4922 2.4844 4.0508 4.1562 6.9258 4.5391 0.17969 0.023437 18.039 2.5469 31.004 15.926 7.8984 8.1367 14 23.973 19.387 37.949 4.2656 11.062 7.9453 20.621 12.527 26.895 1.7109 2.3594 3.5625 4.5039 5.4141 6.457-11.73 17.023-31.555 29.875-60.273 39.125-1.5898-0.75781-3.1172-1.5039-4.5078-2.2266-6.2891-3.3008-13.234-7.4141-20.609-12.25z"/>
  <path d="m714.29 549.64c-22.559-3.9727-44.648 13.887-49.246 39.82-2.1602 12.254-0.14844 24.562 5.668 34.66 6.1367 10.648 15.711 17.605 26.961 19.59 2.1172 0.37109 4.2266 0.55078 6.3203 0.55078 20.227 0 38.758-16.871 42.926-40.367v-0.007813c4.5742-25.93-10.059-50.262-32.629-54.246z"/>
  <path d="m697.4 666.8c-0.003907 0-0.003907 0-0.003907-0.003906-24.047-13.879-50.977-10.75-61.32 7.1328-10.309 17.875 0.44922 42.758 24.492 56.648 9.707 5.6016 20.34 8.6016 30.332 8.6016 1.2266 0 2.4414-0.046875 3.6484-0.13672 12.176-0.91797 22.133-6.6055 27.312-15.582 5.1992-8.9883 5.1445-20.457-0.14844-31.469-4.7891-9.9531-13.426-18.902-24.312-25.191z"/>
  <path d="m630.59 627.89c-5.8164-9.9141-19.176-14.668-36.672-13.07-24.688 2.2656-54.008 16.523-62.285 39.379-8.6719 23.898 0.89453 56.816 15.148 74.84 8.9609 11.328 19.789 17.406 30.828 17.406 1.1602 0 2.3203-0.066406 3.4844-0.20312 26.676-3.1055 25.996-26.512 25.551-42-0.21094-7.3125-0.42969-14.875 1.4062-20.355 2.0703-6.2031 7.2148-11.586 12.191-16.789 8.7227-9.1172 20.672-21.609 10.348-39.207z"/>
  <path d="m371.57 645.48c-8.4531 3.9258-14.648 11.891-16.996 21.844-2.1875 9.2734-0.99219 19.539 3.375 28.906 4.3633 9.3789 11.453 16.91 19.961 21.211 4.9531 2.5039 10.188 3.7656 15.289 3.7656 4.2969 0 8.5039-0.89453 12.363-2.6914 16.855-7.8633 22.949-30.637 13.582-50.773-9.375-20.125-30.715-30.105-47.574-22.262z"/>
 </g>
</svg>
