<svg height='100px' width='100px' fill="#000000" xmlns="http://www.w3.org/2000/svg" version="1.1" x="0px" y="0px"
     viewBox="0 0 100 100"><g transform="translate(0,-952.36218)"><path style="text-indent:0;text-transform:none;direction:ltr;block-progression:tb;baseline-shift:baseline;color:#000000;enable-background:accumulate;" d="m 83.754654,957.37006 a 2.0001994,2.0001994 0 0 0 -1.0938,0.5 l -9,8 a 2.0001994,2.0001994 0 0 0 -0.6562,1.5 l 0,9.1562 -6.3125,6.3125 c -6.5519,-5.8778 -15.2077,-9.4687 -24.6875,-9.4687 -20.4108,0 -36.9999997,16.5891 -36.9999997,36.99994 0,20.4108 16.5891997,37 36.9999997,37 20.4108,0 37,-16.5892 37,-37 0,-9.4882 -3.5814,-18.16474 -9.4688,-24.71874 l 6.2813,-6.2812 9.1875,0 a 2.0001994,2.0001994 0 0 0 1.499997,-0.6875 l 8,-9 a 2.0001994,2.0001994 0 0 0 -1.5,-3.3125 l -7,0 0,-7 a 2.0001994,2.0001994 0 0 0 -2.249997,-2 z m -1.75,6.4375 0,4.5625 a 2.0001994,2.0001994 0 0 0 2,2 l 4.531197,0 -4.437397,5 -7.0938,0 0,-7.125 5,-4.4375 z m -40,13.5625 c 8.4018,0 16.0543,3.126 21.875,8.2812 l -7.0938,7.0938 c -3.9994,-3.3606 -9.1627,-5.375 -14.7812,-5.375 -12.6788,0 -23,10.321 -23,22.99994 0,12.6788 10.3212,23 23,23 12.6788,0 23,-10.3212 23,-23 0,-5.6257 -2.038,-10.77954 -5.4062,-14.78124 l 7.0937,-7.0937 c 5.1634,5.8226 8.3125,13.46574 8.3125,21.87494 0,18.249 -14.751,33 -33,33 -18.249,0 -32.9999997,-14.751 -32.9999997,-33 0,-18.24904 14.7509997,-32.99994 32.9999997,-32.99994 z m 0,14 c 4.5294,0 8.6778,1.5871 11.9375,4.2187 l -6.4375,6.43754 c -1.5783,-1.0436 -3.4772,-1.6562 -5.5,-1.6562 -5.4991,0 -10,4.5008 -10,9.9999 0,5.4992 4.5009,10 10,10 5.4992,0 10,-4.5008 10,-10 0,-2.0283 -0.6386,-3.919 -1.6875,-5.4999 l 6.4375,-6.43754 c 2.6387,3.26194 4.25,7.40134 4.25,11.93744 0,10.517 -8.483,19 -19,19 -10.517,0 -19,-8.483 -19,-19 0,-10.51714 8.483,-18.99994 19,-18.99994 z m 0,13.00004 c 0.9236,0 1.7844,0.2281 2.5625,0.5937 l -3.9687,3.9687 a 2.0001995,2.0001995 0 1 0 2.8124,2.8438 l 4,-4 c 0.3734,0.7845 0.5938,1.6601 0.5938,2.5937 0,3.3374 -2.6626,6 -6,6 -3.3373,0 -6,-2.6626 -6,-6 0,-3.3374 2.6627,-5.9999 6,-5.9999 z" fill="#000000" fill-opacity="1" stroke="none" marker="none" visibility="visible" display="inline" overflow="visible"></path></g></svg>
