<?xml version="1.0" encoding="UTF-8"?>
<svg width='100px' height='100px' version="1.1" viewBox="0 0 1200 1200" xmlns="http://www.w3.org/2000/svg">
 <g>
  <path d="m1078.1 382.67c-5.0742-23.16-21.516-32.867-32.387-39.301-2.5938-1.5234-4.9688-2.8555-6.0703-3.5156-1.5586-3.6016 2.0625-18.086 8.6875-27.133 10.871-14.844-2.0508-34.176-14.555-52.871-3.6719-5.4961-7.332-10.957-10.176-16.02-12.109-21.695-41.387-40.703-53.809-44.184-0.76953-1.1758-1.957-3.7695-2.8438-5.7344-2.0039-4.4023-4.5-9.8984-8.6406-15.758-9.5156-13.441-46.379-50.711-80.93-51.973-29.617-0.9375-56.363 24.805-72.469 40.273-2.4258 2.3281-4.5859 4.4023-6.4219 6.0469-2.6289 2.3516-6.0117 5.4844-9.8516 9.0469-14.051 12.996-37.547 34.738-48.59 40.57-12.684 6.707-22.223 16.922-31.441 26.797-3.457 3.707-6.8867 7.4023-10.453 10.801-14.352 13.68-23.773 31.801-27.758 44.051-2.9297 6.8633-32.062 32.641-72.828 49.285-41.914 17.113-80.051 21.516-107.89 24.742-9.4688 1.1523-30.469-3.875-52.621-9.1328-42.949-10.211-96.406-22.883-143.02-14.027-73.297 13.98-136.33 105.55-154.95 186-15.023 64.883 2.6992 159.49 12.215 210.3 1.3555 7.2617 2.5195 13.465 3.3359 18.312 3.793 22.523-0.25391 43.848-6.3945 76.141-3.2266 16.945-6.8633 36.156-10.199 59.762-9.8047 69.758 19.246 143.86 28.379 164.91 8.2812 19.105 76.414 24.301 121.7 24.301 20.23 0 35.891-1.0312 39.637-2.3281 12.898-4.4883 15.742-13.523 16.441-19.43 12.898-0.21484 42.793-2.9414 47.387-23.039 3.0586-13.535-11.039-23.398-49.094-46.129-4.5352-2.7109-9.8516-5.8789-13.223-8.0391 0.73047-27.098 14.27-158.28 17.027-179.2 0.68359-5.1602 9.1562-18.562 16.621-30.395 13.789-21.816 32.27-51.324 41.473-84.301 62.426 32.195 128.18 37.766 165.95 37.766 10.488 0 18.816-0.43359 24.312-0.82813 34.008-2.4844 70.633-30.84 100.05-53.641 9.8398-7.6211 18.348-14.219 24.91-18.336 14.184-8.9023 30.434-18.48 42.312-25.367 0.57422 18.961-0.68359 37.441-6.9727 47.855-1.4414 2.375-3.1211 4.957-4.9219 7.7539-15.445 23.809-41.293 63.66-28.285 129.02 3.7812 19.105 7.4531 39.613 10.992 59.449 13.176 73.801 19.078 102.52 28.98 111.36 6.7188 5.9883 14.461 19.789 16.621 26.773-0.60156 0.25391-1.1992 0.50391-1.7031 0.70703-6.2383 2.5664-25.199 10.367-17.867 30.719 7.0547 19.68 21.758 28.621 48.133 28.621 4.4297 0 9.2031-0.25391 14.305-0.75781l1.6562-0.15625c33.406-3.2539 71.27-6.9375 77.461-52.285 2.5078-18.406 10.68-33.984 18.59-49.043 6.6602-12.684 13.535-25.789 16.895-40.32 6.6484-28.754 22.488-130.08 14.699-202.25-5.1016-47.074-2.5547-56.891 0.96094-70.488 1.6445-6.3359 3.5039-13.523 5.0391-24.66l0.45703-3.2773c6.7695-49.055 14.375-113.11 12.805-162.48 14.148 7.1992 25.656 8.1133 38.27 8.9531l5.9766 0.42188c21.805 1.7031 36.551-4.2227 49.164-19.848 6.875-8.5312 9.3359-16.477 7.3438-23.664 0.83984-0.9375 1.6562-1.9336 2.3984-3 12.305-17.309 7.7188-46.215 5.1641-57.844zm-24.746 44.004c-1.0664 1.5117-2.1836 2.1836-3.9609 2.3984-6.0352 0.74219-10.512 5.9141-10.488 12 0.011719 4.4141 2.4609 8.3398 6.1211 10.43-0.16797 0.21484-0.33594 0.43359-0.51562 0.64844-6.5039 8.0625-12.887 12.254-28.609 10.992l-6.2656-0.44531c-15.457-1.0195-25.285-1.8359-42.383-15.059-0.79297-5.3164-1.7148-10.402-2.8906-14.965l-2.8086-11.016c-12.562-49.621-27.973-111.29-100.64-108.02-50.629 2.3516-75.551 30.852-76.586 32.062-4.2852 5.0039-3.6953 12.504 1.2734 16.824 4.9922 4.332 12.551 3.7695 16.895-1.1523 0.78125-0.89844 19.766-21.91 59.52-23.746 49.738-2.3047 61.715 32.473 76.246 89.953l2.8555 11.172c12.695 48.758-2.8203 161.22-7.9336 198.17l-0.44531 3.2891c-1.3438 9.7305-2.9531 15.926-4.5 21.926-4.5703 17.652-6.8984 30.023-1.5977 79.066 7.4531 69.098-7.8125 166.57-14.23 194.26-2.6641 11.531-8.543 22.727-14.762 34.586-8.4492 16.117-18.035 34.379-21.121 56.953-3.4688 25.488-19.68 28.117-55.992 31.645l-1.6562 0.16797c-29.594 2.8789-34.32-3.7422-37.02-10.812 1.2227-0.60156 2.7852-1.2461 3.8984-1.7031 4.7539-1.957 10.164-4.1758 13.789-9.0352 12.07-16.129-12.695-50.375-21.289-57.949-5.7734-7.9336-15.109-60.145-21.898-98.27-3.5742-19.992-7.2461-40.656-11.09-59.914-11.102-55.801 10.559-89.195 24.887-111.29 1.957-3.0234 3.7578-5.8086 5.3164-8.3867 11.543-19.105 11.891-48.613 9.2539-81.312-0.023437-0.22656-0.023437-0.43359-0.058593-0.66016-0.63672-7.7539-1.3672-15.625-2.2422-23.641-3.4336-31.727-6.3945-101.02-6.4336-101.71-0.27734-6.625-5.8906-11.543-12.504-11.484-6.625 0.27734-11.746 5.8789-11.473 12.504 0.12109 2.8789 3.0352 70.777 6.5508 103.26 0.51562 4.8125 1.0781 10.332 1.6211 16.066-11.148 6.3711-34.105 19.645-53.363 31.738-7.5469 4.7539-16.488 11.664-26.832 19.68-25.453 19.715-60.312 46.715-87.098 48.672-24.312 1.7891-107.57 3.9727-183.3-37.5 9.1914-58.391 5.6523-143.61 5.4727-147.61-0.28906-6.6133-5.8906-11.652-12.516-11.461-6.625 0.28906-11.746 5.8906-11.461 12.504 0.046876 1.0547 4.4766 106.61-8.4844 159.91-7.6328 31.391-25.586 59.797-39.996 82.633-10.883 17.242-18.758 29.688-20.125 40.078-0.23828 1.8008-21.77 183.53-15.266 194.54 2.3984 4.0664 6.3945 6.5508 22.945 16.441 8.8438 5.2812 25.141 15.012 33.66 21.574-4.6562 1.5977-12.133 3.2266-22.309 3-9.0117 0.21484-20.555 3.2148-21.086 19.512-0.011718 0.32422 0 0.67187-0.011718 1.0078-0.16797 0.058594-0.33594 0.13281-0.55078 0.20312-15.984 5.1602-116.39-1.3906-132.21-10.598-9.2266-21.672-34.559-88.488-25.871-150.27 3.2539-23.027 6.8398-41.941 10.008-58.621 6.3828-33.574 11.004-57.84 6.4922-84.602-0.83984-4.9688-2.0273-11.316-3.4219-18.758-8.543-45.602-26.305-140.48-12.406-200.48 16.5-71.375 73.223-155.84 136.05-167.83 41.566-7.9453 92.242 4.1172 132.97 13.801 26.352 6.2656 47.102 11.184 60.926 9.6133 29.219-3.3828 69.238-8.0039 114.2-26.363 40.379-16.5 80.82-46.367 86.531-63.938 2.9766-9.1797 10.402-23.652 21.539-34.262 3.8984-3.7305 7.668-7.7539 11.449-11.797 8.2305-8.8203 15.996-17.148 25.105-21.961 12.758-6.7422 32.676-24.742 53.676-44.172 3.7422-3.4688 7.0312-6.5039 9.5898-8.7969 2.0039-1.8008 4.3555-4.0547 7.0078-6.6016 13.355-12.84 35.316-34.379 54.973-33.602 23.16 0.83984 54.289 30.66 62.219 41.855 2.8203 3.9961 4.6328 7.9688 6.3828 11.82 3.3125 7.3086 7.4531 16.402 18.312 18.938 5.0391 1.2461 29.914 16.066 39.238 32.746 3.2148 5.7461 7.2617 11.797 11.184 17.664 4.9805 7.4648 14.113 21.098 14.531 26.207-9.9492 14.184-21.047 44.664-4.6562 58.176 2.9297 2.3984 6.2656 4.3672 9.793 6.457 9.4219 5.5664 18.312 10.824 21.168 23.785 3.7227 16.934 3.1953 32.547-1.293 38.871z"/>
  <path d="m915.39 259.13c-1.3672-0.68359-13.727-6.5391-25.441-0.57422-5.375 2.7461-12.266 8.9023-14.531 22.668-2.2305 13.68 2.3984 21.574 6.6836 25.801 6.2656 6.1797 14.531 7.3555 19.895 7.3555 2.7969 0 4.8125-0.3125 5.3516-0.40625 6.5273-1.1523 10.883-7.3789 9.7305-13.906-1.1523-6.5156-7.4023-10.871-13.895-9.7305-0.81641 0.13281-3.4922 0.070312-4.0781-0.20313 0-0.011718-0.60156-1.3086 0.011719-5.0273 0.5625-3.4922 1.5234-4.9688 1.7148-5.1484 0.67187-0.25391 2.6758 0.12109 3.9492 0.70703 5.8906 2.8672 13.02 0.46875 15.961-5.4102 2.9766-5.9492 0.57812-13.16-5.3516-16.125z"/>
 </g>
</svg>
