<svg height='100px' width='100px'  fill="#000000" xmlns:x="http://ns.adobe.com/Extensibility/1.0/" xmlns:i="http://ns.adobe.com/AdobeIllustrator/10.0/" xmlns:graph="http://ns.adobe.com/Graphs/1.0/" xmlns="http://www.w3.org/2000/svg" xmlns:xlink="http://www.w3.org/1999/xlink" version="1.1" x="0px" y="0px" viewBox="0 0 100 100" style="enable-background:new 0 0 100 100;" xml:space="preserve"><g><g i:extraneous="self"><g><path d="M59.5,10.8c-0.4-0.7-0.8-1.2-1.5-2c-0.5-0.6-1.3-0.8-2.1-0.7c-1.2,0.3-1.9,1.4-1.7,2.6l0.2,0.9c0.1,0.3,0.3,0.8,0.4,1.3     c0.1,0.5,0.2,0.9,0.3,1.4c0.1,0.9,0.1,1.8-0.1,2.7c-0.2,0.9-0.4,1.7-0.9,2.6l-1.6,3.4c-0.5,1.2-1,2.5-1.4,4     c-0.3,1.5-0.5,3.1-0.4,4.6c0.2,3.2,1.7,6,3.5,8.1c0.6,0.7,1.6,1,2.5,0.7c1.2-0.4,1.8-1.7,1.4-3l0-0.1c-0.8-2.2-1.3-4.1-1.1-5.9     c0.1-1.8,0.7-3.6,1.7-5.8c0.4-1.1,1-2.2,1.4-3.4c0.5-1.3,1-3,1-4.6c0.1-1.6-0.2-3.2-0.7-4.7C60.2,12.2,59.9,11.5,59.5,10.8z"></path><path d="M75,10.8c-0.4-0.7-0.8-1.2-1.5-2C73,8.3,72.2,8,71.4,8.2c-1.2,0.3-1.9,1.4-1.7,2.6l0.2,0.9c0.1,0.3,0.3,0.8,0.4,1.3     c0.1,0.5,0.2,0.9,0.3,1.4c0.1,0.9,0.1,1.8-0.1,2.7c-0.2,0.9-0.4,1.7-0.9,2.6L68,23.1c-0.5,1.2-1,2.5-1.4,4     c-0.3,1.5-0.5,3-0.4,4.6c0.2,3.2,1.7,6,3.5,8.1c0.6,0.7,1.6,1,2.5,0.7c1.2-0.4,1.8-1.7,1.4-3l0-0.1c-0.8-2.2-1.3-4.1-1.1-5.9     c0.1-1.8,0.7-3.6,1.7-5.8c0.4-1.1,1-2.2,1.4-3.4c0.5-1.3,1-3,1-4.6c0.1-1.6-0.2-3.2-0.7-4.7C75.7,12.2,75.4,11.5,75,10.8z"></path><path d="M91.5,13c-0.3-0.7-0.6-1.4-1-2.1c-0.4-0.7-0.8-1.2-1.5-2c-0.5-0.6-1.3-0.8-2.1-0.7c-1.2,0.3-1.9,1.4-1.7,2.6l0.2,0.9     c0.1,0.3,0.3,0.8,0.4,1.3c0.1,0.5,0.2,0.9,0.3,1.4c0.1,0.9,0.1,1.8-0.1,2.7c-0.2,0.9-0.4,1.7-0.9,2.6l-1.6,3.4     c-0.5,1.2-1,2.5-1.4,4c-0.3,1.5-0.5,3.1-0.4,4.6c0.2,3.2,1.7,6,3.5,8.1c0.6,0.7,1.6,1,2.5,0.7c1.2-0.4,1.8-1.7,1.4-3l0-0.1     c-0.8-2.2-1.3-4.1-1.1-5.9c0.1-1.8,0.7-3.6,1.7-5.8c0.4-1.1,1-2.2,1.4-3.4c0.5-1.3,1-3,1-4.6C92.2,16.1,92,14.4,91.5,13z"></path><path d="M41.3,61.7V16.2c0-6.4-4.3-12.1-10.5-13.4c-8.6-1.7-16.1,4.8-16.1,13v45.9c0,0.4-0.2,0.8-0.5,1     c-5.8,5.5-8.1,14.1-4.8,22.3c2.3,5.7,7.3,10.2,13.3,11.7c13.4,3.4,25.4-6.6,25.4-19.4c0-5.6-2.3-10.9-6.3-14.6     C41.4,62.5,41.3,62.1,41.3,61.7z M23.6,92c-3.9-1.1-7.3-3.9-9.1-7.5c-3.7-7.3-1.2-15.2,4.5-19.3c0.4-0.3,0.6-0.7,0.6-1.1V16.3     c0-4.4,3.2-8.5,7.6-8.9c5-0.5,9.3,3.5,9.3,8.4V64c0,0.5,0.2,0.9,0.6,1.1c3.8,2.8,6.2,7.4,6.2,12.2C43.2,87.2,33.8,94.9,23.6,92z"></path><path d="M31.5,67.7V25.4c0-2-1.6-3.6-3.6-3.6c-2,0-3.6,1.6-3.6,3.6v42.3c-4,1.5-6.8,5.3-6.8,9.7c0,5.7,4.6,10.4,10.4,10.4     c5.7,0,10.4-4.6,10.4-10.4C38.3,72.9,35.5,69.1,31.5,67.7z"></path></g></g></g></svg>