<?xml version="1.0" encoding="UTF-8"?>
<svg width='100px' height='100px' version="1.1" viewBox="40 100 1120 1000" xmlns="http://www.w3.org/2000/svg">
 <g>
  <path d="m109.8 748.68c0.60156 8.1602 3.7188 36 9.1211 82.922-29.52 29.281-27.602 43.078-26.879 47.762 1.0781 7.4414 5.6406 13.68 12.359 17.16 10.922 5.5195 21.84 5.3984 29.879 3.9609 11.762 9.1211 24.719 11.039 34.922 4.5586 1.8008-1.1992 3.4805-2.3984 5.0391-3.6016 8.3984 4.5586 19.559 8.8789 30.48 7.3203 7.9219-1.0781 13.922-3.8398 18.238-7.4414 7.5586 0.71875 16.199 0 23.16-5.1602 6.4805-4.6797 10.32-12.238 10.32-20.762 0-13.199-9.1211-25.199-18-36.719-2.6406-3.4805-6.3594-8.3984-7.9219-11.16 0.48047-7.1992 0.23828-20.641-0.12109-44.16 0-5.6406-0.23828-12.238-0.35938-18.121 2.2812 1.1992 4.8008 2.5195 7.3203 3.8398-3.7188 14.762-3.1211 25.199 2.0391 32.879 9.1211 13.801 76.199 82.441 76.801 83.16 10.68 10.68 54.238 12.238 79.559 12.238 8.8789 0 15.48-0.23828 17.641-0.23828 21.84-0.71875 29.879-2.8789 35.398-9.2383 6.1211-6.9609 8.8789-15.121 8.1602-23.52-0.83984-9.2383-5.7617-17.641-14.879-24.84-9.7188-7.8008-24.238-10.199-38.281-12.602-3.9609-0.71875-9.4805-1.5586-12.48-2.2812-1.3203-3-3.1211-7.6797-5.0391-13.559 50.641 3.7188 109.08-2.0391 172.08-27.719 17.281 44.641 34.32 91.68 35.398 99.84 0 1.5586-1.5586 5.7617-2.6406 8.6406-3.8398 10.32-11.762 31.68 7.8008 48.48 16.078 13.801 37.078 11.52 49.559 8.3984 8.1602 5.5195 19.559 11.398 31.078 11.398 3.1211 0 6.2383-0.48047 9.3594-1.4414 2.1602-0.71875 5.0391-1.9219 7.8008-4.0781 15.602 4.4414 39.602 7.6797 54.84-7.5586 4.4414-4.4414 7.5586-9.1211 9.4805-13.801 12.719 2.5195 22.801 1.0781 29.762-4.5586 1.6797-1.3203 4.1992-3.8398 6.1211-7.5586 14.762-0.48047 31.078-1.6797 42.359-5.6406 10.32-3.6016 17.039-11.039 18.602-20.641 2.1602-13.32-6.3594-27.602-25.441-42.238-11.398-8.7617-28.441-15.84-40.922-21.121-1.1992-0.48047-2.3984-0.96094-3.7188-1.5586 0.71875-19.801 3.9609-62.762 7.1992-73.078 4.9219-7.1992 11.039-21.602 16.078-35.16 6.1211-1.9219 12.48-4.5586 18.719-8.3984 1.0781 5.3984 2.5195 10.801 4.3203 16.078 12.84 38.16 47.641 84.84 140.76 90.359 74.16 4.4414 124.32-6.7188 153.24-34.078 27.48-25.922 27.359-58.32 27.238-75.719v-5.1602c0.60156-20.398-1.4414-52.801-16.559-74.879-0.71875-1.3203-1.6797-2.5195-2.7617-3.6016-3.9609-4.9219-8.3984-9.4805-14.039-12.84-15.359-9-46.32-57.359-47.16-69 1.5586-9.3594 1.6797-19.559 1.8008-29.52 0-9.9609 0.12109-20.16 1.8008-28.922 2.1602-11.879 5.2812-29.039-2.8789-44.281 15.238-34.078 10.922-78 10.078-84.719-1.0781-9-8.7617-15.84-17.879-15.84-28.32 0-51.238 13.441-68.52 28.68-42.48-41.762-102.96-94.68-173.52-113.64-55.68-14.879-115.32-18.121-172.44-16.078-2.6406-0.48047-5.1602-0.35938-7.6797 0.35938-51.602 2.1602-100.8 8.2812-142.8 13.559l-13.559 1.6797c-32.52 4.0781-68.039 2.0391-102.36 0.12109-59.398-3.3594-120.72-6.7188-174.48 19.559-86.762 42.602-140.88 116.76-160.8 167.4-23.398 59.039 18.602 225.72 32.879 251.4 13.078 23.52 23.641 48.359 25.32 54.238zm-24.719-292.32c17.641-44.641 65.762-110.28 143.16-148.32 45.238-22.199 99.238-19.199 156.6-15.961 35.879 2.0391 72.961 4.0781 108.84-0.35938l13.559-1.6797c30.602-3.8398 65.039-8.1602 101.4-11.039-29.16 39.719-66.961 110.04-48.238 190.68 23.16 99.84 57.48 124.44 61.32 126.84 3.1211 2.0391 6.4805 2.8789 9.9609 2.8789 5.8789 0 11.762-2.8789 15.121-8.1602 5.3984-8.3984 3.2383-19.32-5.1602-24.719-0.23828-0.23828-26.762-20.762-46.32-105.12-20.398-87.84 43.32-164.88 62.16-185.4 53.281-1.6797 108.36 1.4414 158.88 15 74.879 20.039 140.64 87 180 126.96 20.16 20.52 30.238 30.48 39.238 34.801 9.9609 4.6797 11.039 6.4805 7.3203 26.762-2.1602 11.879-2.2812 24.238-2.3984 35.281 0 8.8789-0.12109 17.16-1.1992 23.641-3 17.039 13.559 48.84 32.16 73.68-5.1602 1.9219-9.3594 4.3203-12.359 6.7188-7.8008 6-9.1211 16.922-3.3594 24.719 5.7617 7.9219 16.922 9.6016 24.961 3.9609 2.1602-1.5586 13.68-8.0391 29.398 4.1992 6.2383 10.441 9.8398 29.641 9.2383 52.199v6.3594c0 14.398 0.12109 34.199-15.961 49.441-20.762 19.559-64.441 28.078-126.36 24.359-53.641-3.2383-88.922-22.078-104.88-56.039-8.1602-17.281-10.32-36.238-9.6016-52.801 0.12109-0.96094 0.23828-2.0391 0.12109-3 1.3203-20.641 6.7188-37.441 10.078-42.359 21.359-19.441 13.922-56.16 12.121-63.359-2.2812-9.6016-12-15.602-21.602-13.32s-15.602 12-13.441 21.602c2.6406 11.52 1.9219 25.68-1.4414 28.559-9.3594 8.0391-18.961 33.359-21.359 63.719-15.48 23.039-37.078 23.641-52.922 24-3.3594 0-6.6016 0.23828-9.6016 0.71875-57.238-25.68-69.238-88.922-36.238-193.08 7.0781-22.559 6.1211-42.48-3-59.16-12.961-23.762-37.078-30.961-39.84-31.68-9.6016-2.6406-19.441 3-22.078 12.602-2.6406 9.6016 3 19.441 12.602 22.078 0 0 12 3.8398 17.641 14.16 4.1992 7.8008 4.3203 18.238 0.35938 31.078-34.801 110.04-23.52 185.28 33 224.16-8.0391 4.6797-16.922 9.8398-25.078 14.641-6.3594 3.6016-9.8398 10.801-8.8789 18l16.32 122.64c0.96094 7.4414 6.4805 13.441 13.68 15.121l34.078 8.0391c0.60156 1.3203 1.3203 2.7617 2.1602 4.6797-3.4805-1.1992-6.9609-2.6406-10.199-4.1992-7.8008-3.7188-17.039-1.3203-22.199 5.6406-5.1602 6.9609-4.5586 16.559 1.1992 22.922 0 0.23828-0.48047 0.96094-1.5586 2.0391-3.2383 2.0391-17.16 0.23828-29.039-4.8008-4.9219-2.1602-10.441-1.9219-15.238 0.35938-2.6406 1.3203-4.9219 3.2383-6.6016 5.6406-3.6016-1.8008-8.2812-4.6797-11.879-7.6797-3.2383-2.6406-7.3203-4.0781-11.52-4.0781-2.2812 0-4.5586 0.48047-6.8398 1.3203-5.6406 2.2812-18 4.8008-22.922 1.3203 0-1.5586 1.5586-6.1211 2.7617-9.1211 2.2812-6.1211 4.9219-13.078 4.9219-21.121 0-13.68-21.719-72-41.281-121.92 12.121-18.121 32.398-42.121 48.602-46.441 15.961-4.1992 23.039-3.2383 24.961-2.8789 6.7188 4.9219 15.961 4.6797 22.441-0.96094 7.4414-6.4805 8.2812-17.879 1.6797-25.441-5.6406-6.3594-20.641-15.602-58.32-5.5195-33.238 8.8789-62.039 49.922-71.762 65.039-178.8 79.441-321.6-18.602-327.6-22.801-0.23828-0.12109-0.48047-0.23828-0.71875-0.48047-0.23828-0.12109-0.48047-0.35938-0.71875-0.48047-18.238-10.441-45.84-61.922-59.641-95.16-3.8398-9.2383-14.398-13.559-23.52-9.7188-9.2383 3.8398-13.559 14.281-9.7188 23.52 5.5195 13.199 31.199 72.961 61.078 101.76-1.6797 4.4414-1.5586 12.121-0.96094 42.238 0.23828 14.879 0.71875 37.199 0.23828 41.641-1.8008 12.359 6.1211 22.68 15.359 34.801 0.60156 0.83984 1.4414 1.8008 2.1602 2.7617-3.1211 0.48047-6.1211 1.6797-8.6406 3.7188-2.0391 1.5586-3.6016 3.6016-4.8008 5.8789-3.6016-0.83984-10.441-4.5586-15.238-8.5195-3.8398-3.2383-9-4.5586-13.922-3.9609-5.0391 0.60156-9.4805 3.4805-12.48 7.5586 0 0-0.83984 1.0781-2.1602 2.5195-0.71875-0.60156-1.3203-1.3203-1.8008-1.8008-3.4805-4.0781-8.5195-6.2383-13.68-6.2383 3.3594-3.7188 7.0781-7.4414 10.801-10.922 4.1992-3.9609 6.3594-9.6016 5.6406-15.238-3.7188-32.16-9.7188-85.199-9.9609-89.879 0-14.762-29.52-69-29.762-69.602-13.441-24.238-48.121-176.88-30.84-220.56z"/>
  <path d="m951.72 762.48c1.4414 0 2.8789 0 4.4414-0.12109 9.9609-0.60156 17.52-9.1211 16.801-19.078-0.60156-9.9609-9.2383-17.52-19.078-16.801-8.7617 0.60156-15.961-2.2812-21-8.2812-7.6797-9.1211-9.9609-24.48-6-41.281 2.1602-8.8789 7.6797-32.641 57.359-23.762 2.8789 0.48047 4.8008 0.60156 5.5195 0.60156 9.9609 0 18-8.0391 18-18 0-9.3594-7.0781-17.039-16.199-17.879l-1.0781-0.23828c-75-13.32-93.961 31.078-98.641 50.879-6.7188 28.199-1.8008 54.719 13.441 72.719 11.52 13.68 27.961 21.121 46.441 21.121z"/>
  <path d="m825.84 456.12c4.0781 0 8.1602-1.4414 11.52-4.1992 7.5586-6.3594 8.6406-17.762 2.1602-25.32-15.48-18.48-13.32-46.078-10.199-62.281 7.6797 1.5586 13.441 4.4414 17.16 8.8789 8.0391 9.4805 6 24.121 5.8789 24.719-1.6797 9.7188 4.8008 18.961 14.52 20.762 9.8398 1.6797 19.199-4.8008 20.879-14.52 0.60156-3.1211 5.0391-31.68-13.559-53.879-12.84-15.359-32.52-23.16-58.559-23.16-7.6797 0-14.52 4.8008-17.039 12-0.96094 2.7617-23.039 67.441 13.199 110.64 3.6016 4.1992 8.6406 6.4805 13.801 6.4805z"/>
 </g>
</svg>
