<svg height='100px' width='100px' version="1.1" viewBox="0 0 1200 1200" xmlns="http://www.w3.org/2000/svg">
 <g>
  <path d="m961.69 230.25c3.5273 3.5508 8.3086 5.5703 13.312 5.625 5.0117-0.019531 9.8047-2.0469 13.312-5.625 3.3984-3.5352 5.3398-8.2227 5.4375-13.125-0.007812-2.5117-0.51953-5-1.5-7.3125-0.91016-2.2383-2.2461-4.2773-3.9375-6-3.625-3.3438-8.3789-5.2031-13.312-5.2031s-9.6875 1.8594-13.312 5.2031c-1.6914 1.7227-3.0273 3.7617-3.9375 6-0.96484 2.3203-1.4727 4.8008-1.5 7.3125 0.097656 4.9023 2.0391 9.5898 5.4375 13.125z"/>
  <path d="m50.324 928.57c1.9102 0.64453 3.9102 0.97266 5.9258 0.97656 5.9023 0 11.457-2.7812 15-7.5l38.082-50.773v-0.003906c13.516-17.977 23.277-38.488 28.707-60.316l16.312-65.25 21.113 45.242 37.164 328.12h-0.003906c0.51562 4.5781 2.6992 8.8047 6.1328 11.879 3.4336 3.0703 7.8789 4.7695 12.484 4.7734h68.758c5.1836 0.007813 10.141-2.1289 13.695-5.9023 3.5508-3.7773 5.3828-8.8555 5.0547-14.031l-18.227-291.54 18.227-18.188v48.488c-0.003906 1.3164 0.13672 2.6289 0.41406 3.918l56.25 262.5c0.89453 4.1992 3.207 7.9609 6.543 10.66 3.3359 2.6992 7.5 4.1719 11.793 4.1719h75c5.5117-0.003906 10.746-2.4297 14.305-6.6367 3.5625-4.207 5.0938-9.7695 4.1836-15.207l-36.637-219.81 64.273-160.69 141.38 24.375v359.21c0 4.9727 1.9766 9.7422 5.4922 13.258 3.5156 3.5156 8.2852 5.4922 13.258 5.4922h62.492c4.7148 0.015625 9.2656-1.7461 12.738-4.9297 3.4766-3.1875 5.6211-7.5664 6.0117-12.266l30.375-364.5 5.1367-2.5703 33.246 367.2c0.42188 4.6758 2.582 9.0195 6.0547 12.18 3.4727 3.1602 8 4.9023 12.695 4.8828h56.25c5.0938 0.003907 9.9727-2.0664 13.508-5.7344 3.5391-3.668 5.4297-8.6172 5.2422-13.711l-16.352-441.23v0.003906c22.785-30.246 35.105-67.082 35.102-104.95v-124.99l40.875-118.12 37.762 26.25c15.223 10.648 33.992 14.949 52.332 11.996 18.34-2.9531 34.809-12.934 45.918-27.82l25.613-34.199c2.5586-3.4141 3.8789-7.5977 3.7383-11.863s-1.7305-8.3555-4.5078-11.594l-96.957-113.12c7.9609-6.8945 14.238-15.512 18.359-25.203l25.352-59.137h-0.003906c1.9922-4.6484 2.0234-9.9062 0.082031-14.578s-5.6875-8.3633-10.387-10.23c-4.6992-1.8711-9.957-1.7617-14.574 0.30469l-150 67.051v-0.003906c-0.75 0.33594-1.4766 0.71484-2.1758 1.1445l-243.75 150c-1.8398 1.1328-3.4688 2.5703-4.8203 4.2578l-69.375 86.719h-247.86c-55.113 0.16406-108 21.777-147.45 60.262-44.637 9.0391-84.77 33.238-113.6 68.492-28.832 35.254-44.578 79.391-44.578 124.93v290.06c0.003906 3.9336 1.2422 7.7656 3.543 10.957 2.3047 3.1875 5.5508 5.5742 9.2812 6.8164zm363.51-43.574c-1.2773 3.1875-1.6484 6.6641-1.0703 10.051l33.75 203.18h-37.688l-52.574-245.66v-84l53.27-53.27 67.5 11.664zm447.04 213.3-33.148-364.78 12.789-6.3945c9.0039-4.6016 17.598-9.9648 25.688-16.031l14.344 387.21zm-260.87-693.75c5.6992-0.003906 11.086-2.5977 14.645-7.0508l53.719-67.125-11.852 71.082c-0.81641 4.9023 0.34375 9.9297 3.2305 13.977 2.8867 4.0469 7.2617 6.7812 12.164 7.6055 1.0273 0.16797 2.0703 0.25391 3.1133 0.26172 4.4336-0.007812 8.7227-1.5859 12.105-4.457 3.3789-2.8672 5.6367-6.8438 6.3633-11.219l18.75-112.5c0.097657-1.3008 0.050781-2.6094-0.13281-3.8984l31.648-19.461-12.242 73.445v-0.003907c-0.81641 4.9023 0.34375 9.9297 3.2305 13.977 2.8867 4.0469 7.2617 6.7812 12.164 7.6055 1.0273 0.16797 2.0703 0.25391 3.1133 0.26172 4.4336-0.007812 8.7227-1.5859 12.105-4.457 3.3789-2.8672 5.6367-6.8438 6.3633-11.219l17.625-105.68 34.238-21.094-13.836 83.102h-0.003906c-0.81641 4.9023 0.34375 9.9297 3.2305 13.977 2.8867 4.0469 7.2617 6.7812 12.164 7.6055 1.0273 0.16797 2.0703 0.25391 3.1133 0.26172 4.4336-0.007812 8.7227-1.5859 12.105-4.457 3.3789-2.8672 5.6367-6.8438 6.3633-11.219l18.75-112.5c0.054688-0.83203 0.054688-1.6641 0-2.4922l13.914-8.5508-13.312 79.875h-0.003906c-0.81641 4.9023 0.34375 9.9297 3.2305 13.977 2.8867 4.0469 7.2617 6.7812 12.164 7.6055 1.0312 0.16797 2.0703 0.25391 3.1133 0.26172 4.4336-0.007812 8.7227-1.5859 12.105-4.457 3.3828-2.8672 5.6367-6.8438 6.3633-11.219l18.75-112.11 9.0938-5.625 105.11-46.988-6.4688 15c-3.5898 8.3203-10.477 14.77-19.012 17.812-5.8281 2.0742-10.258 6.8906-11.84 12.867-1.582 5.9805-0.11328 12.355 3.9258 17.039l101.55 118.48-16.539 22.145c-5.3047 7.0977-13.168 11.852-21.918 13.25-8.75 1.4023-17.699-0.66016-24.957-5.75l-58.125-40.352c-4.8203-3.3438-10.926-4.2383-16.504-2.4219-5.5742 1.8203-9.9805 6.1445-11.902 11.688l-50.008 144.49 0.003906-0.003906c-0.68359 1.9727-1.0312 4.0469-1.0312 6.1328v128.16c0.085938 25.637-7.0117 50.789-20.492 72.598-13.477 21.809-32.797 39.406-55.766 50.797l-63.375 31.688c-5.8594 2.9258-9.7695 8.6953-10.312 15.223l-29.738 357.81h-26.512v-356.25c0.003906-4.4219-1.5586-8.7031-4.4062-12.086-2.8477-3.3828-6.7969-5.6523-11.156-6.4023l-271.88-46.875c-6.0039-1.0312-12.137 0.91797-16.445 5.2305l-121.88 121.88c-3.8008 3.8008-5.7891 9.0547-5.4531 14.418l17.512 280.09-32.043 0.003906-35.625-314.55c-0.22266-2.0195-0.77344-3.9883-1.6328-5.832l-25.633-54.973c-10.738-23.105-16.324-48.27-16.367-73.746v-70.273c0-46.246 18.371-90.602 51.074-123.3 32.699-32.703 77.055-51.074 123.3-51.074zm-525 216.19c0-56.895 30.25-109.5 79.426-138.11-15.277 29.801-23.223 62.812-23.176 96.301v70.273c0.085938 9.5781 0.81641 19.137 2.1953 28.613-0.66016 1.0859-1.207 2.2344-1.6328 3.4297l-30.168 120.62c-4.2148 16.965-11.805 32.906-22.312 46.875l-4.332 5.8125z"/>
 </g>
</svg>
