<svg height='100px' width='100px' version="1.1" viewBox="0 0 1200 1200" xmlns="http://www.w3.org/2000/svg">
 <g>
  <path d="m843.75 600v59.625c-34.145 5.7383-65.645 19.086-92.738 38.363l-42.133-42.133-53.023 53.023 42.133 42.133c-19.273 27.074-32.625 58.574-38.363 92.738h-59.625v75h59.625c5.7383 34.145 19.086 65.645 38.363 92.738l-42.133 42.133 53.023 53.023 42.133-42.133c27.094 19.273 58.574 32.625 92.719 38.363v59.625h75v-59.625c34.145-5.7383 65.645-19.086 92.719-38.363l42.133 42.133 53.023-53.023-42.133-42.133c19.273-27.074 32.625-58.574 38.363-92.738h59.664v-75h-59.625c-5.7383-34.145-19.086-65.645-38.363-92.738l42.133-42.133-53.023-53.023-42.133 42.133c-27.074-19.273-58.574-32.625-92.738-38.363v-59.625zm187.5 281.25c0 82.836-67.164 150-150 150s-150-67.164-150-150 67.164-150 150-150 150 67.164 150 150z"/>
  <path d="m150 93.75c0-10.332 8.418-18.75 18.75-18.75h131.25c10.332 0 18.75 8.418 18.75 18.75 0 31.012 25.238 56.25 56.25 56.25h243.75v-37.5h-243.75c-10.332 0-18.75-8.418-18.75-18.75 0-31.012-25.238-56.25-56.25-56.25h-131.25c-31.012 0-56.25 25.238-56.25 56.25v37.5h37.5z"/>
  <path d="m862.5 768.75v22.199c-21.77 7.7617-37.5 28.387-37.5 52.801 0 31.012 25.238 56.25 56.25 56.25 10.332 0 18.75 8.418 18.75 18.75s-8.418 18.75-18.75 18.75-18.75-8.418-18.75-18.75v-7.5h-37.5v7.5c0 24.414 15.73 45.039 37.5 52.801v22.199h37.5v-22.199c21.77-7.7617 37.5-28.387 37.5-52.801 0-31.012-25.238-56.25-56.25-56.25-10.332 0-18.75-8.418-18.75-18.75s8.418-18.75 18.75-18.75 18.75 8.418 18.75 18.75v7.5h37.5v-7.5c0-24.414-15.73-45.039-37.5-52.801v-22.199z"/>
  <path d="m656.25 112.5h37.5v37.5h-37.5z"/>
  <path d="m629.87 956.25h-29.867c-20.699 0-37.5-16.801-37.5-37.5v-75c0-20.699 16.801-37.5 37.5-37.5h29.867c5.1172-17.289 11.98-33.918 20.57-49.742l-21.094-21.094c-14.645-14.645-14.645-38.383 0-53.023l53.043-53.043c14.625-14.645 38.398-14.645 53.023 0l21.094 21.094c15.824-8.5859 32.438-15.449 49.742-20.57l0.003906-29.871c0-20.699 16.801-37.5 37.5-37.5h38.289l-0.78906-18.75v-131.25l-206.25 150v-150l-206.25 150v-150l-206.25 150v-281.25h-225v712.5h607.11c-5.7734-12.133-10.91-24.562-14.738-37.5zm-254.87-206.25h-75v-75h75zm112.5-75h75v75h-75z"/>
  <path d="m37.5 168.75h225v75h-225z"/>
 </g>
</svg>
