<?xml version="1.0" encoding="UTF-8"?>
<svg height='100px' width='100px' version="1.1" viewBox="0 0 1200 1200" xmlns="http://www.w3.org/2000/svg">
 <g>
  <path d="m917.16 434.88c-10.559-8.3984-23.281-11.398-35.641-8.5195-25.68 6.2383-42.359 36.238-37.199 66.961 5.1602 30.48 48.238 43.078 53.039 44.52l3 0.83984 2.5195-2.1602c4.0781-3.4805 39.719-35.16 34.559-65.641-2.3984-14.758-9.5977-27.598-20.277-36zm-19.68 86.281c-12.121-3.9609-37.199-15.238-39.84-30.961-3.7188-21.961 8.1602-43.441 26.52-47.879 2.1602-0.48047 4.4414-0.83984 6.6016-0.83984 6.6016 0 13.078 2.3984 18.84 6.8398 7.5586 6 12.719 15.238 14.52 25.801 2.7578 15.719-16.801 37.801-26.641 47.039z"/>
  <path d="m999.48 628.44c0-13.441-9.1211-24.359-20.281-24.359-11.281 0-20.281 10.922-20.281 24.359 0 13.441 9.1211 24.359 20.281 24.359 11.281 0 20.281-10.922 20.281-24.359z"/>
  <path d="m1135.2 702.48c0-3.3594-2.2812-6.1211-5.0391-6.1211h-48.961c-0.12109-1.4414-0.23828-2.7617-0.35938-4.1992-0.35938-3.2383-1.0781-6.1211-1.5586-9.2383l47.879-14.641c2.7617-0.83984 4.3203-4.1992 3.7188-7.4414-0.71875-3.2383-3.3594-5.1602-6.2383-4.4414l-47.398 14.52c-9.9609-49.559-30.48-83.16-47.039-103.2-7.3203-8.8789-32.879-37.441-70.078-53.16 9.7188-18.602 13.32-35.762 10.68-51.238-4.3203-25.32-16.68-47.281-34.801-61.68s-39.84-19.559-60.961-14.52c-43.922 10.559-72.48 62.039-63.719 114.6 1.6797 9.9609 6 19.441 12.961 28.32-35.281 3.6016-59.641-13.078-90-33.602-29.281-19.922-62.398-42.359-113.88-54.48-27.719-6.4805-100.56-17.762-180.36 18.121-47.16 21.238-77.398 50.16-91.32 65.641-15 16.68-43.078 47.762-59.398 100.56-14.879 48.121-13.922 92.398-9.4805 123.72-26.039-0.35938-61.68-6.9609-95.039-33.84-63.121-50.641-74.16-139.32-78.84-177.12-12.359-100.08 19.559-181.8 39.719-221.64 1.9219-3.8398 0.96094-8.8789-2.2812-11.16-3.2383-2.2812-7.3203-1.0781-9.3594 2.7617-21.121 41.641-54.602 127.32-41.52 232.44 4.9219 39.961 16.559 133.56 84.719 188.16 37.32 30 77.281 36.719 105.48 36.719h3.9609 793.31l0.83984-6.9609c0.96094-8.0391 1.4414-16.078 1.8008-24.121l42.121 12.84c0.48047 0.12109 0.83984 0.23828 1.1992 0.23828 2.2812 0 4.3203-1.8008 4.9219-4.5586 0.71875-3.2383-0.96094-6.6016-3.7188-7.4414l-44.398-13.559c0-4.8008-0.12109-9.6016-0.48047-14.281h47.762c2.875 0.003907 5.1523-2.7578 5.1523-5.9961zm-67.801-7.9219c0.12109 0.60156 0 1.1992 0.12109 1.8008h-32.398l30.961-9.4805c0.47656 2.5195 0.95703 5.043 1.3164 7.6797zm0.72266 55.562h-221.16c-8.2812-15-22.32-34.32-44.398-47.641-38.281-23.281-75.48-13.441-89.762-8.1602-3.6016 1.3203-5.5195 5.8789-4.4414 10.199 1.0781 4.3203 4.9219 6.7188 8.5195 5.2812 12.602-4.6797 45.719-13.441 79.559 7.1992 15.238 9.2383 26.16 21.719 33.719 33.238h-312.12c-8.3984-15-22.32-34.32-44.398-47.641-38.281-23.281-75.48-13.441-89.762-8.1602-3.6016 1.3203-5.5195 5.8789-4.4414 10.199 1.0781 4.3203 4.9219 6.7188 8.5195 5.2812 12.602-4.6797 45.719-13.441 79.559 7.1992 15.238 9.2383 26.16 21.719 33.719 33.238l-207.84 0.003906c-4.3203-29.398-5.7617-72 8.5195-118.08 15.238-49.199 41.762-78.602 55.922-94.32 13.199-14.641 42-42.121 86.879-62.281 78.602-35.398 152.28-22.32 173.04-17.398 49.32 11.641 81.48 33.359 109.8 52.68 33.84 23.039 63.121 42.84 107.88 34.199 1.9219-0.35938 3.7188-0.83984 5.5195-1.1992l14.879-3.6016-12.121-10.801c-10.922-9.7188-17.398-20.039-19.199-30.48-7.4414-43.801 16.441-86.641 53.039-95.52 17.641-4.1992 35.641 0 50.879 12.121 15.121 12 25.441 30.238 29.039 51.359 2.2812 13.199-2.2812 29.281-13.559 47.641l-5.7617 9.3594 9.3594 3.2383c38.879 13.441 65.762 43.441 72.961 52.32 15.359 18.602 34.441 49.68 43.559 95.879l-69.961 21.359c-1.5586 0.48047-2.7617 1.9219-3.3594 3.6016 0 0.12109-0.12109 0.23828-0.12109 0.35938s-0.12109 0.23828-0.12109 0.48047c0 0.12109 0 0.12109-0.12109 0.12109v0.12109c0 0.23828 0 0.60156-0.12109 0.83984 0 0.23828-0.12109 0.35938-0.12109 0.60156 0 0.12109 0.12109 0.23828 0.12109 0.48047 0 0.48047 0.12109 0.83984 0.23828 1.1992 0.12109 0.35938 0.12109 0.71875 0.35938 1.0781 0.12109 0.35938 0.35938 0.60156 0.48047 0.96094 0.23828 0.35937 0.35937 0.60156 0.60156 0.83984 0.23828 0.23828 0.48047 0.48047 0.71875 0.60156 0.35938 0.23828 0.60156 0.35938 0.96094 0.48047 0.12109 0 0.23828 0.12109 0.35937 0.23828l74.762 22.801c0.13281 5.8789 0.011719 12.121-0.58594 18.48zm-32.16-41.641h32.398c0.23828 3.3594 0.60156 6.7188 0.71875 10.078z"/>
 </g>
</svg>
