<svg height='100px' width='100px' version="1.1" viewBox="0 0 1200 1200" xmlns="http://www.w3.org/2000/svg">
 <g fill-rule="evenodd">
  <path d="m60.551 633.03h203.67v-198.16c0-82.57 126.61-82.57 126.61 0v198.16h198.16c82.57 0 82.57 126.61 0 126.61h-198.16v198.16c0 88.074-126.61 88.074-126.61 0v-198.16h-203.67c-82.57 0-82.57-126.61 0-126.61z"/>
  <path d="m611.01 440.37h198.16v-203.67c0-82.57 126.61-82.57 126.61 0v203.67h198.16c88.074 0 88.074 126.61 0 126.61h-198.16v198.16c0 82.57-126.61 82.57-126.61 0v-198.16h-198.16c-82.57 0-82.57-126.61 0-126.61z"/>
 </g>
</svg>
