<svg width='100px' height='100px' version="1.1" viewBox="0 0 1200 1200" xmlns="http://www.w3.org/2000/svg">
 <g>
  <path d="m345.6 985.2h432c73.199 0 132-58.801 132-132v-264c0-7.1992-4.8008-12-12-12-7.1992 0-12 4.8008-12 12v264c0 60-48 108-108 108h-432c-60 0-108-48-108-108v-432c0-60 48-108 108-108h264c7.1992 0 12-4.8008 12-12s-4.8008-12-12-12h-264c-73.199 0-132 58.801-132 132v432c0 73.199 58.797 132 132 132z"/>
  <path d="m974.4 458.4c7.1992 0 12-4.8008 12-12v-219.6c0-7.1992-4.8008-12-12-12h-220.8c-7.1992 0-12 4.8008-12 12s4.8008 12 12 12h190.8l-372 370.8c-4.8008 4.8008-4.8008 12 0 16.801 4.8008 4.8008 12 4.8008 16.801 0l372-370.8v190.8c1.1953 5.9961 5.9961 11.996 13.195 11.996z"/>
 </g>
</svg>
