<svg height='100px' width='100px'  fill="#000000" xmlns="http://www.w3.org/2000/svg" viewBox="0 0 80 80" x="0px" y="0px"><title>76_startup_sticky_notes</title><path d="M36.36,17.95l-2.08-11-26.53,5,2.08,11A53.49,53.49,0,0,0,14.57,37l.51,1,26.65-5-.89-1.78A50.44,50.44,0,0,1,36.36,17.95ZM16.76,34.64a50.5,50.5,0,0,1-4-12.26l-1.52-8.08,20.64-3.88,1.52,8.08A53.45,53.45,0,0,0,37.3,30.77Z"></path><path d="M38.14,58.17,39,47l-26.92-2-.84,11.19a53.48,53.48,0,0,0,.95,14.81L12.39,72l27,2L39,72.14A50.48,50.48,0,0,1,38.14,58.17ZM35.73,70.8,14.88,69.23a50.48,50.48,0,0,1-.68-12.87l.62-8.2,20.94,1.58-.62,8.2A53.45,53.45,0,0,0,35.73,70.8Z"></path><path d="M47.56,32a63.93,63.93,0,0,1-1.78,10.36l-2.14,8.27L70.58,53l2-7.78A66.89,66.89,0,0,0,74.46,34.4l.62-7.08L48.19,25Zm3,.26.36-4.09L71.83,30l-.36,4.09a63.9,63.9,0,0,1-1.78,10.36l-1.38,5.32L47.44,48l1.25-4.84A66.83,66.83,0,0,0,50.55,32.29Z"></path><path d="M20,20.63A1,1,0,0,0,21.12,19l-1.65-1.13L20.6,16.2a1,1,0,1,0-1.65-1.13l-1.13,1.65-1.65-1.13A1,1,0,0,0,15,17.25l1.65,1.13L15.56,20a1,1,0,0,0,1.65,1.13l1.13-1.65Z"></path><path d="M22.12,26.51l1.13-1.65a1,1,0,1,0-1.65-1.13l-1.13,1.65-1.65-1.13a1,1,0,0,0-1.13,1.65L19.33,27l-1.13,1.65a1,1,0,0,0,1.65,1.13L21,28.16l1.65,1.13a1,1,0,0,0,1.13-1.65Z"></path><path d="M31.1,58.42l-13-1a1,1,0,0,0-.15,2l13,1H31a1,1,0,0,0,.07-2Z"></path><path d="M18.28,55.45l11,.83h.08a1,1,0,0,0,.07-2l-11-.83a1,1,0,1,0-.15,2Z"></path><path d="M29.8,62.33l-11-.83a1,1,0,1,0-.15,2l11,.83h.08a1,1,0,0,0,.07-2Z"></path><path d="M56.86,39.24l-1.17,2.89a1,1,0,0,0,1.46,1.22l2.61-1.63,2.3,2.07a1,1,0,0,0,1.65-1l-.65-3.05,2.58-1.42a1,1,0,0,0-.39-1.87l-3-.26-.79-3.12a1,1,0,0,0-1.9-.13L58.4,35.89l-3.12-.27a1,1,0,0,0-.72,1.77ZM59,37.95a1,1,0,0,0,1-.62l.3-.75.21.83a1,1,0,0,0,.88.75l.42,0-.36.2a1,1,0,0,0-.5,1.08l.17.78-.58-.52a1,1,0,0,0-1.2-.1l-.64.4.29-.72a1,1,0,0,0-.3-1.15l-.32-.26Z"></path></svg>