<svg height='100px' width='100px' version="1.1" viewBox="0 0 1200 1200" xmlns="http://www.w3.org/2000/svg">
 <defs>
  <clipPath id="a">
   <path d="m280 222.14h655v755.71h-655z"/>
  </clipPath>
 </defs>
 <g clip-path="url(#a)">
  <path d="m669.04 222.15 163.64 163.64v58.133h-222.09v-163.64h-272.03v639.45h122.92c16.859 22.09 36.625 41.855 59.004 58.133h-240.05v-755.71zm27.297 279.9c131.41 0 237.93 106.52 237.93 237.9 0 131.41-106.53 237.91-237.93 237.91-131.38 0-237.9-106.5-237.9-237.91 0-131.38 106.52-237.9 237.9-237.9zm0 58.129c-99.113 0-179.77 80.629-179.77 179.77s80.66 179.77 179.77 179.77c99.145 0 179.8-80.629 179.8-179.77s-80.66-179.77-179.8-179.77zm0.14453 148.99c17.004 0 30.781 13.805 30.781 30.809 0 16.973-13.777 30.75-30.781 30.75-16.977 0-30.781-13.777-30.781-30.75 0-17.004 13.805-30.809 30.781-30.809zm90.633 0c16.973 0 30.781 13.805 30.781 30.809 0 16.973-13.809 30.75-30.781 30.75-17.004 0-30.781-13.777-30.781-30.75 0-17.004 13.777-30.809 30.781-30.809zm-181.24 0c17.004 0 30.781 13.805 30.781 30.809 0 16.973-13.777 30.75-30.781 30.75s-30.781-13.777-30.781-30.75c0-17.004 13.777-30.809 30.781-30.809zm62.812-404.77v81.387h81.707z" fill-rule="evenodd"/>
 </g>
</svg>
