<svg width='100px' height='100px' version="1.1" viewBox="0 0 1200 1200" xmlns="http://www.w3.org/2000/svg">
 <path d="m274.5 285.88c-5.0273 6.6367-15.145-1.0195-10.105-7.668 3.707-4.8828 7.2852-10.391 10.645-16.285-12.602 5.9648-25.777 8.1016-38.988 11.508-108.97 28.055-154.33 113.3-173.88 217.2-4.7773 25.367 7.0547 16.922 16.367 3.9258 4.8711-6.8047 15.227 0.61328 10.355 7.4297-3.8281 5.3281-8.1367 10.379-13.691 13.98 2.1367 53.113 60.395 59.184 101.93 59.004 54.348-0.22656 111.36-16.199 158.32-43.008 7.2617-4.1289 13.535 6.9258 6.2656 11.039-48.984 27.984-107.91 44.34-164.4 44.664-5.0625 117.37 21.938 196.14 115.59 270.45 45.109 35.785 60.086 85.992 60.48 129.82 0.17969 19.164-2.4492 37.129-6.5508 52.129-3.6367 13.246-14.711 45.047-32.148 45.203-29.258 0.27734-45.516 10.488-52.57 22.871-4.6211 8.1133-5.7109 18.191-2.4375 26.988 1.9062 5.1016 5.1719 9.3359 9.3945 11.773 1.0664-33.145 39.023-42.227 65.641-45.805 21.984-3.3945 37.801-31.691 46.906-62.293 6.5898-22.117 11.23-49.285 8.293-72.707-3.8867-30.949-18.168-62.543-43.031-81.781-6.6016-5.1016 1.1641-15.156 7.7773-10.055 27.422 21.215 43.535 55.836 47.844 90.18 4.6562 37.105-8.207 96.457-31.945 127.07-4.7539 6.1211-7.5 6.9961 2.7461 4.2461 8.0742-2.1484 11.363 10.141 3.2773 12.301-7.0078 1.8711-15.215 2.7852-25.477 3.9258-22.188 2.5664-69.312 6.4062-69.312 36.348 0 33.445 44.93 32.016 68.473 31.414 43.223-1.043 78.602-1.9062 96.926-46.188 5.7344-13.812 10.199-28.188 15.898-42.121 6.9609-17.016 14.449-32.004 24.266-49.117 42.457-73.98 71.258-168.77 10.164-241.05-5.3984-6.3828 4.3203-14.578 9.707-8.207 45.828 54.215 45.707 121.86 23.426 186.12 10.957 20.113 42.203 42.121 62.219 54.254-40.344-62.09-24.91-130.61 16.008-187.99 4.8359-6.8047 15.18 0.5625 10.344 7.3672-41.578 58.32-52.5 123.46-11.062 180.43 20.988 28.848 51.527 50.543 82.68 66.973 18.961 0.13281 51.805-0.046875 64.02-17.352 4.8008-6.8281 15.215 0.48047 10.402 7.3203-6.3242 8.9531-15.707 14.977-29.41 18.562-12.73 3.3242-29.363 4.5352-51.086 4.0781-38.629-0.81641-123.8-3.2148-149.24 29.723-4.2344 5.4844-4.3555 17.062-1.5234 23.449 2.7969 6.3359 8.2695 9.6953 14.809 11.305-7.0781-17.723 7.4648-35.316 24.07-40.68 7.957-2.5547 11.832 9.5391 3.8867 12.086-8.5195 2.7617-18.277 11.137-16.906 21.035 2.0039 14.484 26.941 17.102 36.684 17.426 34.812 1.1875 67.766-10.992 102.28-13.922 37.57-3.1797 60.625-2.375 83.27-1.5859 35.664 1.2344 74.664 4.0195 102.82-22.309 32.773-30.695 38.148-92.004 39.254-134.21 0.19141-8.3398 12.887-8.0625 12.695 0.30078-1.1289 42.926-6.5508 99.707-34.945 134.29 35.699 3.1797 90.227-2.5664 106.43-40.32 2.8672-6.7695 13.094-3.9102 12.156 3.2891-0.45703 6.8516 8.7227 14.711 21.898 19.727 19.859 7.5469 43.441 6.3125 61.262-5.7969 23.426-15.926 40.535-52.234 33.215-123.04-2.3516-22.766-15.973-41.867-39.562-44.605-17.125-1.9922-34.645 6.1328-40.234 23.316-4.1289 13.895-7.6328 27.984-7.8711 43.066-0.085938 8.3281-12.781 8.1953-12.684-0.15625 0.45703-29.652 12.215-54.254 18.648-82.246 27.336-118.82-8.0273-231.28-93.469-317.26-105.94-106.57-264.71-152.64-411.46-164.54-80.27-6.5039-118.97-9.625-155.52-87.551-9.1445-19.5-17.398-43.188-18.73-64.824-4.3086 11.508-6.9844 23.34-6.9844 35.664 0 8.3867-12.742 8.3867-12.742 0 0-25.98 10.766-54.926 28.691-73.871 54.742-57.816 74.844-135.93 71.027-191.76-1.1641-17.102-4.5703-31.98-9.8867-43.355-10.656-22.812-27.406-29.426-49.285-15.277-59.594 38.52-70.668 130.7-88.656 195.16-6.7812 24.289-18.59 50.699-33.637 70.535zm244.96 873.34c-21.301 1.9922-46.477 0.63672-65.09-11.062-23.328 44.352-63.098 43.246-110.38 44.449-25.441 0.68359-64.621-1.9453-73.246-31.512-10.789-2.4727-18.961-10.812-22.969-21.539-4.6094-12.371-3.2383-26.258 3.2773-37.691 9.0352-15.875 28.871-28.969 63.527-29.281 1.4766-0.011719 3.6367-1.8242 6.1914-5.0391 5.0742-6.3945 10.066-17.195 13.801-30.828 3.8398-13.969 6.2773-30.758 6.1211-48.684-0.37109-40.57-14.172-87-55.715-119.96-96.781-76.777-125.53-159.24-120.37-280.6-45.035-1.5977-97.703-13.379-101.93-67.5-14.953-1.043-15.012-20.953-12.996-31.668 20.867-110.96 70.969-200.22 187.66-228.28 21.91-19.754 33.539-66.492 45.336-113.9 5.4258-21.781 10.883-43.703 17.531-63.719 17.195-51.73 41.844-89.039 91.727-74.148 28.066-16.969 52.262-6.793 65.641 21.84 6 12.828 9.8164 29.258 11.074 47.879 3.8164 55.824-15.098 132.78-66.422 192.37-7.0938 8.2305-10.512 9.7305-12.781 21.457-4.6328 23.879 8.2695 58.344 16.754 76.453 34.285 73.066 69.66 74.113 145.02 80.219 149.87 12.145 311.39 59.531 419.46 168.29 88.535 89.09 125.18 205.97 96.863 329.04-0.53906 2.3633-1.1289 4.7148-1.7383 7.043 18.469-10.621 42.395-8.6406 59.473 3.8633 12.48 9.1445 22.008 24.18 24.215 45.59 7.9062 76.465-11.879 116.57-38.734 134.83-21.266 14.449-49.152 16.223-72.898 7.1875-10.871-4.1406-19.727-10.355-24.949-17.375-25.355 35.039-83.016 39.996-122.24 34.285-31.285 26.723-70.547 24.457-108.98 23.113-22.141-0.76953-44.676-1.5469-81.816 1.5977-15.254 1.2969-29.027 4.0781-42.516 6.8047-27.227 5.4961-71.207 13.895-96.266-1.5586-21.73 0.33594-40.02-9.4062-41.629-31.957zm-60.023-22.066c16.703 11.328 41.398 11.953 60.695 9.9609 2.2305-10.934 9.0859-18.574 20.426-25.848 32.461-20.773 89.125-21.719 123.9-21.457-14.594-9-28.559-19.176-41.172-30.805-26.555 9.4336-55.152 9.3828-83.965 9.3359-19.441-0.035156-39-0.070312-57.695 2.9141-2.1719 4.5234-4.2969 9.2031-6.3828 14.137-6.793 16.066-9.3711 26.051-15.805 41.762zm28.68-68.855c16.922-1.9688 34.105-1.9453 51.203-1.9062 25.609 0.035157 51.059 0.085938 74.293-6.8516-15.59-8.125-28.402-14.449-46.355-27.602-15.48-11.34-31.727-24.277-42.156-37.906-4.9688 12.383-10.621 24.527-16.766 36.395-7.332 14.125-13.992 25.922-20.219 37.871zm-271.03-660.91c-1.8008 1.0195-9.9609 1.6445-15.938-1.6328-5.543-2.5664-9.8984-7.3438-12.023-15.695-1.1172-4.3906-6.0469-4.9688-6.8867 3.1445 0.45703 10.801 6.168 18.371 17.328 19.789 7.7656 0.99609 15.254-1.6914 17.52-5.6055zm522.19 140.5c-5.543-1.8828-2.6875-10.309 2.8555-8.4375 41.004 13.883 80.543 33.66 114.52 60.672 4.5703 3.6367-0.97266 10.598-5.543 6.9609-33.145-26.363-71.82-45.648-111.83-59.195zm-566.61-146.59c1.4023-39.012 39.266-46.836 64.609-30.648 4.8008 17.664-1.4023 35.82-16.105 44.617-8.8203 5.2812-19.008 6.4219-28.98 4.6328-4.3789-0.78125-8.0039-1.4883-13.895 1.3555-10.68 5.1484-14.363-0.89844-10.031-6.9961 3.0117-4.2227 4.2344-8.2578 4.4023-12.961zm85.535-146.51c10.98-3.4336 22.441-8.832 29.352-18.695 3.3594-8.2305 6.1914-16.441 8.3398-24.121 18.047-64.621 28.285-148.8 82.066-193.67-33.637-3.7422-52.078 27.059-65.711 68.074-6.4062 19.297-11.832 41.113-17.23 62.785-10.043 40.332-19.969 80.195-36.816 105.62zm75.613-6.4062c-1.5977 5.6289-10.176 3.2031-8.5664-2.4375 3.4336-12.047 6.6836-26.605 10.211-42.434 9.9102-44.52 22.078-99.035 45.77-133.98 27.66-40.801 51.406-34.871 54.492 14.617 2.7461 44.09-14.902 91.848-37.199 129.21-3 5.0156-10.621 0.44531-7.6328-4.5586 21.383-35.832 38.578-81.852 35.953-124.14-2.5312-40.598-15.625-43.523-38.27-10.152-22.727 33.527-34.691 87.145-44.438 130.91-3.6133 16.188-6.9375 31.055-10.32 42.961z"/>
</svg>
