<svg width='100px' height='100px' version="1.1" viewBox="0 0 100 100" xmlns="http://www.w3.org/2000/svg">
    <path d="m15.703 20.844c-0.62891-0.039062-1.1211-0.5625-1.1211-1.1953 0-0.63281 0.49219-1.1562 1.1211-1.1992h0.054687c0.62891 0.042969 1.1211 0.56641 1.1211 1.1992 0 0.63281-0.49219 1.1562-1.1211 1.1953zm6.9141 0c-0.32813 0.023438-0.65625-0.09375-0.89453-0.32031-0.24219-0.22656-0.38281-0.54297-0.38281-0.875 0-0.33203 0.14062-0.64844 0.38281-0.875 0.23828-0.22656 0.56641-0.34375 0.89453-0.32422h0.054687c0.32812-0.019531 0.65234 0.097656 0.89453 0.32422 0.24219 0.22656 0.38281 0.54297 0.38281 0.875 0 0.33203-0.14062 0.64844-0.38281 0.875-0.24219 0.22656-0.56641 0.34375-0.89453 0.32031zm6.9141 0c-0.33203 0.023438-0.65625-0.09375-0.89844-0.32031-0.24219-0.22656-0.37891-0.54297-0.37891-0.875 0-0.33203 0.13672-0.64844 0.37891-0.875 0.24219-0.22656 0.56641-0.34375 0.89844-0.32422h0.050781c0.33203-0.019531 0.65625 0.097656 0.89844 0.32422 0.24219 0.22656 0.37891 0.54297 0.37891 0.875 0 0.33203-0.13672 0.64844-0.37891 0.875-0.24219 0.22656-0.56641 0.34375-0.89844 0.32031zm13.785 0h0.003906c-0.33203 0.023438-0.65625-0.09375-0.89844-0.32031-0.24219-0.22656-0.37891-0.54297-0.37891-0.875 0-0.33203 0.13672-0.64844 0.37891-0.875 0.24219-0.22656 0.56641-0.34375 0.89844-0.32422h40.98c0.62891 0.042969 1.1211 0.56641 1.1211 1.1992 0 0.63281-0.49219 1.1562-1.1211 1.1953zm-0.60156 50.164h0.003906c-0.98828-0.98828-2.5352-1.1406-3.6953-0.36328-1.1602 0.77344-1.6133 2.2617-1.0781 3.5508 0.53516 1.293 1.9062 2.0234 3.2734 1.7539 1.3711-0.27344 2.3555-1.4766 2.3555-2.8711 0.003906-0.77734-0.30469-1.5234-0.85547-2.0703zm0-25h0.003906c0.98828-0.98828 1.1406-2.5352 0.36328-3.6953-0.77344-1.1602-2.2617-1.6133-3.5508-1.0781-1.293 0.53516-2.0234 1.9062-1.7539 3.2734 0.27344 1.3711 1.4766 2.3555 2.8711 2.3555 0.77734 0 1.5234-0.30859 2.0742-0.86328zm18.699 0h0.003907c0.98828-0.98828 1.1406-2.5352 0.36719-3.6953-0.77734-1.1602-2.2656-1.6133-3.5547-1.0781-1.293 0.53516-2.0234 1.9062-1.75 3.2734 0.26953 1.3711 1.4727 2.3555 2.8711 2.3555 0.77734 0 1.5195-0.3125 2.0664-0.86328zm-0.88281 3.1211h0.007812c0.054688 2.5586-0.92969 5.0312-2.7266 6.8555-1.8086 1.7148-4.3594 2.5312-7.3984 2.6836l-0.003906 0.003906c-2.0117 0.12109-3.957 0.77344-5.6367 1.8906-1.3555 0.84766-2.3867 2.1289-2.9258 3.6367v3.6914c2.6367 0.60938 4.3945 3.0977 4.0859 5.7852-0.30469 2.6836-2.5781 4.7148-5.2812 4.7148s-4.9766-2.0312-5.2852-4.7148c-0.30469-2.6875 1.4531-5.1758 4.0859-5.7852v-18.77c-2.6328-0.60938-4.3906-3.0977-4.0859-5.7812 0.30859-2.6875 2.582-4.7188 5.2852-4.7188s4.9766 2.0312 5.2812 4.7188c0.30859 2.6836-1.4492 5.1719-4.0859 5.7812v10.742c0.49219-0.47656 1.0234-0.90625 1.5898-1.2891 2.043-1.3555 4.4062-2.1484 6.8516-2.293 2.1367 0.042969 4.2188-0.67969 5.875-2.0312 1.3164-1.3789 2.0273-3.2227 1.9844-5.1289-2.6367-0.60938-4.3945-3.0977-4.0898-5.7852 0.30469-2.6836 2.5781-4.7148 5.2852-4.7148 2.7031 0 4.9766 2.0312 5.2812 4.7148 0.30859 2.6875-1.4531 5.1758-4.0898 5.7852zm32.074-19.938v56.953c-0.003907 0.84766-0.69141 1.5352-1.5391 1.5391h-82.133c-0.84766-0.007813-1.5273-0.69141-1.5352-1.5391v-56.953zm-85.207-2.3906h85.211v-12.945c-0.003906-0.84766-0.69141-1.5352-1.5391-1.5391h-82.137c-0.84766 0.007813-1.5273 0.69141-1.5352 1.5391z" fill-rule="evenodd"/>
</svg>