
<svg height='50px' width='50px'  fill="#000000" xmlns="http://www.w3.org/2000/svg" viewBox="0 0 80 80" x="0px" y="0px"><rect width="100%" height="100%" fill="#FFFFFF"></rect><g transform="translate(50 50) scale(0.69 0.69) rotate(0) translate(-50 -50)" style="fill:#1A1A1A"><svg fill="#1A1A1A" xmlns="http://www.w3.org/2000/svg" xmlns:xlink="http://www.w3.org/1999/xlink" version="1.1" x="0px" y="0px" viewBox="0 0 100 100" enable-background="new 0 0 100 100" xml:space="preserve"><g><line fill="#1A1A1A" x1="64.078" y1="19.158" x2="19.394" y2="19.158"></line><rect x="19.394" y="16.348" fill="#1A1A1A" width="44.685" height="5.619"></rect></g><g><line fill="#1A1A1A" x1="64.078" y1="34.191" x2="19.394" y2="34.191"></line><rect x="19.394" y="31.381" fill="#1A1A1A" width="44.685" height="5.619"></rect></g><g><line fill="#1A1A1A" x1="44.235" y1="48.132" x2="19.394" y2="48.132"></line><rect x="19.394" y="45.323" fill="#1A1A1A" width="24.841" height="5.619"></rect></g><g><line fill="#1A1A1A" x1="44.235" y1="64.172" x2="19.394" y2="64.172"></line><rect x="19.394" y="61.361" fill="#1A1A1A" width="24.841" height="5.619"></rect></g><g><line fill="#1A1A1A" x1="50.11" y1="78.006" x2="19.394" y2="78.006"></line><rect x="19.394" y="75.459" fill="#1A1A1A" width="30.716" height="5.094"></rect></g><g><path fill="#1A1A1A" d="M72.696,81.324v3.033c0,2.102-1.708,3.812-3.808,3.812H14.024c-2.102,0-3.811-1.711-3.811-3.812V11.91   c0-2.102,1.709-3.811,3.811-3.811h54.864c2.1,0,3.808,1.709,3.808,3.811v21.977c1.414,0.572,2.762,1.339,4,2.315V11.91   c0-4.307-3.503-7.811-7.808-7.811H14.024c-4.307,0-7.811,3.504-7.811,7.811v72.448c0,4.307,3.504,7.812,7.811,7.812h54.864   c4.305,0,7.808-3.506,7.808-7.812v-4.129l-0.664-0.699C74.98,80.275,73.857,80.861,72.696,81.324z"></path><path fill="#1A1A1A" d="M79.442,67.787c4.983-6.311,4.723-15.508-0.973-21.505c-0.458-0.482-0.943-0.92-1.443-1.334   c-0.106-0.088-0.223-0.156-0.33-0.241c-1.238-0.977-2.586-1.743-4-2.315c-0.871-0.353-1.759-0.655-2.67-0.852   c-5.141-1.107-10.725,0.254-14.818,4.14c-1.209,1.147-2.2,2.438-2.982,3.819c-0.511,0.901-0.925,1.843-1.251,2.81   c-0.312,0.918-0.532,1.857-0.677,2.809c-0.471,3.088-0.062,6.281,1.229,9.188c0.434,0.975,0.968,1.916,1.603,2.809   c0.448,0.633,0.928,1.248,1.477,1.826c0.33,0.348,0.676,0.672,1.028,0.984c4.021,3.561,9.401,4.812,14.393,3.73   c0.908-0.197,1.799-0.484,2.67-0.834c1.161-0.465,2.284-1.051,3.336-1.795l0.664,0.699l0.33,0.348l13.654,14.379l3.409-3.236   L79.442,67.787z M76.696,66.195c-0.308,0.371-0.628,0.734-0.986,1.074c-0.92,0.875-1.94,1.574-3.014,2.133   c-0.859,0.447-1.752,0.812-2.67,1.059c-2.822,0.762-5.84,0.576-8.557-0.537c-1.547-0.635-2.993-1.574-4.252-2.811   c-0.113-0.111-0.229-0.217-0.339-0.332c-0.728-0.766-1.332-1.602-1.842-2.477c-1.637-2.812-2.153-6.084-1.565-9.188   c0.182-0.959,0.457-1.902,0.849-2.809c0.429-0.99,0.995-1.93,1.673-2.81c0.416-0.54,0.864-1.063,1.374-1.548   c3.491-3.314,8.32-4.347,12.659-3.176c0.918,0.248,1.812,0.598,2.67,1.041c1.272,0.657,2.46,1.526,3.501,2.623   c0.178,0.188,0.335,0.387,0.499,0.582c0.108,0.129,0.227,0.253,0.33,0.385c3.775,4.819,3.733,11.61,0,16.391   C76.921,65.932,76.807,66.062,76.696,66.195z"></path></g></svg></g></svg>
