<svg height='100px' width='100px' version="1.1" viewBox="0 0 1200 1200" xmlns="http://www.w3.org/2000/svg">
 <g>
  <path d="m1198.8 413.76c-1.1992-8.6406-7.6797-15.602-16.32-17.039-8.6406-1.4414-17.039 2.8789-20.879 10.801-19.922 40.801-39.121 55.199-53.039 59.762 3.8398-19.68-1.1992-36.719-6.4805-45.84-3.3594-5.7617-9.1211-9.3594-15.84-9.8398-6.4805-0.48047-12.961 2.3984-16.801 7.6797-4.5586 6-9.8398 11.52-15.359 16.078-14.879 12.719-36.238 14.398-51.602 4.0781-2.3984-1.6797-3.6016-2.8789-4.3203-3.6016-5.5195-6-6.9609-12.961-9.8398-26.879-1.4414-6.9609-2.8789-14.641-5.5195-23.52-2.1602-7.4414-5.5195-14.16-10.078-20.16 2.1602-3.3594 4.0781-6.4805 5.7617-8.8789 6.9609-10.078 8.6406-21.84 4.5586-33.359-4.5586-13.199-15.359-22.559-29.039-24.961-14.16-2.6406-28.559 2.3984-37.68 13.441-4.8008 5.7617-8.8789 11.52-12.238 17.52-8.8789-1.6797-17.762-1.9219-26.16-0.48047 0 0-0.96094 0.23828-3.8398 0.23828-24.48 0.71875-49.441-5.5195-71.762-18.238-69.84-39.84-155.28-70.078-306.24-21.602-117.12 37.68-174.72 30.719-216.48 25.68-15.84-1.9219-29.52-3.6016-43.68-2.8789-56.641 3.3594-96 20.16-120.72 51.359-23.281 18.48-41.52 39.121-54 61.199-12.961 23.039-12.961 52.078-12.961 80.16 0.23828 34.078 0.23828 66.238-19.922 88.801-7.1992 8.1602-6.7188 20.641 1.4414 28.078 8.1602 7.4414 20.641 6.7188 27.84-1.4414 30.48-33.84 30.238-77.281 30-115.68 0-19.922-0.23828-38.879 4.3203-52.801-0.23828 6.4805 0 13.441 0 20.641 0 2.1602 0.23828 4.8008 0.48047 9.1211 1.9219 22.801 6.7188 83.281-12.48 135.36-20.16 55.441-38.16 81.359-50.16 98.641-11.039 15.84-20.398 29.52-16.078 49.441 1.1992 5.5195 2.3984 9.6016 3.6016 12.719-0.71875 2.3984-1.4414 5.7617-2.6406 10.32-3.6016 15.359-8.1602 29.762-11.281 39.121-4.5586 13.441-4.5586 28.32-0.23828 41.762l6.7188 20.879c5.2812 16.559 18.961 28.32 36 30.961 27.84 4.3203 55.68-0.23828 74.16-4.8008 8.8789-2.1602 16.32-7.9219 20.879-16.078 4.5586-7.9219 5.5195-17.762 2.6406-26.398-3.6016-11.039-0.23828-49.199 4.5586-65.762 0.48047-1.1992 5.0391-12.48 41.52-56.16 2.8789 12.961 3.8398 19.68 3.8398 22.078-0.71875 12-1.4414 53.52 25.199 84 13.199 15.121 13.68 20.879 14.398 27.84 0.23828 1.4414 0.23828 2.8789 0.48047 4.3203 2.6406 19.199 24.238 24 48.238 27.602 15.84 2.3984 31.441 3.6016 31.922 3.6016h1.4414 1.9219c42.238-4.0781 60.961-14.398 60.961-33.84 0-24.48-22.559-59.281-30.48-70.559-8.1602-24.48-6.9609-56.879-5.0391-82.078 72.48 22.32 148.8 23.762 222.24 16.801l-0.96094 20.641v0.23828c-1.1992 29.281-4.3203 54.961-9.6016 78.719-3.1211 13.441-3.8398 26.16-2.1602 37.68 3.6016 25.441 32.16 32.398 64.32 32.398 15.84 0 32.641-1.6797 47.762-3.6016 18.238-2.3984 31.68-20.16 29.762-39.84-1.6797-15.84-2.6406-27.121-3.1211-32.398 0.96094-5.7617 5.7617-25.441 10.078-42.719 1.9219-7.4414 3.6016-15.121 5.5195-22.801l52.078 72.238 8.6406 32.398c-0.48047 23.52 12.48 47.52 38.879 50.398 6.7188 0.71875 19.922 1.6797 34.559 1.6797 23.762 0 51.602-2.8789 65.039-14.641 6.2383-5.5195 9.8398-12.961 9.8398-20.879 0.48047-20.879-10.32-39.602-18.719-54.48-1.6797-3.1211-3.3594-6-4.8008-8.6406-5.0391-9.6016-7.4414-28.801-9.6016-47.039-1.6797-13.68-3.3594-27.84-6.4805-41.52-2.3984-10.801-9.6016-41.762-14.879-65.039 8.8789-13.68 15.359-29.52 19.441-47.52 50.398 31.441 114.48 42.961 135.84 46.078 14.641 2.1602 37.441 0.23828 70.078-6.2383 30.719-6 55.199-28.32 64.32-58.559l13.441-44.879c44.879-73.445 35.281-155.29 34.801-158.88zm-884.16 466.8c-16.559-1.1992-34.078-3.8398-43.441-6-1.9219-11.52-6.4805-24.48-23.281-43.68-17.039-19.441-15.84-49.441-15.359-55.199 0.23828-4.0781 0.96094-14.398-11.039-59.281 14.16-9.6016 32.16-12.719 48.719-7.6797 12.961 3.8398 24.238 7.6797 33.602 11.039-2.3984 30.48-6 75.84 7.1992 112.08 0.71875 1.6797 1.4414 3.3594 2.6406 4.8008 8.8789 12.48 18.238 28.801 22.32 40.078-5.7617 1.6836-13.922 3.125-21.359 3.8438zm347.76-88.078c-10.559 42.48-11.762 48-11.281 53.281 0.23828 4.5586 1.1992 15.602 2.8789 32.641-37.922 4.5586-56.641 2.1602-63.602 0-0.23828-5.7617 0.48047-12 1.9219-18.719 6-26.16 9.6016-54.238 10.801-86.16l1.4414-27.121c20.641-2.6406 40.801-6 60.48-9.3594 3.6016 1.4414 6.9609 2.6406 10.078 3.6016-3.8359 16.074-8.6367 34.797-12.719 51.836zm466.32-238.8c-0.96094 1.4414-1.6797 3.3594-2.3984 5.0391l-14.16 47.52c-4.8008 15.84-17.762 27.84-33.84 30.961-37.68 7.1992-52.32 6.4805-56.879 5.7617-46.801-6.9609-109.2-25.441-143.28-57.602-16.801-15.84-40.801-28.559-57.84-36.719-6.7188-22.078-7.1992-35.52-5.7617-38.879 4.8008-9.8398 0.48047-21.84-9.3594-26.641-9.8398-4.8008-21.602-0.48047-26.398 9.3594-6.9609 14.641-5.5195 37.441 3.8398 68.16 3.1211 10.32 10.559 18.961 20.16 23.762 7.1992 3.6016 26.879 13.199 41.281 24.238-2.1602 23.762-9.1211 43.199-20.16 58.078-3.3594 3.8398-7.9219 8.3984-12.48 12.719-5.0391 5.0391-10.32 10.32-14.641 15.121-7.1992 8.1602-6.7188 20.641 1.4414 28.078 3.8398 3.3594 8.3984 5.0391 13.199 5.0391 5.2812 0 10.801-2.1602 14.641-6.4805 0.48047-0.71875 1.1992-1.4414 1.9219-1.9219 3.6016 16.078 7.1992 31.441 8.8789 38.398 2.6406 11.52 4.0781 24.719 5.7617 37.441 2.8789 23.039 5.5195 44.641 13.922 60.961 1.6797 3.1211 3.3594 6.2383 5.2812 9.6016 5.0391 8.8789 10.801 18.961 12.719 27.359-12.238 3.3594-40.559 4.0781-65.039 1.6797-0.48047 0-0.96094-0.23828-0.96094-0.23828-1.1992-1.1992-2.6406-6.9609-2.3984-11.281 0.23828-2.1602 0-4.5586-0.71875-6.7188l-10.32-38.879c-0.71875-2.3984-1.6797-4.5586-3.1211-6.4805l-78.961-109.92c-11.762-18.961-24.961-44.398-31.922-58.078-2.1602-4.3203-3.8398-7.1992-4.5586-8.8789-5.0391-9.1211-5.7617-21.84-1.9219-34.32 3.6016-11.52 10.559-23.281 22.078-36.961 6.9609-8.3984 6-20.879-2.3984-28.078-8.3984-6.9609-20.879-6-27.84 2.3984-15.121 18-24.48 34.078-29.52 50.879-6.9609 23.039-5.0391 46.801 5.2812 65.52 0.71875 1.1992 2.1602 4.0781 4.0781 7.6797 2.3984 4.5586 5.2812 10.32 8.6406 16.801-104.88 18.238-224.64 30-328.8-12.238-9.8398-4.0781-22.32-8.3984-36.961-12.961 40.559-35.281 65.039-78.719 69.84-112.56 1.4414-10.801-6-20.879-16.801-22.32-10.801-1.4414-20.641 6-22.32 17.039-5.0391 36.48-44.16 91.199-106.8 120.72-0.48047 0.23828-0.96094 0.48047-1.4414 0.71875-9.6016 4.5586-18.238 10.801-25.922 18.48-0.48047 0.48047-0.96094 0.96094-1.4414 1.4414-1.1992 1.1992-2.1602 2.3984-3.3594 3.6016-64.32 74.398-68.641 89.281-70.559 95.762-4.8008 16.559-10.559 57.84-6 82.32-13.199 2.8789-33.359 5.5195-52.559 2.6406-2.1602-0.23828-3.8398-1.9219-4.5586-3.8398l-6.7188-20.879c-1.6797-5.5195-1.6797-11.281 0.23828-16.801 3.3594-10.078 8.1602-25.68 12.238-42.719 1.6797-6.7188 2.6406-10.559 3.3594-12.961 1.4414-4.8008 3.6016-12.48-2.3984-21.121-0.23828-0.71875-0.96094-2.6406-1.9219-6.7188-0.48047-2.3984 0.96094-5.2812 9.8398-18 12.48-17.762 33.121-47.52 54.961-107.28 22.078-60.238 16.801-127.2 14.641-152.4-0.23828-2.8789-0.48047-5.7617-0.48047-6.7188-0.96094-41.039 2.3984-60.961 14.398-83.52 17.281-22.078 47.52-34.078 92.16-36.719 10.801-0.71875 22.801 0.96094 36.719 2.6406 42.961 5.2812 108 13.199 233.28-27.359 136.56-43.922 212.88-17.281 274.8 18.238 28.801 16.32 60.719 24.48 92.398 23.52 3.6016 0 6.4805-0.23828 8.6406-0.71875 8.8789-1.4414 18 1.1992 24 3.6016 5.0391 1.9219 10.801 1.6797 15.602-0.48047 1.6797-0.71875 3.1211-1.6797 4.5586-2.8789-0.23828 6.4805 2.8789 12.961 8.6406 17.039 4.3203 2.8789 6.9609 6.7188 8.3984 11.762 2.1602 7.1992 3.3594 13.922 4.8008 20.398 3.1211 15.359 6.2383 30.961 19.199 45.359 3.1211 3.6016 7.1992 6.9609 12 10.078 24 16.078 54.961 17.52 80.879 5.0391-1.6797 3.8398-1.9219 8.1602-0.96094 12.48 1.4414 5.5195 5.0391 10.32 10.078 12.961 2.1602 1.1992 22.559 11.281 50.16 2.1602 12.48-4.0781 24.238-11.281 35.281-21.602-4.3125 22.078-12.473 46.797-27.355 70.316z"/>
  <path d="m954.72 473.28c-10.559-2.6406-35.039 6.9609-35.039 6.9609s17.52 19.68 28.078 22.32c10.559 2.6406 20.398-1.9219 22.32-10.078 2.1602-7.9258-4.7969-16.562-15.359-19.203z"/>
 </g>
</svg>
