<svg height='100px' width='100px' version="1.1" viewBox="0 0 1200 1200" xmlns="http://www.w3.org/2000/svg">
 <path d="m164.84 968.96c3.457 8.6289 5.4375 16.68 7.1875 23.773 3.5742 14.555 7.2852 29.617 23.746 32.352 5.2578 0.875 13.297 1.1641 21.59 1.1641 14.41 0 29.578-0.875 32.102-1.0195 6.3359-0.38281 11.281-5.6289 11.281-11.977 0-2.5938-0.83984-12.348-11.688-29.039-9.2539-14.242-25.273-53.102-32.363-75.793-7.8711-25.199-14.531-81.277-11.125-93.758 2.2188-8.1367 12.961-20.23 21.109-27.887 0.79297 0.023438 1.5234 0.17969 2.3398 0.17969 14.004 0 26.773-4.7891 37.234-13.922 22.152-0.60156 47.605-9.7695 59.52-33.348 11.184 0.10938 21.406-2.2695 28.871-7.1172 7.4883 9.3359 19.824 19.332 38.363 19.332 3.0977 0 6.2656-0.30078 9.4805-0.88672 7.2461 7.8945 21.301 19.609 40.98 19.609 7.7539 0 15.574-1.8359 23.293-5.4727 8.125 4.043 23.09 10.078 40.234 10.078 11.867 0 22.871-2.8203 32.797-8.3984 5.7109 1.8945 14.688 4.1875 24.672 4.1875 12.324 0 23.113-3.5625 31.621-10.391 5.0742 1.3555 12.238 2.7344 20.438 2.7344 15.758 0 29.734-5.1133 40.871-14.855 4.7383 1.1406 11.293 2.2578 18.66 2.2578 12.395 0 23.242-3.2031 32.137-9.3008 3.0703 24.648 8.7969 67.824 12.816 81.035 4.0938 13.43 4.0781 18.191 4.0078 44.617l-0.023437 12.637c0 13.188-1.1992 27.371-2.3398 41.074-2.7227 32.34-4.3555 51.863 7.043 60.672 6.0586 4.6797 11.723 17.34 15.469 25.727l1.9336 4.2969c5.3984 11.688 23.711 23.258 48.457 23.258 8.0625 0 16.789-1.2227 25.992-4.0664 3.168-0.98438 5.7734-3.2266 7.2344-6.2031 1.4648-2.9766 1.6211-6.4219 0.43359-9.5156-0.34766-0.9375-8.7969-23.062-20.543-41.855-11.449-18.336-21.098-34.957-22.992-52.668-2.3516-21.973-1.8008-57.336 1.0195-66.395 4.7031-15 5.7109-45.238 4.2734-67.355-0.86328-13.586-2.6875-43.824 6.8633-64.656 21.91-1.8594 38.531-10.754 47.258-25.273 12.254-0.76953 33.348-4.0938 45.109-17.375 17.965-1.0195 37.246-8.6055 43.777-27.059 10.453-9.5508 23.195-29.125 16.441-52.789 11.004-12.383 22.598-34.066 14.531-57.48 8.1016-14.363 14.988-37.043 3.8164-55.465 3.3008-13.871 8.293-47.652-14.773-65.605 4.6328-21.215 10.309-44.914 12.973-52.895 7.5859-2.9414 30.312-7.1992 41.746-9.3359 16.391-3.0859 29.23-2.0625 38.566-1.3086 3.625 0.28906 6.707 0.51562 9.2266 0.51562 16.43 0 27.383-16.5 36.371-31.98 11.578-19.969 4.9688-44.398-7.1523-57.254-8.9297-9.4805-53.102-46.285-86.508-66.527-37.453-22.715-66.828-14.137-93.684-3.3828-4.7656 1.9062-9.9102 4.9453-15.348 8.6289-7.5117-1.4531-15.059-3.1797-19.43-4.9062-1.7539-0.69531-3.8633-1.7266-6.3359-2.9141-15.445-7.4297-44.195-21.277-82.273-11.363-5.8789 1.5234-9.6953 7.2109-8.8789 13.223 2.3516 17.375 18.562 49.906 62.605 57.109-6.1328 6.793-12.047 13.5-17.52 19.754l-2.3633 2.6992c-21.527 24.539-35.664 57.938-40.391 70.129-1.0781 0.5625-2.1836 1.0195-3.2383 1.6445-1.4531-0.10938-3.1562-0.17969-5.0391-0.17969-14.27 0-25.906 4.2461-33.562 12.133-9.9961-0.30078-30.203 0.79297-45.539 13.656-5.1484-0.89844-12.793-1.8828-21.48-1.8828-17.027 0-31.906 3.793-43.609 11.051-7.8008-4.0938-20.902-9.3711-36.59-9.3711-8.5078 0-16.801 1.5352-24.77 4.5586-6.9727-3.0117-19.738-7.4766-34.246-7.4766-8.9297 0-17.305 1.6562-24.984 4.9336-5.0898-1.1641-13.754-2.6992-24.035-2.6992-12.133 0-23.375 2.0625-33.527 6.1562-6.9727-2.5078-20.062-6.3828-34.488-6.3828-8.3398 0-16.078 1.2852-23.09 3.8164-7.8594-3.9375-22.871-10.078-39.84-10.078-7.2969 0-14.281 1.1289-20.82 3.3594-4.7266-1.0312-13.02-2.4727-22.68-2.4727-17.027 0-31.883 4.4648-43.262 12.949-12.469 0.80469-46.078 5.0039-60.18 26.977-15.984 7.1289-39.133 26.207-38.352 59.699-7.332 9.9727-22.848 36.406-11.09 69.312-3.8047 11.629-10.895 41.605 6.5625 66.539-0.21484 7.6328 0.50391 21.887 7.6562 32.594-6.5742 9.9609-14.688 26.762-10.234 44.531-2.2695 7.3789-5.4844 21.527-2.1016 33.539-5.7852 5.6406-14.051 14.125-19.078 21.156-1.1406 1.5859-2.2695 2.8906-3.3359 4.1289-8.3047 9.6719-13.379 18.109-8.4727 46.164 5.3672 30.715 31.863 152.37 42.664 179.39zm623.47 16.895c5.1367 8.2305 9.6602 17.41 12.949 24.648-18.961 1.8477-30.816-6.1328-32.375-9.0234l-1.8242-4.0312c-4.8242-10.801-11.363-25.465-21.539-33.996-1.8828-5.8555-0.20312-25.848 1.043-40.598 1.1406-13.535 2.4258-28.895 2.4258-43.094l0.023437-12.574c0.070313-27.434 0.097657-34.801-5.0391-51.672-3.2891-10.812-8.8203-51.781-12.133-78.312 2.5781 0.19141 5.2422 0.33594 8.0156 0.33594 11.207 0 21.047-2.1133 29.629-5.7852-3.9375 18.277-3.6602 38.207-2.4727 56.531 1.4297 22.078-0.023437 48.395-3.2266 58.645-4.6094 14.746-4.2461 54.926-1.9805 76.105 2.4453 22.777 13.434 41.93 26.504 62.82zm45.707-688.95 2.3633-2.6992c8.5312-9.7305 18.098-20.508 27.863-30.926 6.0703 1.6797 10.645 3.3242 10.727 3.3477 1.3555 0.50391 2.7461 0.74219 4.1289 0.74219 4.8945 0 9.4922-3 11.27-7.8594 2.2812-6.2148-0.89844-13.105-7.1172-15.395-0.79297-0.28906-19.609-7.1641-35.531-8.2188-29.062-1.9219-41.605-16.152-46.934-26.617 23.531-2.3281 41.652 6.457 53.219 12.012 3.0977 1.4883 5.7461 2.7461 7.957 3.6133 13.32 5.2578 41.914 9.2773 45.145 9.7305 6.6016 0.875 12.613-3.6953 13.512-10.246 0.25391-1.8828-0.035156-3.6836-0.60156-5.375 21.48-8.1133 40.871-11.93 66.758 3.7578 32.039 19.414 74.102 54.625 81.492 62.473 4.4297 4.7031 10.105 17.965 3.8398 28.754-10.379 17.879-14.617 19.848-15.613 20.027-1.9922 0-4.4414-0.21484-7.3086-0.44531-10.094-0.81641-25.367-2.0273-44.902 1.6445-38.316 7.1875-50.305 10.273-55.934 16.906-1.668 1.957-4.2344 4.9922-12.191 38.832-6.8164-6.3359-15.59-11.258-26.953-12.574-7.6797-8.0625-26.496-24.625-51.602-24.625-4.5859 0-9.168 0.55078-13.691 1.668-7.4414-4.4648-21.828-11.449-39.098-11.484 6.5-13.957 16.508-32.582 29.203-47.043zm-659 239.1c-12.371-28.883 7.5-51.504 8.293-52.391 2.293-2.4961 3.4336-5.832 3.1328-9.2148-2.7734-30.48 23.426-40.512 26.34-41.531 3.1211-1.043 5.6758-3.3125 7.0664-6.2891 6.5391-13.957 35.855-17.652 45.613-17.844 2.8203-0.058594 5.5547-1.1055 7.6797-2.9766 7.4297-6.4922 17.82-9.793 30.91-9.793 11.148 0 19.992 2.5078 20.051 2.5195 2.6758 0.76953 5.5078 0.60156 8.0391-0.45703 4.6797-1.9688 9.8516-2.9648 15.406-2.9648 17.281 0 32.652 9.4688 32.762 9.5391 3.5391 2.2422 8.0039 2.4844 11.785 0.60156 5.1367-2.5664 11.316-3.875 18.371-3.875 15.527 0 29.688 6.2656 29.785 6.3125 3.2656 1.4883 7.0195 1.4414 10.223-0.13281 8.1133-3.9492 17.531-5.9531 28.008-5.9531 12.277 0 21.562 2.832 21.625 2.8438 3.0703 0.98438 6.3711 0.68359 9.2266-0.82812 5.3398-2.8203 11.461-4.2461 18.18-4.2461 15.023 0 28.02 7.0547 28.105 7.1055 3.3945 1.9062 7.5117 2.0508 11.039 0.35938 6.3242-3.0117 13.02-4.5469 19.871-4.5469 16.957 0 29.977 9.3008 30.047 9.3594 4.4883 3.3242 10.691 3.1211 14.953-0.50391 10.211-8.7109 24.77-10.535 35.195-10.535 12.336 0 22.141 2.4961 22.211 2.5078 4.4141 1.1523 9.0703-0.26562 12.07-3.6836 8.1602-9.2656 22.332-10.656 30.07-10.656 3.6602 0 6.1445 0.3125 6.4336 0.34766 4.7891 0.74219 9.6016-1.5703 12.07-5.7617 3.4219-5.7969 12.574-6.6719 17.734-6.6719 3.2539 0 5.6172 0.34766 5.9023 0.39453 3.0859 0.50391 6.2383-0.16797 8.7969-1.9336 7.0195-4.8008 14.664-7.2344 22.703-7.2344 16.477 0 29.832 9.9961 29.914 10.066 3.2383 2.5078 7.5469 3.1914 11.387 1.8242 3.8281-1.3672 7.7383-2.0625 11.594-2.0625 20.605 0 36.289 19.477 36.406 19.633 2.2422 2.8672 5.6641 4.5703 9.2891 4.6211 22.465 0.33594 27.348 25.129 27.828 27.898 0.5625 3.5508 2.7109 6.6602 5.8086 8.4727 18.422 10.715 7.4414 46.547 7.3203 46.883-1.3086 3.9961-0.43359 8.3984 2.3164 11.594 11.172 12.949-4.8242 37.105-4.9688 37.309-2.5078 3.6133-2.832 8.293-0.875 12.215 10.547 21.086-11.16 40.223-12.035 40.992-4.1172 3.4922-5.3867 9.3125-3.1094 14.207 8.9883 19.32-7.5117 32.914-9.3594 34.355-2.2578 1.7031-3.8281 4.1406-4.4648 6.8984-2.7734 12.109-22.066 12.73-25.895 12.73l-1.1992-0.011719c-4.7266-0.39453-9.0469 2.1719-11.258 6.2656-3.9727 7.3555-20.578 11.219-35.605 11.219h-0.035156c-5.1719-0.21484-9.7695 3.0234-11.555 7.8242-7.8125 21.059-43.715 17.387-44.699 17.27-4.1289-0.50391-8.1016 1.0312-10.727 4.1523-6.3242 7.4883-16.754 11.281-30.961 11.281-13.285 0-24.719-3.4688-24.793-3.4922-5.0039-1.5586-10.43 0.28906-13.414 4.5977-5.6875 8.1484-14.051 12.109-25.598 12.109-9.6953 0-17.746-2.9531-17.785-2.9648-4.6328-1.7773-9.8984-0.50391-13.246 3.2266-7.2852 8.1836-16.871 12.336-28.5 12.336-10.477 0-18.816-3.3828-18.84-3.3945-4.7539-2.0273-10.344-0.75781-13.754 3.1914-4.5977 5.293-10.957 7.8711-19.453 7.8711-10.969 0-20.93-4.4023-20.988-4.4414-3.8516-1.7539-8.3633-1.3555-11.844 1.0664-7.2227 5.0156-15.504 7.5703-24.637 7.5703-18.012 0-33.504-9.7305-33.625-9.793-3.8281-2.4961-8.7734-2.5781-12.695-0.21484-5.9766 3.5898-11.762 5.4102-17.219 5.4102-15.828 0-26.328-15.527-26.398-15.625-2.9531-4.5859-8.6406-6.5742-13.824-4.8945-3.625 1.1992-7.0664 1.8008-10.234 1.8008-17.363 0-25.02-18.91-25.297-19.656-1.7539-4.5859-6.0977-7.6445-10.992-7.7539h-0.23828c-4.8008 0-9.1562 2.8672-11.039 7.2969-2.7734 6.5156-11.555 7.8945-18.434 7.8945-3.7578 0-6.5508-0.44531-6.8516-0.49219-6.0703-1.0664-11.82 2.4492-13.633 8.2422-7.3789 23.773-34.488 25.621-42.613 25.621l-1.6328-0.023438c-3.5508-0.23828-6.9844 1.0938-9.4453 3.6484-6.6602 6.9258-14.449 10.273-23.82 10.273-12.156 0-22.402-5.7734-22.465-5.7969-1.8359-1.0781-3.9375-1.6445-6.0586-1.6445-0.63672 0-1.2734 0.046875-1.9219 0.15625-4.4648 0.73047-7.5859 0.058594-9.9609-2.4727-5.8203-6.2266-7.1758-21.324-6.6484-29.34 0.28906-4.2227-1.668-8.293-5.1484-10.703-2.0391-1.4141-1.8594-13.094 2.1836-24.254 0.98438-2.6641 0.98438-5.5938 0-8.2695-5.4727-14.953 10.859-33.277 11.004-33.422 2.4961-2.6758 3.6484-6.3359 3.1094-9.9609-0.53906-3.6133-2.6992-6.793-5.8555-8.6289-4.7383-2.7461-6.168-15.684-5.3281-23.543 0.34766-3.2383-0.61328-6.4805-2.6875-8.9883-16.703-20.148-4.3203-50.352-4.2227-50.617 1.3242-2.9844 1.3242-6.4062 0.027343-9.4297zm-26.172 223.02c1.4883-1.7383 3.0703-3.6016 4.6562-5.8203 1.6211-2.2695 3.8516-4.8945 6.2773-7.5703 1.7539 8.3164 5.0273 17.207 11.258 23.891 6.9258 7.4297 16.105 11.102 27.191 10.297 0.33594 0.16797 0.88672 0.37109 1.2734 0.53906-7.043 8.0156-14.426 18.203-17.102 27.973-5.6523 20.699 4.043 83.785 11.375 107.24 7.6914 24.625 24.719 65.676 35.137 81.707 1.1172 1.7031 2.0625 3.2773 2.8789 4.7148-12.492 0.39453-25.992 0.48047-31.715-0.32422-1.5352-1.5352-3.3945-9.1328-4.7656-14.676-1.8242-7.4766-4.1289-16.766-8.1953-26.953-10.094-25.223-36.215-145.36-41.316-174.61-3.3125-18.988-1.1875-21.461 3.0469-26.406z"/>
</svg>
