<svg height='100px' width='100px' xmlns="http://www.w3.org/2000/svg" version="1.1" x="0px" y="0px" viewBox="0 0 100 100" xml:space="preserve"><path d="M90.17,10.76c0.458,0.321,1.092,0.211,1.414-0.249c0.322-0.459,0.21-1.092-0.249-1.414  c-0.254-0.179-6.302-4.338-12.539-2.159c-1.11,0.387-2.149,0.947-3.116,1.678l-4.313-3.021c-0.818-0.572-2.213-0.767-3.16-0.429  l-23.368,8.256c-0.857,0.303-1.897,1.094-2.42,1.84L8.876,63.167c-0.545,0.778-0.754,1.722-0.589,2.658  c0.165,0.936,0.684,1.75,1.462,2.295l37.469,26.237C47.819,94.778,48.523,95,49.255,95c1.16,0,2.251-0.567,2.917-1.517  l33.543-47.905c0.523-0.746,0.91-1.995,0.9-2.903l-0.234-24.783c-0.008-1.021-0.647-2.235-1.485-2.821l-7.448-5.216  c0.636-0.418,1.304-0.75,2.003-0.996C84.702,7.021,90.118,10.723,90.17,10.76z M83.732,16.734c0.304,0.213,0.616,0.806,0.62,1.176  l0.234,24.785c0.005,0.484-0.254,1.32-0.533,1.718L50.509,92.318c-0.286,0.408-0.754,0.652-1.253,0.652  c-0.313,0-0.615-0.095-0.873-0.276L10.914,66.457c-0.334-0.234-0.557-0.583-0.627-0.985c-0.071-0.402,0.019-0.806,0.253-1.141  l33.543-47.905c0.284-0.406,0.967-0.926,1.434-1.09L68.885,7.08c0.06-0.021,0.191-0.056,0.403-0.056  c0.396,0,0.752,0.122,0.914,0.235l3.927,2.75c-1.042,1.086-1.984,2.403-2.819,3.958c-0.344-0.047-0.691-0.08-1.042-0.08  c-2.509,0-4.865,1.225-6.302,3.278c-2.43,3.472-1.583,8.273,1.887,10.704c1.3,0.91,2.823,1.391,4.403,1.391  c2.509,0,4.865-1.226,6.302-3.279c2.43-3.472,1.583-8.273-1.888-10.704c-0.427-0.299-0.885-0.534-1.354-0.738  c0.752-1.328,1.586-2.444,2.502-3.348L83.732,16.734z M69.67,21.02c0.096,0.029,0.194,0.042,0.29,0.042  c0.438,0,0.841-0.285,0.972-0.726c0.435-1.461,0.925-2.786,1.467-3.984c0.385,0.158,0.759,0.345,1.106,0.588  c2.554,1.789,3.177,5.322,1.389,7.876c-1.057,1.511-2.792,2.413-4.639,2.413c-1.162,0-2.283-0.354-3.239-1.023  c-2.554-1.789-3.176-5.323-1.389-7.877c1.058-1.511,2.792-2.413,4.64-2.413c0.034,0,0.067,0.007,0.101,0.008  c-0.508,1.174-0.971,2.449-1.382,3.833C68.827,20.294,69.132,20.859,69.67,21.02z"></path></svg>