<?xml version="1.0" encoding="UTF-8"?>
<svg width='100px' height='100px' version="1.1" viewBox="0 0 100 100" xmlns="http://www.w3.org/2000/svg">
 <path d="m27.75 13.996c-0.33203-10.332-15.305-10.332-15.637 0 0.33594 10.324 15.293 10.328 15.637 0z"/>
 <path d="m28.844 21.113-0.48438-0.15625c-2.0703 2.5234-5.1641 3.9883-8.4297 3.9883-3.2656 0-6.3594-1.4648-8.4297-3.9883l-0.48438 0.15625c-2.7812 0.93359-4.6602 3.5391-4.6602 6.4727v2.7227c0.003906 1.6914 1.375 3.0625 3.0664 3.0625h21.016c1.6914 0 3.0625-1.3711 3.0664-3.0625v-2.7227c0-2.9336-1.8789-5.5391-4.6602-6.4727z"/>
 <path d="m27.75 74.141c-0.33203-10.332-15.305-10.332-15.637 0l-0.003906-0.003906c0.027344 4.3008 3.5195 7.7734 7.8203 7.7734 4.3008 0 7.793-3.4727 7.8203-7.7695z"/>
 <path d="m28.844 81.254-0.48438-0.15625c-2.082 2.5078-5.1719 3.9609-8.4297 3.9609-3.2578 0-6.3477-1.4531-8.4297-3.9609-3.0195 0.78516-5.1328 3.5078-5.1445 6.6289v2.7227c0.003906 1.6914 1.375 3.0625 3.0664 3.0625h21.016c1.6914 0 3.0625-1.3711 3.0664-3.0625v-2.7227c0-2.9336-1.8789-5.5391-4.6602-6.4727z"/>
 <path d="m72.25 74.137c0.027344 4.3008 3.5195 7.7734 7.8203 7.7734 4.3008 0 7.793-3.4727 7.8203-7.7695-0.33203-10.332-15.309-10.332-15.641-0.003906z"/>
 <path d="m88.984 81.254-0.48438-0.15625c-2.082 2.5078-5.1719 3.9609-8.4297 3.9609-3.2578 0-6.3477-1.4531-8.4297-3.9609-3.0195 0.78516-5.1328 3.5078-5.1445 6.6289v2.7227c0.003906 1.6914 1.375 3.0625 3.0664 3.0625h21.016c1.6914 0 3.0625-1.3711 3.0664-3.0625v-2.7227c0-2.9336-1.8789-5.5391-4.6602-6.4727z"/>
 <path d="m87.891 13.996c-0.33203-10.332-15.305-10.332-15.637 0 0.33594 10.324 15.293 10.328 15.637 0z"/>
 <path d="m88.984 21.113-0.48438-0.15625c-2.0703 2.5234-5.1641 3.9883-8.4297 3.9883-3.2656 0-6.3594-1.4648-8.4297-3.9883l-0.48438 0.15625c-2.7812 0.93359-4.6602 3.5391-4.6602 6.4727v2.7227c0.003906 1.6914 1.375 3.0625 3.0664 3.0625h21.016c1.6914 0 3.0625-1.3711 3.0664-3.0625v-2.7227c0-2.9336-1.8789-5.5391-4.6602-6.4727z"/>
 <path d="m16.973 37.285c-4.4219 7.8867-5.8906 17.094-4.1445 25.965 0.16797 0.84766 0.98828 1.3984 1.8359 1.2305 0.84766-0.16797 1.4023-0.98828 1.2344-1.8359-1.6055-8.1406-0.25781-16.586 3.7969-23.824 0.40625-0.75 0.13672-1.6875-0.60547-2.1055-0.74219-0.41797-1.6836-0.16406-2.1172 0.57031z"/>
 <path d="m61.293 88.742c-7.3203 2.5-15.266 2.5-22.586 0-0.80859-0.26563-1.6797 0.16797-1.9609 0.97266-0.27734 0.80469 0.13672 1.6836 0.93359 1.9805 7.9844 2.7383 16.656 2.7383 24.641 0 0.79688-0.29687 1.2109-1.1758 0.93359-1.9805-0.28125-0.80469-1.1523-1.2383-1.9609-0.97266z"/>
 <path d="m85.641 64.512c0.74609-0.003907 1.3867-0.53125 1.5312-1.2617 1.7461-8.8711 0.27734-18.078-4.1445-25.965-0.43359-0.73438-1.375-0.98828-2.1172-0.57031-0.74219 0.41797-1.0117 1.3555-0.60547 2.1055 4.0547 7.2383 5.4023 15.684 3.7969 23.824-0.085937 0.45703 0.035157 0.93359 0.33203 1.293 0.29688 0.36328 0.73828 0.57031 1.207 0.57422z"/>
 <path d="m63.82 20.586c-8.8867-3.4648-18.754-3.4648-27.641 0-0.78516 0.33203-1.1602 1.2266-0.84766 2.0195s1.2031 1.1875 2 0.88672c8.3516-3.1797 17.59-3.1406 25.914 0.11328 0.74219-0.015625 1.3711-0.54688 1.5117-1.2773 0.14063-0.72656-0.25-1.457-0.9375-1.7422z"/>
 <path d="m57.82 47.32c-0.32031-10.332-15.316-10.332-15.637 0 0.32422 10.328 15.305 10.332 15.637 0z"/>
 <path d="m58.914 54.438-0.48437-0.15625c-2.0859 2.5-5.1719 3.9453-8.4297 3.9453s-6.3438-1.4453-8.4297-3.9492c-3.0234 0.78516-5.1367 3.5078-5.1445 6.6328v2.707-0.003907c0 0.81641 0.32422 1.5938 0.89844 2.1719 0.57422 0.57422 1.3555 0.89453 2.168 0.89453h21.016c0.8125 0 1.5938-0.32031 2.168-0.89453 0.57812-0.57812 0.89844-1.3555 0.89844-2.1719v-2.7031c0.003906-2.9375-1.875-5.5469-4.6602-6.4727z"/>
</svg>
