<svg height='100px' width='100px'  fill="#000000" xmlns="http://www.w3.org/2000/svg" xmlns:xlink="http://www.w3.org/1999/xlink" version="1.1" x="0px" y="0px" viewBox="0 0 100 100" enable-background="new 0 0 100 100" xml:space="preserve"><path d="M78.907,28.785c-2.017-1.054-4.921,0.522-6.079,2.742l-7.859,15.038c-1.157,2.224-0.464,4.879,1.553,5.929  c2.018,1.053,4.597,0.108,5.754-2.111l7.856-15.038C81.293,33.125,80.929,29.838,78.907,28.785z"></path><path d="M80.959,24.859c2.019,1.058,4.593,0.107,5.749-2.112L94.564,7.71c1.158-2.222,0.793-5.506-1.229-6.564  c-2.013-1.053-4.915,0.527-6.077,2.746L79.402,18.93C78.246,21.154,78.942,23.806,80.959,24.859z"></path><path d="M65.279,42.785l5.079-9.729l-0.74-2.058l7.911-15.152l2.111-0.569l5.083-9.729L73.721,8.525  c-1.086,0.293-1.999,1.031-2.517,2.028L61.655,28.83c-0.518,0.995-0.604,2.169-0.221,3.223L65.279,42.785z"></path><path d="M98.451,21.438L94.578,10.63l-5.082,9.727l0.766,2.143l-7.91,15.15l-2.193,0.59l-5.083,9.733l11.085-3  c1.089-0.295,2.002-1.032,2.521-2.022l9.55-18.283C98.747,23.67,98.828,22.5,98.451,21.438z"></path><path d="M80.487,47.355c0.05,0.14,0.091,0.284,0.14,0.424l0.283-0.541L80.487,47.355z"></path><path d="M81.667,51.229c0.45,1.829,0.773,3.712,0.909,5.651h-6.658c-1.383,0-2.504,1.119-2.504,2.501  c0,1.387,1.121,2.508,2.504,2.508h6.641c-0.639,8.287-4.245,15.712-9.779,21.257c-5.627,5.62-13.199,9.254-21.637,9.806v-6.285  c0-1.382-1.125-2.505-2.503-2.505c-1.386,0-2.511,1.123-2.511,2.505v6.247c-8.225-0.667-15.602-4.267-21.11-9.768  c-5.542-5.545-9.148-12.97-9.783-21.257h6.118c1.383,0,2.503-1.121,2.503-2.503c0-1.387-1.121-2.506-2.503-2.506h-6.136  c0.585-8.383,4.207-15.903,9.801-21.499c5.508-5.511,12.885-9.104,21.11-9.77v6.487c0,1.383,1.125,2.506,2.511,2.506  c1.377,0,2.503-1.124,2.503-2.506V25.57c2.277,0.148,4.488,0.54,6.613,1.121l3.146-6.02c-3.795-1.193-7.814-1.864-12.006-1.864  C26.556,18.813,8.446,36.92,8.444,59.264c0.002,22.342,18.112,40.449,40.452,40.449c22.344,0,40.452-18.107,40.456-40.449  c0-3.381-0.459-6.645-1.251-9.778L81.667,51.229z"></path><path d="M48.896,52.741c-0.387,0-0.77,0.04-1.139,0.103l-10.232-9.452c-0.652-0.726-1.89-0.684-2.759,0.096  c-0.873,0.779-1.048,2.004-0.394,2.732l8.272,11.191c-0.169,0.587-0.266,1.209-0.266,1.852c0,0.944,0.203,1.84,0.563,2.649  L32.208,78.051c-0.595,0.779-0.324,1.98,0.603,2.693c0.932,0.716,2.166,0.659,2.76-0.12l12.884-14.866  c0.144,0.012,0.292,0.029,0.441,0.029c3.602,0,6.519-2.922,6.519-6.523C55.415,55.657,52.498,52.741,48.896,52.741z M48.896,63.732  c-2.47,0-4.472-2.002-4.472-4.469c0-2.472,2.002-4.475,4.472-4.475c2.467,0,4.471,2.003,4.471,4.475  C53.367,61.73,51.363,63.732,48.896,63.732z"></path><circle cx="48.896" cy="59.26" r="2.644"></circle></svg>