<?xml version="1.0" encoding="UTF-8"?>
<svg height='100px' width='100px' version="1.1" viewBox="100 100 1000 1000" xmlns="http://www.w3.org/2000/svg">
 <path d="m547.1 259.93c-74.945 0-136.03 61.082-136.03 136.03 0 47.055 23.977 88.688 60.457 113.12v-39.203c-18.711-19.031-30.23-45.016-30.23-73.918 0-58.609 47.188-105.8 105.8-105.8 58.609 0 105.8 47.188 105.8 105.8 0 28.902-11.516 54.887-30.23 73.918v39.203c36.48-24.434 60.457-66.066 60.457-113.12 0-74.949-61.082-136.03-136.03-136.03zm0 105.8c-33.23 0-60.457 27.227-60.457 60.457v208.06c-9.3594-20.23-26.156-42.102-47.23-47.469-28.672-7.7852-63.793 15.152-71.793 41.801-4.0781 14.852-1.418 31.758 6.6133 52.426 39.262 94.41 87.605 185.05 146.42 253.88 2.8125 3.2344 7.0508 5.1758 11.336 5.1953h204.04c3.2148 0 6.4102-1.1289 8.9727-3.0703 21.754-16.117 39.289-43.57 53.844-76.281 14.555-32.711 25.699-70.656 31.41-107.69 5.7109-37.031 5.6875-71.711-2.3633-102.49-7.7695-29.711-28.73-54.438-59.984-58.094-7.3672 0-15.148 0.61328-21.727 2.125-3.875-9.2695-9.3086-17.176-16.059-21.961-11.301-8.0195-22.805-10.543-32.117-10.391-8.9414 0.14844-17.098 3.4062-24.324 8.5-3.25-4.9609-6.5977-10.125-10.863-13.227-11.203-8.1367-23.125-10.391-32.59-10.391-7.8281 0-15.41 2.1719-22.672 5.1953v-126.11c-0.64062-40.453-32.547-60.535-60.457-60.457zm0 30.23c17.008 0 30.23 13.219 30.23 30.23v158.7c-0.097656 6.8516 5.1289 13.348 11.809 14.879 6.6758 1.5312 14.105-2.0586 17.004-8.2656 3.3398-6.9414 15.918-14.168 24.09-14.168 3.668 0 10.473 1.5234 14.879 4.7227 4.4062 3.1992 7.793 6.9414 7.793 17.949 0 6.7188 5.0391 13.074 11.57 14.641 6.5352 1.5664 13.945-1.8125 17.004-7.793 6.1445-12.293 9.4375-14.277 17.004-14.406 2.0938 0 9.4297 1.3594 14.168 4.7227 4.7383 3.3633 8.2656 7.2305 8.2656 17.949-0.074219 5.8867 3.5781 11.586 8.9727 13.934 5.3984 2.3477 12.258 1.2148 16.531-2.832 5.7305-2.8242 11.352-3.6836 18.656-3.543 18.02 2.293 27.375 13.586 33.77 36.133 6.457 22.754 6.6953 55.281 1.418 89.504-5.2773 34.227-15.711 70.164-29.047 100.13-12.504 28.105-27.82 50.055-41.328 61.402h-190.58c-53.051-62.586-103.71-158.69-136.74-239.7-6.875-17.695-7.4922-27.855-5.9023-33.535 5.6016-14.617 21.273-22.871 34.715-20.781 16.07 6.0508 20.051 16.773 26.922 29.047l29.992 60.219c3.0586 5.9844 10.469 9.3594 17.004 7.793 6.5352-1.5664 11.559-7.9219 11.57-14.641v-272.06c0-17.008 13.219-30.23 30.23-30.23z"/>
</svg>
