<?xml version="1.0" encoding="UTF-8"?>
<svg height='100px' width='100px' version="1.1" viewBox="0 0 1200 1200" xmlns="http://www.w3.org/2000/svg">
 <path d="m598.81 75.637c-3.8203 0.019531-7.6875 0.51172-11.535 1.5391l-89.281 23.805c-24.617 6.5938-39.398 32.582-32.812 57.164l9.3008 34.605-43.32 11.609-9.3008-34.715c-6.5859-24.582-32.402-39.516-57.016-32.922l-89.133 23.914c-24.617 6.5938-39.551 32.445-32.957 57.055l9.3008 34.641-43.176 11.57-9.3008-34.605c-6.5859-24.582-32.402-39.664-57.016-33.066l-89.281 23.949c-24.617 6.5938-39.398 32.438-32.812 57.016l9.3008 34.715-15.785 4.2109h0.003906c-4.8125 1.2656-8.9297 4.3906-11.438 8.6914-2.5039 4.3008-3.1992 9.4219-1.9297 14.234l54.234 202.25v-0.003906c1.2734 4.832 4.418 8.957 8.7422 11.461 4.3242 2.5039 9.4688 3.1758 14.293 1.8711l655.35-175.59c4.8047-1.3047 8.8945-4.4609 11.367-8.7852 2.4727-4.3203 3.125-9.4453 1.8164-14.25l-54.199-202.25c-1.2969-4.7812-4.4297-8.8516-8.7188-11.328-4.2852-2.4766-9.3789-3.1562-14.168-1.8906l-15.895 4.2461-9.3008-34.641c-5.5586-20.738-24.699-34.625-45.336-34.496zm0.91406 37.316c3.9062 0.078125 7.1758 2.6484 8.3125 6.8828l9.2656 34.57-106.71 28.527-9.1562-34.605c-1.3984-5.2148 1.1367-9.6953 6.2266-11.059l89.281-23.949c0.95312-0.25391 1.8828-0.38281 2.7812-0.36719zm-222.39 59.652c3.9062 0.039062 7.1406 2.5039 8.2773 6.7383l9.2656 34.605-106.56 28.637-9.2656-34.605c-1.3906-5.1836 1.2461-9.8398 6.3359-11.207l89.133-23.805c0.95312-0.25391 1.918-0.375 2.8203-0.36719zm283.48 8.8984 44.531 166.14-619.1 165.89-44.531-166.18 14.613-3.918v0.003906c0.41797-0.058594 0.83203-0.13281 1.2461-0.21875l142.86-38.344c0.41797-0.12109 0.83203-0.25391 1.2422-0.40234l78.184-20.91 142.86-38.195c0.44531-0.12891 0.88672-0.27734 1.3203-0.4375l77.633-20.801c0.20703-0.035156 0.41797-0.074218 0.625-0.11328l142.82-38.195c0.68359-0.18359 1.3555-0.40234 2.0156-0.66016zm-505.76 50.609c3.9062 0.078125 7.1406 2.6484 8.2773 6.8828l9.2656 34.605-106.56 28.492-9.2656-34.605c-1.3984-5.2148 1.2812-9.6953 6.3711-11.059l89.133-23.949c0.95312-0.25391 1.8828-0.38281 2.7812-0.36719zm726.32 226.39c-4.9727-0.019531-9.7461 1.9375-13.277 5.4414-3.5312 3.5-5.5234 8.2617-5.543 13.234v628.51c0.019531 4.9727 2.0117 9.7305 5.543 13.234s8.3047 5.4609 13.277 5.4414h299.92c4.9531-0.011719 9.7031-1.9805 13.211-5.4805 3.5039-3.5 5.4844-8.2422 5.5039-13.195v-628.51c-0.019531-4.9531-2-9.6953-5.5039-13.195-3.5078-3.5-8.2539-5.4688-13.211-5.4805zm18.676 37.5h262.42v590.86h-262.42zm129.05 21.203c-45.82 1.1719-82.945 39.016-82.945 85.105 0 46.82 38.285 85.105 85.105 85.105 46.82 0 85.289-38.285 85.289-85.105 0-46.82-38.469-85.105-85.289-85.105-0.73047 0-1.4336-0.019531-2.1602 0zm2.1602 37.352c26.555 0 47.754 21.199 47.754 47.754 0 26.551-21.195 47.605-47.754 47.605-26.555 0-47.605-21.055-47.605-47.605 0-26.551 21.051-47.754 47.605-47.754zm-884.48 31.016c-24.945 0.64453-45.336 21.566-45.336 46.617v35.703h-16.332v0.003906c-5-0.019531-9.7969 1.957-13.332 5.4922-3.5352 3.5312-5.5117 8.332-5.4922 13.328v418.97c0.019531 4.9727 2.0156 9.7305 5.543 13.234 3.5312 3.5039 8.3086 5.4609 13.281 5.4414h678.5-0.003906c4.9492-0.019531 9.6875-1.9961 13.188-5.4922 3.4961-3.5 5.4688-8.2383 5.4922-13.184v-418.97c0.015625-4.9727-1.9414-9.7461-5.4414-13.277-3.5039-3.5312-8.2656-5.5234-13.238-5.543h-16.48v-35.703c0-25.449-21.023-46.617-46.508-46.617h-92.32c-25.484 0-46.508 21.168-46.508 46.617v35.703h-44.824v-35.703c0-25.449-21.023-46.617-46.508-46.617h-92.32c-25.484 0-46.508 21.141-46.508 46.617v35.703h-44.859v-35.703c0-25.449-21.023-46.617-46.508-46.617h-92.32c-0.39844 0-0.77734-0.011719-1.1719 0zm1.1719 37.5h92.32c5.2695 0 9.0078 3.7227 9.0078 9.1172v35.703h-110.3v-35.703c0-5.3945 3.7031-9.1172 8.9727-9.1172zm230.19 0h92.32c5.2695 0 8.9727 3.7227 8.9727 9.1172v35.703h-110.3v-35.703c0-5.3672 3.7383-9.1172 9.0078-9.1172zm230.16 0h92.32c5.2695 0 9.0078 3.7227 9.0078 9.1172v35.703l-110.34 0.003906v-35.703c0-5.3945 3.7383-9.1172 9.0078-9.1172zm-504.48 82.359h640.96v172.04h-640.96zm927.44 0.80469c-46.82 0-85.105 38.324-85.105 85.141 0 46.82 38.285 85.25 85.105 85.25 46.82 0 85.289-38.434 85.289-85.25 0-46.82-38.469-85.141-85.289-85.141zm0 37.535c26.555 0 47.754 21.055 47.754 47.605s-21.195 47.754-47.754 47.754c-26.555 0-47.605-21.199-47.605-47.754 0-26.551 21.051-47.605 47.605-47.605zm0 151.68c-46.82 0-85.105 38.285-85.105 85.105 0 46.82 38.285 85.141 85.105 85.141 46.82 0 85.289-38.324 85.289-85.141 0-46.82-38.469-85.105-85.289-85.105zm-927.44 19.52h301.71v171.89h-301.71zm339.21 0h301.75v171.89h-301.75zm588.23 17.98c26.555 0 47.754 21.055 47.754 47.605 0 26.551-21.195 47.645-47.754 47.645-26.555 0-47.605-21.09-47.605-47.645 0-26.551 21.051-47.605 47.605-47.605z" fill-rule="evenodd"/>
</svg>
