<svg height='100px' width='100px' fill="#000000" xmlns="http://www.w3.org/2000/svg" version="1.1" x="0px" y="0px"
     viewBox="0 0 32 32" enable-background="new 0 0 32 32" xml:space="preserve"><g display="none"><rect x="-331.333" y="-18.667" display="inline" fill="#000000" width="473.333" height="236"></rect></g><g display="none"><g display="inline"><g><rect x="1.354" y="4.292" fill="#000000" width="29.292" height="17.875"></rect></g><g><g><g><path d="M30,4.854v16.833H2V4.854H30 M30.5,2.854h-29c-0.825,0-1.5,0.675-1.5,1.5v17.833c0,0.825,0.675,1.5,1.5,1.5h29       c0.825,0,1.5-0.675,1.5-1.5V4.354C32,3.529,31.325,2.854,30.5,2.854L30.5,2.854z"></path></g></g></g><g><g><rect x="13.5" y="23.688" fill="#000000" width="5" height="4.458"></rect></g></g><g><g><rect x="8.937" y="27.146" width="14.125" height="2"></rect></g></g><g><polygon points="13.5,23.688 17.672,23.688 13.5,25.547    "></polygon></g><g opacity="0.35"><polygon fill="#000000" points="2,4.854 10.5,4.854 2,10.042    "></polygon></g></g><g display="inline"><g><rect x="10.625" y="7.393" fill="#000000" width="8" height="1"></rect></g><g><rect x="13.375" y="9.768" fill="#000000" width="8" height="1"></rect></g><g><rect x="10.625" y="12.768" fill="#000000" width="8" height="1"></rect></g><g><rect x="13.375" y="15.143" fill="#000000" width="8" height="1"></rect></g><g><rect x="10.625" y="18.143" fill="#000000" width="8" height="1"></rect></g></g></g><g><g><g><g><path d="M29.188,5.915V21.22H2.812V5.915H29.188 M30.188,4.915H1.812V22.22h28.376V4.915L30.188,4.915z"></path></g><g><g><g><path d="M30.047,24.192H1.953C0.876,24.192,0,23.316,0,22.24V4.975c0-1.076,0.876-1.952,1.953-1.952h28.094        C31.124,3.023,32,3.899,32,4.975V22.24C32,23.316,31.124,24.192,30.047,24.192z M1.953,4.023C1.428,4.023,1,4.45,1,4.975        V22.24c0,0.525,0.428,0.952,0.953,0.952h28.094c0.525,0,0.953-0.427,0.953-0.952V4.975c0-0.525-0.428-0.952-0.953-0.952H1.953        z M30.062,22.257H1.938V4.959h28.125V22.257z M2.938,21.257h26.125V5.959H2.938V21.257z"></path></g></g></g><g><g><path d="M17.422,24.693v2.316h-2.844v-2.316H17.422 M18.422,23.693h-4.844v4.316h4.844V23.693L18.422,23.693z"></path></g></g><g><g><polygon points="22.842,27.041 9.158,27.041 9.158,28.977 22.842,28.977 22.842,27.041      "></polygon></g></g></g><g><g><rect x="10.793" y="7.901" width="7.75" height="1"></rect></g><g><rect x="13.457" y="10.2" width="7.75" height="1"></rect></g><g><rect x="10.793" y="13.105" width="7.75" height="1"></rect></g><g><rect x="13.457" y="15.404" width="7.75" height="1"></rect></g><g><rect x="10.793" y="18.309" width="7.75" height="1"></rect></g></g></g></g><g display="none"><path display="inline" d="M29.188,5.915V21.22H2.812V5.915H29.188 M30.188,4.915H1.812V22.22h28.376V4.915L30.188,4.915z"></path><path display="inline" d="M17.422,24.693v2.316h-2.844v-2.316H17.422 M18.422,23.693h-4.844v4.316h4.844V23.693L18.422,23.693z"></path><polygon display="inline" points="22.842,27.041 9.158,27.041 9.158,28.977 22.842,28.977 22.842,27.041  "></polygon><g display="inline"><path d="M1.937,22.257h28.125V4.959H1.937V22.257z M21.207,16.404h-7.75v-1h7.75V16.404z M21.207,11.2h-7.75v-1h7.75V11.2z     M10.793,7.901h7.75v1h-7.75V7.901z M10.793,13.105h7.75v1h-7.75V13.105z M10.793,18.309h7.75v1h-7.75V18.309z"></path><path d="M30.047,3.023H1.953C0.876,3.023,0,3.899,0,4.975V22.24c0,1.076,0.876,1.952,1.953,1.952h28.094    c1.077,0,1.953-0.876,1.953-1.952V4.975C32,3.899,31.124,3.023,30.047,3.023z M31,22.24c0,0.525-0.428,0.952-0.953,0.952H1.953    C1.428,23.192,1,22.766,1,22.24V4.975C1,4.45,1.428,4.023,1.953,4.023h28.094C30.572,4.023,31,4.45,31,4.975V22.24z"></path></g></g></svg>
