<svg height='100px' width='100px' version="1.1" viewBox="0 0 1200 1200" xmlns="http://www.w3.org/2000/svg">
 <g>
  <path d="m607.82 210.88c4.207 7.8594 12.422 12.691 21.336 12.691 8.9102 0 17.129-4.8281 21.336-12.691 11.543-21.578 37.852-63.105 68.496-63.105 16.359 0 45.457 12.504 45.457 12.504-16.906-16.906-39.375-26.211-63.285-26.211-23.91 0-46.387 9.3086-63.285 26.211-3.2188 3.2188-6.0664 6.6914-8.7227 10.273-2.6562-3.5938-5.4961-7.0586-8.7148-10.273-16.906-16.906-39.375-26.211-63.285-26.211s-46.387 9.3086-63.285 26.211c0 0 29.102-12.504 45.457-12.504 30.633 0 56.953 41.527 68.496 63.105z"/>
  <path d="m1083.7 503.66c11.527-6.6523 30.441 3.2461 39.465 8.8594 3.2852 2.0391 7.4258 2.0781 10.777 0.14062 3.3516-1.9336 5.3906-5.5352 5.2656-9.4062-0.34375-10.621 0.53125-31.949 12.059-38.609 6.1484-3.5547 19.816-5.168 19.816-5.168-10.027-2.6836-20.504-1.3047-29.496 3.8867-8.9922 5.1914-15.422 13.574-18.105 23.602-0.51172 1.9062-0.83203 3.832-1.0508 5.7617-1.7773-0.77344-3.6016-1.4609-5.5117-1.9727-10.027-2.6836-20.504-1.3047-29.496 3.8867-8.9922 5.1914-15.422 13.574-18.105 23.602 0-0.011719 8.2266-11.035 14.383-14.582z"/>
  <path d="m240.98 687.43c8.6016-10.238 27.352-29.477 43.738-26.023 8.7461 1.8438 22.898 11.812 22.898 11.812-7.1328-10.941-18.098-18.457-30.887-21.148-12.789-2.6914-25.852-0.24609-36.797 6.8867-2.0859 1.3594-3.9961 2.8867-5.8203 4.5156-1.0117-2.2188-2.1445-4.3945-3.5039-6.4805-7.1328-10.941-18.098-18.457-30.887-21.148-12.789-2.6914-25.852-0.24609-36.797 6.8867 0 0 16.973-3.4062 25.719-1.5586 16.387 3.4492 25.777 28.621 29.512 41.461 1.3633 4.6797 5.2109 8.1914 9.9766 9.1953 4.7773 0.98828 9.7188-0.66797 12.848-4.3984z"/>
  <path d="m379.06 604.76c71.113 32.023 119.7 100.17 126.8 177.86l1.6133 17.656c15.855 13.906 34.875 23.602 55.305 28.328l-4.6367-50.754c-8.8203-96.504-69.18-181.16-157.52-220.95-104.97-47.289-183.76-135.54-219.47-242.71 29.641 15.316 61.621 25.973 94.793 31.449l136.02 27.09c62.484 12.441 118.95 46.566 159.02 96.098 0.015626 0.023438 0.039063 0.039063 0.058594 0.058594 0.48828 0.59375 1.0938 1.0938 1.6406 1.6562 0.71094 0.72656 1.3633 1.4922 2.1758 2.1523 0.007813 0.007812 0.023438 0.023438 0.03125 0.03125 0.21094 0.17188 0.44922 0.26953 0.66797 0.43359 1.1758 0.89844 2.3867 1.7344 3.6758 2.4062 0.53125 0.27734 1.0938 0.44141 1.6406 0.68359 1.0117 0.44141 2.0156 0.91406 3.0664 1.2227 0.71094 0.21094 1.4492 0.29297 2.168 0.44141 0.92969 0.1875 1.8438 0.42578 2.7891 0.51562 0.73438 0.066406 1.4609 0.015625 2.1992 0.023437 0.95312 0.007813 1.9062 0.066407 2.8516-0.03125 0.72656-0.074218 1.4258-0.26953 2.1445-0.39844 0.9375-0.17188 1.8828-0.29297 2.8047-0.57031 0.84766-0.24609 1.6484-0.64453 2.4688-0.98437 0.74219-0.30859 1.5-0.53906 2.2188-0.92188 1.1719-0.61328 2.2578-1.3867 3.3359-2.1914 0.31641-0.23438 0.66797-0.39062 0.97656-0.63672 0.015625-0.015626 0.023437-0.03125 0.039063-0.039063 0.74219-0.60938 1.3867-1.3594 2.0781-2.0547 0.57813-0.58594 1.1992-1.0938 1.7266-1.7383 0.015625-0.023437 0.039063-0.039062 0.058594-0.058594 40.066-49.531 96.539-83.648 159.02-96.098l136.02-27.09c33.164-5.4766 65.152-16.133 94.793-31.449-35.707 107.19-114.5 195.43-219.47 242.71-88.352 39.789-148.71 124.45-157.53 220.95l-4.6367 50.754c20.43-4.7188 39.449-14.422 55.305-28.328l1.6133-17.656c7.1016-77.676 55.688-145.83 126.81-177.86 141.04-63.523 240.22-192.58 265.31-345.21 1.7773-10.824-3.3594-21.613-12.887-27.047-9.5156-5.4609-21.426-4.3945-29.844 2.6562-36.734 30.699-81.137 51.008-128.39 58.738-0.30078 0.050781-0.59375 0.10547-0.88672 0.15625l-136.45 27.18c-64.434 12.832-123.48 45.047-169.17 91.711-45.691-46.664-104.74-78.879-169.17-91.711l-136.45-27.18c-0.29297-0.058594-0.59375-0.11328-0.88672-0.15625-47.258-7.7344-91.648-28.043-128.39-58.738-8.4219-7.043-20.332-8.1094-29.844-2.6562-9.5312 5.4375-14.672 16.223-12.887 27.047 25.078 152.64 124.26 281.7 265.3 345.22z"/>
  <path d="m1108.1 962.21c-29.094 32.559-70.824 51.227-114.49 51.227-43.664 0-85.395-18.668-114.49-51.227-4.9805-5.5742-12.098-8.7617-19.574-8.7617-7.4766 0-14.594 3.1875-19.574 8.7617-29.094 32.559-70.824 51.227-114.49 51.227-43.664 0-85.395-18.668-114.49-51.227-4.9805-5.5742-12.098-8.7617-19.574-8.7617-7.4766 0-14.594 3.1875-19.574 8.7617-29.094 32.559-70.824 51.227-114.49 51.227-43.664 0-85.395-18.668-114.49-51.227-4.9805-5.5742-12.098-8.7617-19.574-8.7617-7.4766 0-14.594 3.1875-19.574 8.7617-29.094 32.559-70.824 51.227-114.49 51.227-43.664 0-85.395-18.668-114.49-51.227-9.668-10.809-26.258-11.73-37.066-2.0781-10.809 9.6602-11.738 26.25-2.0781 37.059 39.047 43.688 95.039 68.746 153.64 68.746 49.402 0 96.953-17.812 134.06-49.582 37.109 31.77 84.66 49.582 134.06 49.582 49.402 0 96.953-17.812 134.06-49.582 37.109 31.77 84.66 49.582 134.06 49.582 49.402 0 96.953-17.812 134.06-49.582 37.109 31.77 84.66 49.582 134.06 49.582 58.598 0 114.59-25.059 153.64-68.746 9.6602-10.809 8.7305-27.398-2.0781-37.059-10.816-9.6562-27.414-8.7344-37.074 2.0781z"/>
  <path d="m323.26 910.7c49.402 0 96.961-17.812 134.06-49.582 37.102 31.77 84.66 49.582 134.06 49.582 49.402 0 96.961-17.812 134.06-49.582 37.102 31.77 84.66 49.582 134.06 49.582 58.598 0 114.59-25.059 153.64-68.746 9.6602-10.809 8.7305-27.398-2.0781-37.059-10.809-9.6523-27.406-8.7305-37.066 2.0781-29.094 32.559-70.824 51.227-114.49 51.227-43.664 0-85.395-18.668-114.49-51.227-4.9805-5.5742-12.098-8.7617-19.574-8.7617-7.4766 0-14.594 3.1875-19.574 8.7617-29.094 32.559-70.824 51.227-114.49 51.227-43.664 0-85.395-18.668-114.49-51.227-4.9805-5.5742-12.098-8.7617-19.574-8.7617-7.4766 0-14.594 3.1875-19.574 8.7617-29.094 32.559-70.824 51.227-114.49 51.227-43.664 0-85.395-18.668-114.49-51.227-9.6602-10.809-26.258-11.73-37.066-2.0781-10.809 9.6602-11.738 26.25-2.0781 37.059 39.035 43.688 95.031 68.746 153.63 68.746z"/>
 </g>
</svg>
