<?xml version="1.0" encoding="UTF-8"?>
<svg width='100px' height='100px' version="1.1" viewBox="0 0 1200 1200" xmlns="http://www.w3.org/2000/svg">
 <g fill-rule="evenodd">
  <path d="m802 552.35c0 20.711-16.789 37.5-37.5 37.5s-37.5-16.789-37.5-37.5c0-20.711 16.789-37.5 37.5-37.5s37.5 16.789 37.5 37.5"/>
  <path d="m338.75 338.65c5.9492 6.5508 15.5 15.75 26.898 22.398 40.852 23.801 113.65 44.398 236.35 44.398h397.6c38.898 0 75.852 16.898 101.35 46.25 25.5 29.398 36.949 68.398 31.449 106.9v0.10156c-12.051 82.602-45.648 188.05-130.3 259.55-56.852 47.949-136.65 81.398-249.5 81.398-41.352 0-79.949-3.3984-115.95-9.6484-18.352-3.1992-30.648-20.699-27.449-39.051 3.1484-18.352 20.648-30.648 39-27.449 32.449 5.6016 67.199 8.6484 104.4 8.6484 92.898 0 159.15-25.949 205.95-65.5 70.699-59.699 96.949-148.6 107.05-217.65 2.6992-19.102-3-38.5-15.648-53.051-12.648-14.602-31.051-23-50.352-23h-397.6c-210.8 0-294.35-60.398-321.25-97.051-17.852-24.25-17.25-45.949-13.898-56.301 2.8984-8.8984 8.1484-15.25 14.199-19.602 14.699-10.602 30.352-34.102 34.898-82.352-9.4492-0.64844-20.352-0.75-31.102 0.5-11.801 1.3516-24.602 2.3984-30.051 11.898-6 10.5-17.199 17-29.301 17-12.102 0-23.301-6.5-29.301-17-5.4492-9.5-18.25-10.551-30.051-11.898-10.75-1.25-21.699-1.1484-31.148-0.5 4.3008 48.199 19.352 71 34 79.301 22.148 9 38.199 28.699 42.551 52.75 12.051 59.852 64.148 267.1 234.5 390 15.102 10.898 18.551 32 7.6484 47.102-10.898 15.102-32.051 18.551-47.148 7.6484-189.6-136.75-248.3-367-261.35-432.25-0.050781-0.30078-0.10156-0.60156-0.14844-0.94922-0.14844-0.85156-0.75-1.5-1.5508-1.8008-1.3008-0.5-2.5508-1.0508-3.8008-1.6484-28.449-14.5-73.449-56.699-73.449-169.6 0-15.949 11.199-29.75 26.801-33.051 0 0 41.25-8.6016 80.75-4.0508 18.75 2.1484 36.75 7.4492 51.699 16.398 14.949-8.9492 32.949-14.25 51.699-16.398 39.5-4.5508 80.75 4.0508 80.75 4.0508 15.602 3.3008 26.801 17.102 26.801 33.051 0 81.648-23.25 125.95-46 150.45z"/>
  <path d="m1085.9 556.8c18.25 3.8516 29.898 21.75 26.051 40-3.8516 18.199-21.801 29.898-40 26 0 0-119.05-26.301-196.55 42.449-85.449 75.898-123.35 112.45-198.6 111.95-0.050781 36.398-6.8516 90.449-39.051 141.55-35.898 56.949-103.35 111.95-231.55 131.15-16.301 2.4492-32-7.3008-37.102-23 0 0-61.148-180.95 106.5-383.35 11.898-14.301 33.199-16.301 47.551-4.4492 14.352 11.898 16.352 33.199 4.4492 47.551-103.4 124.75-105.65 239.05-99.648 290.6 81.199-18.199 127.45-54.5 152.7-94.5 40.75-64.648 26.449-135.55 26.449-135.55-2.1992-10.801 1-21.949 8.5-29.949 7.5508-7.9492 18.5-11.801 29.352-10.25 82.898 11.852 107.1-22.5 185.65-92.25 100.9-89.5 255.3-57.949 255.3-57.949z"/>
 </g>
</svg>
