<svg width='100px' height='100px' version="1.1" viewBox="0 0 1200 1200" xmlns="http://www.w3.org/2000/svg">
 <path d="m1179.7 445.92-2.0391-6-6.1211-1.6797s-49.801-14.16-86.641-26.762c-13.32-30.121-29.039-33.359-36-33.238l-22.922-3.7188c-15.719-32.16-81.719-70.801-96-78.84l-25.559-14.52 14.281 49.559v-0.003906c-15.473-7.1602-32.086-11.547-49.078-12.957h-49.441l43.801 22.559c5.918 2.6406 10.918 6.9844 14.355 12.477 3.4414 5.4922 5.168 11.887 4.9648 18.363l-195.48 45.359 43.801 6.3594c-39 3.3594-94.922 6.4805-173.04 7.6797h-54.602c-168 1.5586-260.28 2.2812-293.52 119.04-30.602 108-135.6 96-140.88 96-5.2812 0.003906-33.602-0.11719-46.801 15.961-5.8516 7.5312-7.5195 17.496-4.4414 26.52 8.5195 29.762 71.039 39.48 120.84 39.48 17.223 0.29688 34.43-1.1523 51.359-4.3203 26.762-6.1211 55.32-26.879 75.84-44.641-28.559 48-92.641 67.441-93.238 67.68l-6.9609 2.0391-34.199 180.48h116.64l1.0781-10.801c0.47656-9.9062-2.875-19.617-9.3594-27.121-8.8203-9.7617-20.645-16.309-33.598-18.598 8.5195-18.121 24-48 35.281-70.801h-0.003907c48.445-24.957 95.367-52.77 140.52-83.281 1.9805 13.227-2.4805 26.605-12 36-21.359 20.52-39.961 42.48-31.559 63.359 4.1992 10.559 51 89.641 60 105.36l3.4805 5.8789h105.12l1.8008-9.8398-0.003906 0.003907c1.543-11.418-1.9609-22.938-9.5977-31.562-12-13.078-31.68-19.922-58.68-19.68-7.9961-17.492-14.344-35.691-18.961-54.359 24.602-14.879 99.719-62.52 129.6-108 2.3984 0.60156 4.5586 1.1992 6.4805 1.9219h-0.003907c29.059 7.4219 58.832 11.688 88.801 12.719 0 21.961 0 70.559-2.7617 87.961-3.3594 25.68 28.441 98.762 34.801 113.16l3.1211 7.0781h125.28l-1.8008-13.559c-1.3477-12.93-8.3867-24.586-19.199-31.801-17.457-8.9688-37.551-11.395-56.641-6.8398l-14.879-38.762 36-111.48h17.039v0.003907c11.809 26.816 30.734 49.887 54.719 66.719 41.918 31.492 72.32 75.891 86.52 126.36l2.1602 9.2383h130.44l-4.5586-15.48v0.003906c-3.8398-14.703-13.68-27.113-27.121-34.203-16.039-7.1875-33.984-8.957-51.121-5.0391l-77.398-142.32v-12c91.918-47.039 121.08-141.96 128.28-172.56l112.92-5.6406h8.0391l2.6406-7.6797h-0.003907c4.832-12.262 14.199-22.188 26.16-27.719 27.602-12 25.199-44.16 20.039-59.52zm-235.56-113.64c15.555 9.9258 30.316 21.039 44.16 33.238-9.1211-5.2812-24-13.559-40.922-21.84zm-540 464.88-8.1602 4.4414 1.9219 8.6406v-0.003907c5.8828 26.207 14.953 51.598 27 75.602l3.6016 6.3594h7.3203c22.922-0.96094 39.602 2.8789 46.922 10.922l1.5586 2.0391h-66.723c-25.559-43.199-52.801-90.121-55.199-96-0.83984-2.0391-1.4414-10.922 25.922-37.199h-0.003907c8.5898-8.8984 14.637-19.938 17.508-31.969s2.4609-24.613-1.1875-36.434l1.4414-1.0781h-0.003906c39.934-3.1055 80.031-3.3867 120-0.83984-36 45.719-121.32 94.918-122.28 95.52zm285.84 40.922 25.441 66.48 10.559-3c8.7617-2.5195 34.32-6.8398 48 1.9219l1.6797 1.3203-77.758-0.003907c-14.281-33.238-31.559-80.16-29.879-93.238 2.3984-18.359 2.8789-66.238 3-89.398 19.441 1.1992 38.641 2.1602 55.078 2.7617zm460.8-355.32c-15.633 6.8945-28.367 19.031-36 34.316l-124.44 6.2383-1.5586 9.6016c0 1.0781-18.359 106.2-106.56 158.52l-0.003907-26.156h-24v72l84 156.6 4.8008 8.7617 9.4805-3.1211v-0.003907c13.875-4.4531 28.852-4.0703 42.48 1.082 2.2266 1.1562 4.2852 2.6094 6.1211 4.3203h-75c-16.414-52.617-49.207-98.613-93.602-131.28-65.281-45.719-61.68-129.24-61.68-130.08l-24-1.3203v-0.003907c-0.42188 20.305 2.332 40.547 8.1602 60-55.441-1.5586-161.64-6.4805-191.16-17.281-29.52-10.801-89.039-10.199-128.88-8.6406v0.003906c17.113-13.957 32.828-29.551 46.918-46.559l-18.719-15c-62.281 78-237 166.2-239.16 167.04l-3.4805 1.8008-1.8008 3.4805c-3.9609 7.8008-39 76.078-44.281 90.719l-5.2812 14.762 15.602 1.1992h0.003907c11.617-0.15625 22.934 3.7031 32.039 10.918h-60l25.801-138c20.52-7.4414 79.32-32.641 105-84.961l1.1992-2.2812v-2.6406c0-8.8789 0.83984-17.398 1.4414-25.559 7.3203-85.441 35.281-131.16 36-132l-20.156-12.961c-1.3203 2.1602-29.879 48-38.52 134.88-14.641 14.762-53.641 51.602-86.398 59.039-49.801 11.398-139.44-2.6406-144-18.238-1.0781-3.6016 0-4.6797 0-5.1602l-0.007813 0.003906c7.7031-4.9141 16.816-7.1523 25.918-6.3594 1.3203 0 129.72 14.16 165.96-113.4 28.32-99.359 104.16-100.08 270.6-101.52h54.719c205.8-3 258.96-19.441 261.12-20.039l49.559-15.84-51.961-7.5586 86.52-20.039 1.9219-6.9609v-0.007813c2.6992-11.141 2.0312-22.836-1.918-33.598 27.828 11.586 54.781 25.184 80.637 40.68l2.0391 1.1992 62.039 9.9609h0.71875c1.6797 0.71875 8.2812 4.6797 15.48 23.16l2.0391 5.1602 5.1602 1.8008c30 10.559 70.559 22.441 86.398 27 1.5664 6.2383 2.0469 18.238-7.6719 22.32z"/>
</svg>
