<svg width='100px' height='100px' version="1.1" viewBox="0 0 100 100" xmlns="http://www.w3.org/2000/svg">
<path d="m32.551 29.43c0.64453 0.003906 1.2852-0.074219 1.9102-0.23047 4.0469-0.96875 6.7305-4.8164 6.2383-8.9492 0.85547-0.44141 1.4727-1.2344 1.6914-2.1719 0.82031-3.3008-2.8086-8.3086-3-8.5195-0.14844-0.18359-0.37109-0.29297-0.60547-0.29297s-0.46094 0.10938-0.60547 0.29297c-0.92578 1.3008-1.7031 2.6992-2.3203 4.1719-2.2617-1.0156-4.8633-0.95312-7.0781 0.16797-2.2109 1.125-3.7969 3.1875-4.3125 5.6133s0.089844 4.957 1.6562 6.8828c1.5625 1.9258 3.9141 3.043 6.3945 3.0352zm8.3906-11.711c-0.13281 0.57031-0.52734 1.0469-1.0625 1.2812-0.67188 0.32812-1.457 0.32812-2.1289 0-0.51172-0.25-0.88281-0.72266-1-1.2812-0.44141-1.7891 1-4.6914 2.1211-6.3789 1.0078 1.6602 2.5078 4.5898 2.0703 6.3789z"/>
 <path d="m74.172 28.02v-5.3008h-27.371v5.3008z"/>
 <path d="m46.801 15.781h27.371v5.4414h-27.371z"/>
 <path d="m37.512 32.809c-1.3594 4.2891 1 6.6484 3.5586 8.3906 3.5469 2.4258 6.625 5.4766 9.0781 9 0.53125 0.78516 0.59766 1.7969 0.17187 2.6406l-6.5117 12.738c-0.039063 0.078125-0.066406 0.15625-0.078125 0.24219l-3.1914 24.078c-0.023437 0.21484 0.042969 0.43359 0.1875 0.59375 0.14063 0.16406 0.34766 0.25781 0.5625 0.25781h4.4727c0.33594 0 0.62891-0.22656 0.71875-0.55078l5.7109-21.059c0.51172-0.51953 2.3711-2.4688 4.3789-4.5898l1 6.2188c0.007813 0.070313 0.027344 0.13672 0.058594 0.19922l8.9297 19.34c0.12109 0.26953 0.38672 0.44141 0.67969 0.44141h0.12109l4-0.66016c0.21875-0.03125 0.41016-0.16016 0.51953-0.35156 0.11719-0.18359 0.14453-0.41016 0.082032-0.61719l-6.7305-20.742 1-17.512 2.1914 1.6992v0.003906c0.12891 0.10156 0.29297 0.16016 0.45703 0.16016 0.20703 0 0.40625-0.085938 0.55078-0.23047l2.3516-2.5c0.25-0.28516 0.25-0.71484 0-1l-1-1h3.3281v-4.6016h-7.4688l-1.3789-1.5h8.9102v-5.4375h-14.594c-0.53125-0.48828-1.1016-1-1.7109-1.5h16.301l0.003906-5.4414h-23.344v0.85938c-0.5-0.25-1-0.46875-1.5-0.69141l-0.42188-0.17188c-0.71094-0.28906-1.4219-0.55078-2.1211-0.76953l0.003906 0.003906c-0.48828-0.15234-0.98437-0.27344-1.4883-0.37109-3.9922-0.78906-6.6016 0.69141-7.7891 4.4297zm32.699 16.68-1.4297 1.5117-9.2617-7.1914-0.089843-0.058594-14-8.0781c-0.35547-0.19141-0.79688-0.066406-1 0.27734-0.19531 0.35156-0.078126 0.79688 0.26953 1l13.941 8.0508 6 4.6797c-0.26562 2.9609-1.543 5.7422-3.6211 7.8711-2.0195 2.3477-9.9609 10.609-10.02 10.688-0.089844 0.09375-0.14844 0.20703-0.17969 0.33203l-5.6406 20.68h-3l3.0586-23.102 6.4609-12.66c0.67188-1.3359 0.57031-2.9297-0.26953-4.168-2.582-3.6562-5.8047-6.8125-9.5078-9.3203-3-2.0781-3.8516-4-3-6.7109 1.0703-3.3789 3.3594-4.3281 7.4102-3.0703 0.46875 0.14062 0.94141 0.30859 1.4219 0.48828l13 8.5781z"/>
</svg>
